<?xml version="1.0" encoding="UTF-8"?><svg id="LOGO_HORIZONTAL" xmlns="http://www.w3.org/2000/svg" viewBox="0 0 284.45573 80.93233"><defs><style>.cls-1{fill:#5a55a5;}.cls-2{fill:#fff;}</style></defs><rect class="cls-1" x="14.58074" y="14.90988" width="51.11259" height="51.11258" rx="5.11118" ry="5.11118"/><path class="cls-2" d="M53.08095,21.53551c-2.84376.09725-5.32638,1.6672-7.17431,3.83295-2.04605,2.37857-3.40682,5.19735-4.38874,8.07653-1.75354-1.43872-3.10577-3.30009-5.92154-4.10966-2.17539-.62552-4.45989-.36842-6.56144,1.19759-.99536.74316-1.68111,1.8658-2.007,2.9244-.84467,2.74494.88689,5.18929,1.674,6.0659l1.72112,1.8424c.35387.36193,1.2085,1.30479.79028,2.6556-.44985,1.47098-2.22188,2.42032-4.0393,1.86232-.81225-.24919-1.97822-.85352-1.71653-1.70357.10689-.34897.3564-.61144.49112-.90918.12175-.25995.1812-.45317.2182-.56891.33189-1.08264-.12238-2.49289-1.28297-2.85166-1.08359-.33237-2.19168-.0691-2.6216,1.32519-.48701,1.58419.27117,4.46005,4.33339,5.71139,4.75889,1.46465,8.78364-1.1277,9.35461-4.5059.36003-2.11594-.59642-3.68922-2.34648-5.71092l-1.42718-1.57881c-.86348-.86301-1.16043-2.33462-.26643-3.46516.75517-.95504,1.82896-1.36077,3.5904-.88262,2.57021.69698,3.71468,2.4804,5.62554,3.91912-.78775,2.5884-1.30432,5.1866-1.77061,7.51616l-.28635,1.7382c-1.36567,7.1634-2.40894,11.09881-5.11893,13.35737-.54662.38897-1.32693.97053-2.50286,1.01196-.61793.01882-.81716-.40637-.82554-.59216-.01407-.43166.35039-.63042.59247-.82459.36288-.19812.91045-.52558.87297-1.57533-.03953-1.24044-1.06667-2.31549-2.55219-2.26615-1.11221.03747-2.80771,1.08311-2.74336,2.99998.06546,1.98012,1.91023,3.46358,4.69264,3.36934,1.48711-.04981,4.80838-.65493,8.08033-4.54432,3.80923-4.46052,4.87432-9.57186,5.6755-13.31373l.89495-4.94073c.49634.06008,1.02793.1004,1.60601.11385,4.74435.1004,7.11581-2.35597,7.15281-4.14397.02404-1.08169-.70932-2.14741-1.73646-2.12195-.73383.02056-1.65724.51072-1.87797,1.526-.21773.99583,1.50892,1.89568.1597,2.77182-.95835.61998-2.67647,1.05607-5.09647.7022l.43973-2.43186c.89811-4.61121,2.00573-10.28276,6.2082-10.42143.30643-.01439,1.42607.01297,1.45216.75454.00743.24635-.05455.31118-.34359.8766-.29536.44131-.40684.81874-.39229,1.24993.04048,1.17656.93543,1.95134,2.23168,1.90628,1.73314-.05835,2.23074-1.74499,2.20228-2.61243-.07084-2.03862-2.21856-3.3265-5.05995-3.23257"/><path d="M179.41294,31.82535c6.47359,0,10.81349,4.6767,10.81349,11.1474,0,6.0967-4.4238,11.1456-10.81349,11.1456-6.42771,0-10.85161-5.0489-10.85161-11.1456,0-6.4707,4.3379-11.1474,10.85161-11.1474ZM179.41294,50.95035c4.59279,0,6.63669-4.1758,6.63669-7.9776,0-4.0478-2.4629-7.97162-6.63669-7.97162-4.21581,0-6.67971,3.92382-6.67971,7.97162,0,3.8018,2.0469,7.9776,6.67971,7.9776Z"/><path d="M168.02333,33.80775v-1.4814h-5.6377v-2.0245c0-2.8808.4189-5.0546,3.7978-5.0546.06251,0,.1279.0058.1934.0088.0068,0,.0049-.0108.0127-.0108.93841.0684,1.7197-.6953,1.77241-1.6328l.06839-1.2861c-.793-.126-1.6299-.25-2.6299-.25-5.8027,0-7.1377,3.38178-7.1377,8.5595v1.6905h-5.0146v1.6533c.1289.8574.8632,1.5176,1.75781,1.5176.00389,0,.00879.00388.01359.00388h3.2432v18.11912h2.167c.9004,0,1.6338-.6777,1.7559-1.541v-16.57812h3.9257c.9229-.03028,1.6661-.76958,1.712-1.69338Z"/><path d="M115.74743,32.32635c-.0059,0-.0108.00478-.021.00478-.8262,0-1.627.56842-1.9766,1.337l-5.3994,16.27832h-.08449l-5.28121-16.2696c-.3457-.7734-1.1504-1.34572-1.9819-1.34572-.0103,0-.0132-.00478-.0206-.00478h-2.7368l7.2227,19.874c.2524.7109.7539,1.7969.7539,2.2539,0,.41988-1.1699,5.2598-4.6792,5.2598-.08589,0-.1743-.0098-.2593-.0157-.895-.0488-1.5708.5762-1.7202,1.5391l-.10739,1.3594c.71039.125,1.42229.2929,2.67379.2929,5.1763,0,6.7207-4.7207,8.1841-8.8105l7.8472-21.7529h-2.4136Z"/><path d="M90.79913,36.65155c-3.24019-1.6582-6.7871-2.7852-6.8486-6.1211.0098-3.543,3.2661-4.4737,5.7739-4.4707.0122-.002.022-.002.0284-.002,1.0903,0,1.9614.10838,2.812.2949.0112,0,.0092-.0136.0219-.0136.8999.0664,1.6553-.6368,1.7598-1.5235l.0718-1.2871c-1.6446-.4082-3.3638-.6172-4.86039-.6172-5.45511.0342-9.50631,2.7793-9.519,8.0176.00629,4.5801,3.09179,6.3555,6.414,7.9629,3.25639,1.56638,6.82129,2.85838,6.85209,6.6387-.01809,3.9433-3.8242,5.3964-6.4468,5.4023-1.5342-.0059-3.1992-.3867-4.6025-.8301-.8789-.14452-1.5996.6309-1.7149,1.6582l-.1176,1.1465c1.9292.6231,3.9062,1.168,5.895,1.168h.022c6.1123-.0449,10.8618-2.4824,10.8808-8.8106-.0083-4.8828-3.1172-6.93362-6.4219-8.6132Z"/><path d="M150.15613,53.62025h.0049c.8466,0,1.5537-.5957,1.7314-1.3887v-12.2636c0-4.63482-1.958-8.1426-7.3887-8.1426-1.9199,0-5.13379,1.0879-6.5957,4.13478-1.126-2.88088-3.5898-4.13478-6.0508-4.13478-3.1328,0-5.2627,1.1269-6.7646,3.59178h-.084v-1.32418c-.01169-.9746-.8008-1.76182-1.7773-1.76182-.0088,0-.0127-.00478-.0186-.00478h-1.8774v21.2939h2.1284c.9844,0,1.7803-.7988,1.7803-1.7812,0-.0274.0088-.0372.0175-.0547v-8.8946c0-3.9648,1.585-7.88862,5.5918-7.88862,3.1709,0,3.8018,3.29682,3.8018,5.92772v12.6914h2.1592c.9297,0,1.6787-.7148,1.7617-1.623v-9.1075c0-3.9648,1.58791-7.88862,5.5947-7.88862,3.1729,0,3.7998,3.29682,3.7998,5.92772v12.6914h2.1856Z"/><path d="M210.80353,53.62025h.0049c.957,0,1.7276-.7559,1.77351-1.70312v-10.94728c0-5.71872-2.46591-9.1445-7.97661-9.1445-2.9639,0-5.8008,1.4629-6.9727,3.8857h-.082v-1.5908c0-.0019-.0039-.0019-.0039-.0059,0-.9873-.79879-1.78322-1.7793-1.78322-.0107,0-.0127-.00478-.01949-.00478h-1.99811v21.2939h2.1612c.9335,0,1.6914-.7266,1.7627-1.6426v-8.2109c0-5.1758,2.0058-8.76562,6.4726-8.76562,3.4268.207,4.5068,2.62692,4.5068,7.59662v11.0225h2.1504Z"/><path d="M231.93153,32.32635c-.0098,0-.0137.00478-.0225.00478-.82709,0-1.6289.56842-1.9775,1.337l-5.3975,16.27832h-.0879l-5.28219-16.2696c-.34571-.7734-1.15041-1.34572-1.98051-1.34572-.0078,0-.0127-.00478-.01949-.00478h-2.73731l7.2236,19.874c.25.7109.7549,1.7969.7549,2.2539,0,.41988-1.1709,5.2598-4.6807,5.2598-.0849,0-.1709-.0098-.2588-.0157-.8945-.0488-1.5683.5762-1.7216,1.5391l-.1055,1.3594c.709.125,1.4219.2929,2.6748.2929,5.1758,0,6.7197-4.7207,8.18361-8.8105l7.84859-21.7529h-2.414Z"/><path class="cls-1" d="M253.39985,47.45406h-13.29523l-1.60193,4.55023c-.40867,1.16081-1.50535,1.93738-2.73599,1.93738h-3.3834l10.92086-30.52647c.27304-.7632.99618-1.27253,1.80675-1.27253h3.32851c.81057,0,1.53372.50932,1.80675,1.27253l10.92086,30.52647h-3.0259c-1.47233,0-2.78439-.92908-3.27331-2.31786l-1.46798-4.16975ZM251.93835,43.20509l-5.16318-14.75776-5.20802,14.75776h10.3712Z"/><path class="cls-1" d="M269.87499,24.50757v27.11454c0,1.28105-1.0385,2.31955-2.31955,2.31955h-2.88949v-31.75364h2.88949c1.28105,0,2.31955,1.0385,2.31955,2.31955Z"/></svg>