<svg height="15.244921mm" viewBox="0 0 52.91666 15.244921" width="52.91666mm" xmlns="http://www.w3.org/2000/svg"><path d="m-259.18627 274.57516c63.5635-11.22863 116.06332-20.52032 116.66629-20.64819l1.09632-.2325-60.01021-71.38026c-33.00559-39.25915-60.01018-71.53249-60.01018-71.71853 0-.35223 61.96561-170.992127 62.31396-171.599207.11647-.20297 42.28595 72.60148 102.221586 176.482797 56.11284 97.25555 102.3751556 177.4431 102.8051496 178.19452l.78184 1.36624-190.7173956-.0246-190.71736-.0245 115.57-20.4157zm731.37889-17.26291c-29.03093-1.86128-45.91544-18.39214-50.38974-49.33422-1.19021-8.2311-1.19476-8.44466-1.31656-61.88078l-.11789-51.717227h12.84834 12.8483l.10118 50.023887c.0912 45.08514.14842 50.37131.57946 53.54292 1.74935 12.87168 5.23201 21.5276 11.16124 27.74067 4.74528 4.97242 10.30038 7.8839 17.99011 9.42882 3.62783.72884 13.94813.7303 17.25569.003 7.79588-1.7156 14.0442-5.10811 19.55617-10.61799 6.28249-6.28012 10.93015-15.1903 13.17899-25.26595l.75793-3.39586.0844-50.44723.0844-50.447217h13.11732 13.11735v79.304447 79.30444h-12.98222-12.98222v-12.5824c0-8.54933-.0937-12.55118-.29222-12.485-.16069.0536-.82744 1.07357-1.48166 2.26667-4.47373 8.15896-11.92745 15.62029-20.09501 20.1155-9.79024 5.38827-19.60858 7.30422-33.02333 6.44412zm294.66636-.12816c-10.24795-.7703-21.03846-4.29359-29.85796-9.74908-18.58873-11.49853-29.58761-30.45184-32.80805-56.53499-1.11441-9.02575-1.24835-21.14964-.3184-28.81907 2.07786-17.13682 8.81185-33.95976 18.40106-45.96982 2.45824-3.07883 8.03495-8.65553 11.11365-11.11361 8.31379-6.637877 18.03843-11.279617 28.36334-13.538327 6.01579-1.31603 16.60968-1.93394 23.00111-1.34159 16.05576 1.48805 30.77105 9.04765 40.77267 20.945887 10.1615 12.08847 15.74681 28.98006 16.46007 49.77987.11179 3.25966.13889 8.97466.0603 12.7l-.143 6.77333-56.23278.0712-56.23278.0712v2.5094c0 7.63915 1.85722 16.33991 5.06795 23.74265 2.76877 6.38373 7.53485 13.35462 11.43714 16.72802 8.00131 6.91687 17.79386 11.05701 28.50936 12.05334 3.97318.3694 14.09889-.0195 18.62666-.7152 12.91802-1.98524 25.19946-7.052 35.11745-14.48783 1.16688-.87486 2.28357-1.69223 2.48152-1.81635.28968-.18164.35814 2.10408.35081 11.71222l-.009 11.93792-2.65743 1.64355c-11.21971 6.93911-24.07305 11.39481-37.68211 13.06277-4.06135.49775-18.96443.71949-23.82142.35441zm48.93919-100.68528c0-12.79609-5.39245-27.01096-13.02337-34.3305-5.44587-5.22367-12.02921-8.41603-19.85552-9.62822-3.70264-.5735-11.50631-.35262-15.41004.43617-8.25234 1.66748-15.07811 5.29536-21.03154 11.17821-6.26561 6.19133-10.96323 13.71122-13.91756 22.27909-1.06234 3.08091-2.30488 8.13901-2.69056 10.95257l-.18376 1.34056h43.05616 43.05619zm-762.787318 96.70177c.06587-.19403 19.161194-50.3586 42.434086-111.47682l42.314342-111.124037 13.59583-.00085 13.5958-.00084 1.12805 2.89278c3.4472 8.84008 84.71032 219.821587 84.71032 219.931197 0 .0722-6.50875.13039-14.46389.12923l-14.46389-.003-11.71222-31.18282-11.71222-31.18281-47.15885-.00057-47.15886-.00056-.40982 1.05833c-.22538.58208-5.229376 14.61335-11.120031 31.18062l-10.710221 30.12225-14.494087.005c-11.4727.004-14.469109-.0686-14.374339-.34784zm136.818428-85.81487c0-.0494-7.88187-21.41719-17.51527-47.48389-18.02243-48.766297-19.03061-51.700447-20.45454-59.529577-.66771-3.67122-1.00556-3.77324-1.40188-.42333-.2833 2.39448-1.51167 7.75245-2.45866 10.72445-.46988 1.47461-8.58577 23.74972-18.03533 49.500237-9.44954 25.75052-17.18099 46.92777-17.18099 47.06055 0 .13279 17.33551.24143 38.52334.24143s38.52333-.0404 38.52333-.0899zm69.70889 82.10639v-4.06127l46.98461-64.58929 46.98461-64.5893-42.53961-.14111-42.53961-.14111-.0739-10.795-.0739-10.794997h61.52781 61.5278v3.64606 3.646057l-46.99 64.94153c-25.8445 35.71785-46.99 65.00162-46.99 65.07506 0 .0734 20.8915.13352 46.42555.13352h46.42556v10.86555 10.86556h-65.33447-65.33445zm344.78149 3.8731c-.10349-.10346-.18816-35.91746-.18816-79.58666v-79.398517h12.84112 12.84111v16.368887c0 9.00289.10947 16.36889.2433 16.36889s.75881-1.47368 1.38884-3.27484c2.88711-8.2536 7.89393-15.96572 14.34443-22.09509 5.81095-5.521657 12.45235-8.823637 20.28898-10.087287 2.20134-.35497 4.064-.42274 8.46667-.30806 5.52924.14402 8.42001.54819 11.78278 1.64738l1.05833.34594v13.328937 13.32893l-3.03389-1.51868c-5.3592-2.68267-10.64714-3.74429-17.00389-3.41375-4.13707.21513-6.85252.74636-10.16 1.98766-6.80519 2.55399-12.32518 7.06198-16.18228 13.2155-5.58374 8.90817-9.56612 20.35873-10.7407 30.88287-.21079 1.88864-.33508 17.27019-.38459 47.59327l-.0731 44.80278h-12.65041c-6.95771 0-12.73506-.0847-12.83852-.18816zm-1092.38816-.55758c0-.1005 28.27652-49.18632 62.83671-109.07964l62.8367-108.896937 73.22891-61.45385c40.2759-33.79961 73.33737-61.49516 73.46992-61.54567.13255-.0505-.39727 1.28299-1.17738 2.96333s-36.56244 78.4296699-79.51629 170.55406l-78.09789 167.498887-56.79034.0712c-31.23468.0392-56.79034-.011-56.79034-.11142z" fill="#0089d6" stroke-width=".282222" transform="matrix(.03978217 0 0 .03978217 19.41642 3.50759)"/></svg>