<svg fill="none" height="111.45062" viewBox="0 0 600.00001 111.45062" width="600" xmlns="http://www.w3.org/2000/svg"><g transform="scale(2.8217633)"><path d="m82.470997 37.07441c-3.734 0-6.507-1.254-8.32-3.76-1.787-2.534-2.68-6.094-2.68-10.68 0-4.587.893-8.134 2.68-10.64 1.813-2.534 4.586-3.8 8.32-3.8 1.44 0 2.706.2 3.8.6 1.12.373 2.08.906 2.88 1.6.8.693 1.453 1.533 1.96 2.52.533.986.946 2.093 1.24 3.32l-5.6 1.36c-.16-.667-.347-1.28-.56-1.84-.214-.56-.494-1.04-.84-1.44-.32-.4-.734-.707-1.24-.92-.48-.24-1.067-.36-1.76-.36-1.627 0-2.787.64-3.48 1.92-.667 1.253-1 3-1 5.24v4.88c0 2.24.333 4 1 5.28.693 1.253 1.853 1.88 3.48 1.88 1.386 0 2.386-.427 3-1.28.64-.854 1.106-1.947 1.4-3.28l5.6 1.36c-.294 1.226-.707 2.333-1.24 3.32-.507.986-1.16 1.84-1.96 2.56-.8.693-1.76 1.226-2.88 1.6-1.094.373-2.36.56-3.8.56zm13.944-30.08h5.920003v12.72h.24c.24-.587.533-1.134.88-1.64.347-.507.76-.947 1.24-1.32.507-.4 1.08-.707 1.72-.92.667-.24 1.413-.36 2.24-.36.987 0 1.893.173 2.72.52.827.32 1.533.813 2.12 1.48.587.666 1.04 1.48 1.36 2.44.347.96.52 2.066.52 3.32v13.36h-5.92v-12.56c0-2.667-1.16-4-3.48-4-.453 0-.907.066-1.36.2-.427.106-.813.293-1.16.56-.347.24-.627.546-.84.92-.187.373-.28.813-.28 1.32v13.56h-5.920003zm24.344003 25h4.76v-11.44h-4.76v-4.6h10.68v5.84h.28c.187-.747.44-1.467.76-2.16.347-.72.774-1.347 1.28-1.88.534-.56 1.174-1 1.92-1.32.747-.32 1.627-.48 2.64-.48h1.96v5.44h-4.4c-1.466 0-2.573.44-3.32 1.32-.746.853-1.12 1.906-1.12 3.16v6.12h6.8v4.6h-17.48zm33.025 5.08c-1.6 0-3.04-.24-4.32-.72-1.28-.507-2.373-1.227-3.28-2.16-.88-.934-1.56-2.067-2.04-3.4-.48-1.334-.72-2.84-.72-4.52s.24-3.187.72-4.52c.48-1.334 1.16-2.467 2.04-3.4.907-.934 2-1.64 3.28-2.12 1.28-.507 2.72-.76 4.32-.76s3.04.253 4.32.76c1.28.48 2.36 1.186 3.24 2.12.907.933 1.6 2.066 2.08 3.4.48 1.333.72 2.84.72 4.52s-.24 3.186-.72 4.52c-.48 1.333-1.173 2.466-2.08 3.4-.88.933-1.96 1.653-3.24 2.16-1.28.48-2.72.72-4.32.72zm0-4.4c1.333 0 2.373-.414 3.12-1.24.747-.827 1.12-2 1.12-3.52v-3.28c0-1.52-.373-2.694-1.12-3.52-.747-.827-1.787-1.24-3.12-1.24s-2.373.413-3.12 1.24c-.747.826-1.12 2-1.12 3.52v3.28c0 1.52.373 2.693 1.12 3.52.747.826 1.787 1.24 3.12 1.24zm13.184 3.92v-20.64h4.76v3.04h.28c.32-.96.774-1.787 1.36-2.48.614-.694 1.467-1.04 2.56-1.04 2 0 3.227 1.173 3.68 3.52h.24c.16-.48.36-.934.6-1.36.24-.427.534-.8.88-1.12.347-.32.76-.574 1.24-.76.48-.187 1.04-.28 1.68-.28 2.88 0 4.32 2.12 4.32 6.36v14.76h-4.76v-14.16c0-.96-.173-1.627-.52-2-.32-.4-.746-.6-1.28-.6-.506 0-.946.173-1.32.52-.346.32-.52.826-.52 1.52v14.72h-4.8v-14.16c0-.96-.16-1.627-.48-2-.293-.4-.706-.6-1.24-.6-.533 0-.986.173-1.36.52-.373.32-.56.826-.56 1.52v14.72zm42.265 0c-1.227 0-2.214-.307-2.96-.92-.747-.64-1.187-1.547-1.32-2.72h-.2c-.374 1.36-1.12 2.386-2.24 3.08-1.094.693-2.44 1.04-4.04 1.04-2 0-3.614-.534-4.84-1.6-1.2-1.094-1.8-2.614-1.8-4.56 0-2.16.786-3.76 2.36-4.8 1.573-1.04 3.88-1.56 6.92-1.56h3.32v-1.04c0-1.227-.294-2.147-.88-2.76-.56-.64-1.52-.96-2.88-.96-1.254 0-2.267.24-3.04.72-.774.48-1.44 1.106-2 1.88l-3.24-2.88c.693-1.174 1.773-2.134 3.24-2.88 1.493-.774 3.4-1.16 5.72-1.16 2.826 0 5.026.653 6.6 1.96 1.6 1.28 2.4 3.226 2.4 5.84v9.04h2.28v4.28zm-8.52-3.4c1.04 0 1.92-.254 2.64-.76.72-.507 1.08-1.24 1.08-2.2v-2.48h-3.16c-2.427 0-3.64.813-3.64 2.44v.8c0 .72.28 1.266.84 1.64.56.373 1.306.56 2.24.56z" fill="currentColor"/><circle cx="-19.7484" cy="-19.7484" fill="#327eff" r="19.7484" transform="scale(-1)"/><circle cx="-39.495995" cy="-19.7484" fill="#ffde2d" r="19.7484" transform="scale(-1)"/><g fill="#ff6446"><path d="m19.748397 19.74841c0-10.906 8.8416-19.74800001 19.7486-19.74800001v19.74800001z"/><path d="m39.495997 19.74841c0 10.907-8.8416 19.748-19.7483 19.748v-19.748z"/></g></g></svg>
