<svg viewBox="0 0 963 256" xmlns="http://www.w3.org/2000/svg"><path d="m287.541 161v-68.8551h18.22v25.6351h20.551v-25.6351h18.22v68.8551h-18.22v-27.33h-20.551v27.33zm86.825 1.271c-5.791 0-9.993-1.942-12.606-5.826-2.613-3.955-3.919-9.216-3.919-15.784v-32.626h18.22v30.296c0 3.39.424 5.649 1.271 6.779.918 1.13 2.26 1.695 4.026 1.695 1.694 0 3.107-.353 4.237-1.059s2.26-1.907 3.39-3.602v-34.109h18.22v52.965h-14.831l-1.271-6.991h-.424c-2.118 2.542-4.484 4.555-7.097 6.038-2.542 1.483-5.614 2.224-9.216 2.224zm64.419 20.551c-4.025 0-7.733-.459-11.123-1.377-3.389-.848-6.108-2.225-8.156-4.132-1.978-1.906-2.966-4.449-2.966-7.627 0-4.166 2.471-7.556 7.415-10.169v-.424c-1.354-1.001-2.535-2.218-3.496-3.601-.918-1.483-1.377-3.32-1.377-5.509 0-1.836.53-3.637 1.589-5.402 1.13-1.766 2.578-3.284 4.343-4.555v-.424c-1.907-1.271-3.601-3.072-5.084-5.403-1.413-2.401-2.119-5.12-2.119-8.156 0-4.379 1.059-7.98 3.178-10.805 2.189-2.896 5.014-5.014 8.474-6.356 3.461-1.412 7.133-2.119 11.017-2.119 3.107 0 5.932.424 8.474 1.272h19.704v13.135h-7.627c.211.636.388 1.448.529 2.436.212.989.318 2.013.318 3.072 0 4.167-.953 7.557-2.86 10.17-1.907 2.542-4.484 4.414-7.733 5.614-3.249 1.201-6.85 1.801-10.805 1.801-1.765 0-3.743-.247-5.932-.742-.848.777-1.271 1.801-1.271 3.072 0 1.13.565 1.942 1.695 2.437 1.2.494 3.107.741 5.72.741h7.945c6.638 0 11.758 1.095 15.36 3.284 3.672 2.119 5.508 5.614 5.508 10.487 0 3.814-1.271 7.168-3.813 10.064-2.472 2.895-6.003 5.155-10.594 6.779-4.59 1.625-10.028 2.437-16.313 2.437zm1.695-49.364c1.695 0 3.072-.6 4.131-1.801 1.06-1.2 1.589-3.072 1.589-5.614 0-2.472-.529-4.273-1.589-5.403-1.059-1.2-2.436-1.8-4.131-1.8s-3.072.6-4.131 1.8c-1.06 1.13-1.589 2.931-1.589 5.403 0 2.542.529 4.414 1.589 5.614 1.059 1.201 2.436 1.801 4.131 1.801zm1.271 38.135c2.966 0 5.438-.459 7.415-1.377 1.978-.848 2.966-2.013 2.966-3.496 0-1.412-.635-2.295-1.906-2.648-1.201-.353-2.931-.53-5.191-.53h-4.131c-2.119 0-3.743-.07-4.873-.212-1.059-.07-1.977-.211-2.754-.423-1.271 1.271-1.907 2.542-1.907 3.813 0 1.695.953 2.931 2.86 3.708 1.978.777 4.485 1.165 7.521 1.165zm54.862 11.229c-4.026 0-7.733-.459-11.123-1.377-3.39-.848-6.109-2.225-8.157-4.132-1.977-1.906-2.966-4.449-2.966-7.627 0-4.166 2.472-7.556 7.415-10.169v-.424c-1.354-1.001-2.535-2.218-3.495-3.601-.919-1.483-1.378-3.32-1.378-5.509 0-1.836.53-3.637 1.589-5.402 1.13-1.766 2.578-3.284 4.344-4.555v-.424c-1.907-1.271-3.602-3.072-5.085-5.403-1.413-2.401-2.119-5.12-2.119-8.156 0-4.379 1.06-7.98 3.178-10.805 2.189-2.896 5.014-5.014 8.475-6.356 3.46-1.412 7.132-2.119 11.016-2.119 3.108 0 5.933.424 8.475 1.272h19.703v13.135h-7.627c.212.636.388 1.448.53 2.436.211.989.317 2.013.317 3.072 0 4.167-.953 7.557-2.86 10.17-1.906 2.542-4.484 4.414-7.733 5.614-3.248 1.201-6.85 1.801-10.805 1.801-1.765 0-3.742-.247-5.932-.742-.847.777-1.271 1.801-1.271 3.072 0 1.13.565 1.942 1.695 2.437 1.201.494 3.107.741 5.72.741h7.945c6.638 0 11.758 1.095 15.36 3.284 3.672 2.119 5.508 5.614 5.508 10.487 0 3.814-1.271 7.168-3.813 10.064-2.472 2.895-6.003 5.155-10.593 6.779-4.59 1.625-10.028 2.437-16.313 2.437zm1.694-49.364c1.695 0 3.072-.6 4.132-1.801 1.059-1.2 1.589-3.072 1.589-5.614 0-2.472-.53-4.273-1.589-5.403-1.06-1.2-2.437-1.8-4.132-1.8-1.694 0-3.072.6-4.131 1.8-1.059 1.13-1.589 2.931-1.589 5.403 0 2.542.53 4.414 1.589 5.614 1.059 1.201 2.437 1.801 4.131 1.801zm1.272 38.135c2.966 0 5.437-.459 7.415-1.377 1.977-.848 2.966-2.013 2.966-3.496 0-1.412-.636-2.295-1.907-2.648-1.2-.353-2.931-.53-5.191-.53h-4.131c-2.118 0-3.743-.07-4.873-.212-1.059-.07-1.977-.211-2.754-.423-1.271 1.271-1.907 2.542-1.907 3.813 0 1.695.954 2.931 2.861 3.708 1.977.777 4.484 1.165 7.521 1.165zm35.582-10.593v-52.965h18.22v52.965zm9.11-59.533c-2.966 0-5.368-.812-7.204-2.4361-1.836-1.695-2.754-3.92-2.754-6.674s.918-4.944 2.754-6.568c1.836-1.695 4.238-2.542 7.204-2.542s5.367.847 7.203 2.542c1.836 1.624 2.754 3.814 2.754 6.568s-.918 4.979-2.754 6.674c-1.836 1.6241-4.237 2.4361-7.203 2.4361zm21.407 59.533v-52.965h14.83l1.271 6.355h.424c2.118-2.048 4.52-3.813 7.203-5.296 2.754-1.554 5.932-2.331 9.534-2.331 5.861 0 10.063 1.978 12.606 5.933 2.613 3.884 3.919 9.11 3.919 15.677v32.627h-18.22v-30.296c0-3.39-.424-5.65-1.271-6.78-.848-1.13-2.189-1.695-4.026-1.695-1.694 0-3.107.353-4.237 1.06-1.13.706-2.401 1.695-3.813 2.966v34.745zm80.934 21.822c-4.025 0-7.733-.459-11.123-1.377-3.389-.848-6.108-2.225-8.156-4.132-1.978-1.906-2.966-4.449-2.966-7.627 0-4.166 2.471-7.556 7.415-10.169v-.424c-1.354-1.001-2.535-2.218-3.496-3.601-.918-1.483-1.377-3.32-1.377-5.509 0-1.836.53-3.637 1.589-5.402 1.13-1.766 2.578-3.284 4.343-4.555v-.424c-1.907-1.271-3.602-3.072-5.085-5.403-1.412-2.401-2.118-5.12-2.118-8.156 0-4.379 1.059-7.98 3.178-10.805 2.189-2.896 5.014-5.014 8.474-6.356 3.461-1.412 7.133-2.119 11.017-2.119 3.107 0 5.932.424 8.474 1.272h19.703v13.135h-7.627c.212.636.389 1.448.53 2.436.212.989.318 2.013.318 3.072 0 4.167-.953 7.557-2.86 10.17-1.907 2.542-4.485 4.414-7.733 5.614-3.249 1.201-6.85 1.801-10.805 1.801-1.766 0-3.743-.247-5.932-.742-.848.777-1.271 1.801-1.271 3.072 0 1.13.565 1.942 1.695 2.437 1.2.494 3.107.741 5.72.741h7.945c6.638 0 11.758 1.095 15.36 3.284 3.672 2.119 5.508 5.614 5.508 10.487 0 3.814-1.271 7.168-3.814 10.064-2.471 2.895-6.002 5.155-10.593 6.779-4.59 1.625-10.028 2.437-16.313 2.437zm1.695-49.364c1.695 0 3.072-.6 4.131-1.801 1.06-1.2 1.589-3.072 1.589-5.614 0-2.472-.529-4.273-1.589-5.403-1.059-1.2-2.436-1.8-4.131-1.8s-3.072.6-4.131 1.8c-1.06 1.13-1.589 2.931-1.589 5.403 0 2.542.529 4.414 1.589 5.614 1.059 1.201 2.436 1.801 4.131 1.801zm1.271 38.135c2.966 0 5.438-.459 7.415-1.377 1.978-.848 2.966-2.013 2.966-3.496 0-1.412-.635-2.295-1.906-2.648-1.201-.353-2.931-.53-5.191-.53h-4.131c-2.119 0-3.743-.07-4.873-.212-1.059-.07-1.978-.211-2.754-.423-1.272 1.271-1.907 2.542-1.907 3.813 0 1.695.953 2.931 2.86 3.708 1.977.777 4.484 1.165 7.521 1.165zm58.272-10.593v-68.8551h44.914v15.2541h-26.694v13.135h22.881v15.254h-22.881v25.212zm64.839 1.271c-3.319 0-6.179-.741-8.58-2.224-2.292-1.512-4.154-3.592-5.402-6.038-1.272-2.472-1.907-5.156-1.907-8.051 0-5.509 2.26-9.816 6.779-12.924 4.52-3.178 11.865-5.296 22.034-6.356-.424-3.672-2.896-5.508-7.415-5.508-1.907 0-3.92.388-6.038 1.165-2.119.706-4.555 1.801-7.31 3.284l-6.355-11.864c3.743-2.26 7.521-3.99 11.334-5.191 3.877-1.199 7.912-1.806 11.97-1.801 6.921 0 12.324 1.978 16.208 5.933 3.884 3.884 5.826 10.169 5.826 18.855v29.449h-14.83l-1.271-5.085h-.424c-2.119 1.907-4.379 3.461-6.78 4.661-2.33 1.13-4.943 1.695-7.839 1.695zm6.356-13.983c1.483 0 2.719-.318 3.708-.953.988-.706 1.942-1.589 2.86-2.648v-7.204c-4.308.636-7.309 1.589-9.004 2.86-1.624 1.272-2.437 2.649-2.437 4.132 0 2.542 1.625 3.813 4.873 3.813zm60.607 13.983c-5.014 0-9.534-1.095-13.559-3.284-4.026-2.189-7.239-5.332-9.64-9.428-2.331-4.166-3.496-9.18-3.496-15.042 0-5.861 1.307-10.84 3.92-14.936 2.683-4.167 6.179-7.344 10.487-9.534 4.307-2.189 8.968-3.284 13.982-3.284 3.178 0 6.039.495 8.581 1.483 2.613.989 4.908 2.331 6.885 4.026l-8.474 11.652c-1.13-.988-2.154-1.659-3.072-2.012-.912-.353-1.882-.532-2.86-.53-3.39 0-6.038 1.2-7.945 3.602-1.907 2.33-2.86 5.508-2.86 9.533 0 4.026.989 7.239 2.966 9.64 1.977 2.33 4.378 3.496 7.203 3.496 1.483 0 2.931-.318 4.343-.954 1.448-.685 2.831-1.501 4.132-2.436l6.991 11.864c-2.613 2.331-5.508 3.955-8.686 4.873-3.178.847-6.144 1.271-8.898 1.271zm47.394 0c-5.156 0-9.817-1.095-13.983-3.284-4.096-2.189-7.345-5.332-9.746-9.428-2.401-4.166-3.601-9.18-3.601-15.042 0-5.72 1.2-10.628 3.601-14.724 2.472-4.167 5.65-7.38 9.534-9.64s7.98-3.39 12.288-3.39c5.226 0 9.534 1.166 12.923 3.496 3.461 2.26 6.003 5.332 7.627 9.216 1.695 3.884 2.543 8.192 2.543 12.924 0 1.553-.106 3.072-.318 4.555-.141 1.412-.283 2.436-.424 3.072h-30.19c.847 3.178 2.366 5.402 4.555 6.673 2.189 1.201 4.767 1.801 7.733 1.801 3.39 0 6.991-1.059 10.805-3.178l5.932 10.805c-2.825 1.977-6.003 3.496-9.534 4.555s-6.779 1.589-9.745 1.589zm-9.958-34.11h15.678c0-2.048-.53-3.813-1.589-5.296-.989-1.554-2.86-2.331-5.614-2.331-1.978 0-3.743.601-5.297 1.801-1.554 1.201-2.613 3.143-3.178 5.826z" fill="currentColor"/><path d="m248.378 171.091c-.537-2.027-1.407-3.95-2.574-5.692.25-.918.44-1.85.568-2.791.828-5.976-1.243-11.447-5.148-15.681-2.115-2.312-4.382-3.838-6.783-4.775 1.576-6.743 2.374-13.644 2.378-20.569 0-3.162-.179-6.26-.479-9.312-.157-1.524-.346-3.045-.567-4.561-.688-4.473-1.708-8.8886-3.052-13.21-.881-2.8393-1.9-5.634-3.053-8.374-1.729-4.0576-3.748-7.9858-6.041-11.754-1.505-2.5064-3.143-4.9303-4.908-7.261-.865-1.177-1.766-2.3262-2.704-3.446-2.778-3.3766-5.796-6.5473-9.033-9.487-1.074-.9882-2.179-1.9423-3.314-2.861-1.117-.9318-2.259-1.8338-3.424-2.705-2.345-1.7452-4.769-3.3826-7.263-4.907-13.781-8.37-29.942-13.169-47.215-13.169-50.2909 0-91.0519 40.762-91.0519 91.051-.0013 7.012.8111 14 2.421 20.824-2.16.938-4.231 2.399-6.15 4.514-3.904 4.231-5.976 9.683-5.147 15.658.125.95.315 1.89.567 2.814-1.1663 1.743-2.036 3.667-2.574 5.694-1.2 4.561-.805 8.674.72 12.277-1.657 4.711-1.243 9.727.916 14.088 1.57 3.185 3.817 5.648 6.586 7.851 3.293 2.617 7.415 4.842 12.388 6.975 5.932 2.53 13.172 4.907 16.465 5.779 8.506 2.203 16.662 3.599 24.9289 3.666 11.776.11 21.918-2.66 29.18-9.747 3.567.437 7.157.656 10.751.655 3.797-.008 7.59-.248 11.358-.716 7.244 7.132 17.425 9.927 29.245 9.814 8.265-.065 16.421-1.461 24.905-3.667 3.315-.872 10.553-3.249 16.488-5.778 4.973-2.138 9.094-4.362 12.41-6.976 2.748-2.202 4.993-4.666 6.564-7.851 2.181-4.361 2.574-9.377.938-14.088 1.511-3.603 1.903-7.725.704-12.282zm-8.439 11.972c1.671 3.171 1.778 6.754.303 10.091-2.236 5.058-7.79 9.041-18.577 13.318-6.707 2.661-12.85 4.361-12.904 4.377-8.872 2.301-16.896 3.469-23.842 3.469-11.502 0-20.06-3.173-25.488-9.441-9.179 1.563-18.552 1.616-27.748.157-5.434 6.164-13.945 9.284-25.35 9.284-6.9469 0-14.9699-1.168-23.8419-3.469-.055-.016-6.194-1.716-12.904-4.377-10.787-4.277-16.342-8.258-18.577-13.318-1.475-3.337-1.368-6.92.303-10.091.155-.294.32-.582.497-.859-1.0016-1.504-1.6733-3.204-1.9712-4.986-.2978-1.782-.2149-3.608.2432-5.356.664-2.522 2.036-4.62 3.898-6.127-.8966-1.474-1.4851-3.114-1.73-4.822-.536-3.714.696-7.423 3.47-10.446 2.159-2.353 5.212-3.648 8.593-3.648h.09c-2.5487-8.169-3.8411-16.678-3.833-25.235 0-46.672 37.837-84.51 84.5139-84.51 46.678 0 84.514 37.835 84.514 84.51.006 8.58-1.295 17.111-3.859 25.299.408-.04.808-.061 1.2-.061 3.38 0 6.434 1.294 8.593 3.647 2.772 3.021 4.007 6.733 3.47 10.446-.245 1.708-.833 3.349-1.73 4.823 1.862 1.506 3.234 3.604 3.898 6.127.457 1.748.54 3.573.242 5.356-.298 1.782-.969 3.481-1.97 4.986.177.274.344.562.497.856z" fill="#fff"/><path d="m239.442 182.207c1.001-1.505 1.672-3.204 1.97-4.986.298-1.783.215-3.608-.242-5.356-.664-2.522-2.036-4.62-3.898-6.127.896-1.474 1.485-3.114 1.73-4.822.536-3.714-.696-7.423-3.47-10.446-2.159-2.353-5.213-3.648-8.593-3.648-.393 0-.792.02-1.2.061 2.561-8.188 3.86-16.719 3.852-25.298 0-46.6711-37.837-84.51-84.51-84.51s-84.514 37.8349-84.514 84.51c-.0081 8.557 1.2843 17.066 3.833 25.235h-.09c-3.38 0-6.433 1.295-8.592 3.648-2.772 3.021-4.006 6.732-3.47 10.446.2447 1.708.8332 3.348 1.73 4.822-1.862 1.507-3.234 3.605-3.897 6.128-.4578 1.748-.5404 3.574-.2422 5.357.2982 1.782.9703 3.482 1.9722 4.986-.179.277-.343.565-.497.859-1.67 3.171-1.778 6.754-.303 10.091 2.235 5.057 7.79 9.042 18.577 13.318 6.707 2.661 12.85 4.361 12.904 4.377 8.872 2.301 16.895 3.47 23.841 3.47 11.406 0 19.916-3.12 25.351-9.285 9.196 1.459 18.569 1.406 27.748-.157 5.427 6.268 13.986 9.442 25.488 9.442 6.946 0 14.97-1.169 23.842-3.47.054-.016 6.194-1.716 12.904-4.377 10.787-4.276 16.342-8.261 18.577-13.318 1.475-3.337 1.368-6.92-.303-10.091-.153-.297-.321-.584-.498-.859zm-111.647 13.18c-.468.819-.969 1.618-1.503 2.395-1.405 2.057-3.253 3.628-5.397 4.797-4.101 2.235-9.29 3.017-14.563 3.017-8.328 0-16.866-1.949-21.652-3.191-.235-.061-29.334-8.28-25.65-15.276.62-1.176 1.641-1.646 2.925-1.646 5.187 0 14.6321 7.724 18.6921 7.724.906 0 1.5459-.387 1.8069-1.328 1.73-6.205-26.293-8.813-23.933-17.797.417-1.59 1.546-2.235 3.135-2.235 6.857-.001 22.249 12.059 25.468 12.059.247 0 .424-.072.52-.224l.042-.069c1.51-2.495.644-4.309-9.708-10.649l-.994-.605c-11.39-6.895-19.386-11.043-14.838-15.993.523-.572 1.264-.825 2.165-.825 1.069 0 2.362.358 3.786.957 6.016 2.537 14.354 9.456 17.837 12.474 1.027.894 1.632 1.44 1.632 1.44s4.41 4.586 7.077 4.586c.614 0 1.134-.241 1.487-.84 1.892-3.188-17.563-17.93-18.66-24.012-.743-4.122.522-6.209 2.863-6.209 1.112 0 2.47.473 3.969 1.424 4.65 2.952 13.628 18.38 16.915 24.381 1.102 2.012 2.983 2.862 4.678 2.862 3.363 0 5.992-3.343.308-7.591-8.543-6.393-5.545-16.841-1.468-17.484.174-.027.35-.041.525-.042 3.708 0 5.344 6.39 5.344 6.39s4.793 12.038 13.028 20.266c7.473 7.469 8.516 13.599 4.163 21.244zm26.629 1.41-.427.051-.729.084c-.383.039-.766.077-1.151.113l-.376.034-.342.029-.487.039c-.179.013-.358.027-.537.038l-.536.036-.118.007-.422.025-.179.009-.5.025-.581.024-.528.018-.352.01h-.178c-.11 0-.219.006-.329.007h-.175c-.11 0-.219 0-.329.006l-.447.005h-.626c-.491 0-.98-.005-1.469-.014l-.396-.009c-.112 0-.225-.006-.337-.009l-.419-.013-.522-.02-.469-.02-.122-.005-.447-.024c-.124-.007-.248-.013-.371-.021l-.289-.017c-.363-.023-.726-.049-1.089-.077l-.38-.03-.48-.041-.561-.052c-.313-.029-.626-.061-.939-.096h-.015c4.57-10.195 2.259-19.716-6.976-28.944-6.056-6.048-10.086-14.981-10.921-16.942-1.692-5.805-6.171-12.258-13.608-12.258-.629.001-1.256.051-1.877.149-3.259.512-6.107 2.388-8.139 5.21-2.195-2.731-4.33-4.902-6.26-6.129-2.91-1.844-5.813-2.78-8.643-2.78-3.53 0-6.687 1.45-8.887 4.08l-.055.067-.124-.521-.005-.022c-.4184-1.79-.7699-3.596-1.054-5.412 0-.013 0-.025-.006-.037l-.062-.411c-.0335-.222-.0662-.445-.098-.667-.026-.185-.052-.37-.076-.554s-.05-.369-.072-.554c-.024-.186-.046-.371-.068-.556-.0211-.176-.0414-.352-.061-.528l-.0059-.045c-.0902-.812-.1675-1.625-.2321-2.439l-.035-.471c-.01-.129-.019-.259-.027-.39 0-.03-.004-.061-.006-.089l-.0329-.522c-.012-.189-.0211-.378-.0311-.567-.01-.188-.02-.377-.028-.567l-.02-.495-.006-.15-.015-.458-.0109-.388c0-.155-.0071-.311-.0101-.466l-.008-.489c-.002-.163 0-.325-.004-.488-.005-.164 0-.327 0-.491 0-41.8521 33.931-75.7831 75.787-75.7831s75.786 33.929 75.786 75.7831v.979c0 .163-.004.327-.008.489 0 .136-.005.269-.009.405 0 .121-.005.241-.01.358 0 .153-.009.305-.014.458v.013c-.013.332-.027.664-.041.996l-.006.11-.026.496-.024.393c-.056.931-.129 1.862-.218 2.791v.013c-.016.174-.034.349-.053.523-.044.405-.089.81-.134 1.215l-.051.407-.063.478c-.022.175-.046.349-.071.523-.027.195-.056.389-.084.583l-.07.458-.082.52c-.028.173-.056.345-.089.518-.034.172-.06.344-.09.517-.06.344-.122.687-.189 1.03-.133.683-.272 1.364-.419 2.044-.037.169-.075.339-.114.508-2.133-2.073-4.957-3.202-8.073-3.202-2.827 0-5.733.935-8.642 2.78-1.931 1.226-4.064 3.398-6.261 6.129-2.035-2.823-4.883-4.698-8.138-5.211-.621-.097-1.249-.147-1.878-.148-7.439 0-11.915 6.453-13.608 12.258-.839 1.961-4.869 10.893-10.932 16.951-9.228 9.198-11.557 18.677-7.058 28.83zm78.24-20.408-.03.089c-.021.057-.042.114-.065.17-.036.085-.074.168-.114.251-.097.198-.207.39-.328.574-.167.249-.35.487-.549.711-.046.052-.09.103-.142.154-.07.077-.145.152-.219.227-1.347 1.335-3.399 2.504-5.719 3.578-.263.119-.529.238-.799.357l-.268.119c-.179.079-.357.158-.545.235-.183.078-.367.155-.551.231l-.558.231c-1.305.537-2.642 1.048-3.947 1.554l-.557.216-.552.216c-.366.143-.728.286-1.085.429l-.531.214-.521.214-.257.107c-.17.072-.338.142-.504.214-3.838 1.646-6.598 3.321-6.018 5.4.016.059.034.115.054.169.052.154.123.3.211.436.052.082.112.159.179.229.682.708 1.923.596 3.488.034.127-.046.257-.095.388-.147.09-.034.179-.07.269-.106l.135-.057c.358-.152.737-.321 1.125-.506.097-.045.195-.089.293-.141 1.913-.935 4.082-2.196 6.234-3.343.33-.179.661-.35.99-.52.538-.279 1.081-.548 1.629-.805 2.038-.958 3.953-1.638 5.494-1.638.722 0 1.361.148 1.892.488l.089.059c.269.19.503.423.694.691.044.063.09.128.129.195.042.069.082.14.12.212.761 1.444.124 2.941-1.366 4.408-1.431 1.408-3.657 2.789-6.188 4.068-.187.095-.376.19-.566.282-7.531 3.698-17.391 6.483-17.529 6.518-2.628.681-6.386 1.576-10.619 2.245l-.627.097-.102.015c-.96.144-1.923.271-2.888.381l-.089.009c-1.755.2-3.555.345-5.358.406h-.027c-.648.024-1.295.035-1.943.035h-.746c-.988-.014-1.975-.058-2.96-.134-.023 0-.047 0-.071-.005-.352-.027-.705-.06-1.056-.099-.604-.065-1.207-.145-1.808-.239-.234-.039-.484-.08-.725-.122-.11-.02-.219-.04-.328-.062l-.026-.005c-.347-.066-.692-.139-1.036-.218-.199-.045-.399-.09-.596-.143l-.118-.031c-.098-.024-.194-.05-.29-.076l-.053-.014-.309-.089c-.112-.032-.223-.065-.335-.098l-.04-.012-.291-.089c-.11-.034-.219-.07-.328-.105-.09-.03-.179-.061-.269-.09l-.197-.069c-.19-.066-.378-.136-.566-.208l-.178-.069-.147-.059c-.283-.114-.565-.233-.844-.358l-.186-.089-.031-.014c-.066-.031-.131-.062-.197-.09-.129-.062-.257-.126-.384-.191l-.038-.019-.184-.097c-.327-.17-.648-.352-.962-.546l-.172-.105c-.089-.054-.17-.109-.255-.164l-.224-.149c-.081-.054-.162-.109-.241-.166l-.144-.102c-.152-.109-.301-.22-.448-.335-.078-.06-.155-.122-.232-.179-.171-.137-.338-.278-.503-.423l-.007-.006c-.161-.139-.318-.283-.471-.43l-.008-.01c-.08-.076-.158-.152-.236-.231-.077-.079-.155-.157-.23-.236-.076-.08-.152-.161-.226-.244-.072-.078-.142-.157-.212-.237l-.024-.027c-.361-.419-.699-.858-1.012-1.315l-.124-.183c-.082-.121-.163-.243-.243-.365l-.236-.363c-.116-.177-.229-.356-.339-.536-.079-.128-.157-.256-.234-.385-.065-.11-.13-.219-.192-.327-.035-.059-.068-.119-.101-.179-.033-.062-.072-.125-.107-.188l-.056-.099c-.019-.033-.025-.043-.035-.065-.068-.119-.134-.24-.198-.363-.029-.053-.058-.107-.089-.16l-.09-.172-.089-.171-.172-.347c-.028-.057-.055-.114-.082-.171-.059-.123-.115-.244-.171-.365-.022-.049-.045-.098-.065-.147-.077-.167-.15-.336-.219-.507-.047-.113-.09-.225-.136-.337-.129-.33-.25-.663-.361-1-.033-.1-.066-.199-.095-.299-.072-.227-.137-.456-.195-.687-.071-.269-.134-.541-.187-.814-.034-.161-.064-.323-.089-.486-.027-.161-.05-.322-.069-.482-.041-.319-.07-.639-.087-.96 0-.053-.005-.107-.006-.16-.005-.106-.008-.212-.009-.318-.056-4.272 2.107-8.381 6.73-13.002 8.234-8.227 13.028-20.266 13.028-20.266s.129-.505.398-1.231c.09-.241.184-.481.283-.718.113-.268.234-.533.364-.793l.038-.076c.167-.332.348-.655.545-.97.045-.073.089-.146.141-.218.146-.218.301-.429.464-.634.126-.157.26-.309.401-.453.478-.492 1.023-.894 1.64-1.109l.078-.025c.052-.017.103-.033.156-.048.062-.016.124-.031.186-.044l.028-.005c.131-.026.262-.044.395-.053h.012c.069 0 .138-.007.209-.007.177.001.353.015.528.042.742.117 1.449.559 2.057 1.241l.082.096c.198.232.378.48.538.74.12.193.233.396.34.609.043.09.084.172.125.26.02.045.04.089.059.135.04.089.077.179.114.273.209.536.371 1.089.485 1.653.121.609.191 1.227.211 1.848.007.273.007.549 0 .829-.005.106-.01.213-.018.32-.082 1.189-.341 2.359-.769 3.472-.043.11-.09.222-.134.334-.215.514-.465 1.012-.747 1.492-.161.274-.335.546-.521.816l-.114.162c-.441.616-.933 1.194-1.471 1.728-.53.531-1.098 1.022-1.699 1.471-.603.445-1.168.939-1.69 1.476-1.503 1.578-1.853 2.969-1.515 4.024.04.119.087.236.141.349.125.245.287.47.481.666l.053.053c.055.053.113.104.172.153l.06.049c.146.112.3.212.461.299.046.025.089.05.142.074.221.11.452.198.69.265l.066.017.089.024.078.019.083.018.083.017.079.013c.059.011.119.02.178.028l.058.008.103.011.064.006.106.008h.061l.11.005h.347l.099-.005.114-.007.139-.013.13-.016c.029 0 .059-.008.089-.013.458-.067.904-.196 1.326-.384.09-.038.179-.08.261-.124.176-.088.347-.187.511-.296.229-.15.445-.319.648-.503l.141-.134c.022-.022.045-.043.066-.066.138-.138.268-.284.389-.437.214-.27.404-.557.569-.859 1.957-3.558 4.008-7.064 6.151-10.513l.294-.471.297-.472c.149-.238.298-.474.447-.707l.151-.235.301-.469c.404-.625.809-1.243 1.217-1.855l.305-.456c.612-.906 1.223-1.788 1.827-2.627l.302-.414c.657-.908 1.342-1.795 2.053-2.661l.283-.338c.046-.057.089-.112.14-.167l.277-.321c.046-.053.09-.105.138-.156l.268-.303.135-.146c.13-.141.262-.28.396-.418.09-.089.173-.179.26-.262.507-.519 1.066-.984 1.669-1.387l.139-.089.141-.09c.09-.056.181-.11.274-.161 2.364-1.341 4.322-1.44 5.448-.314.683.683 1.06 1.814 1.04 3.387 0 .07 0 .139-.006.211v.078c0 .071-.006.144-.011.217 0 .089-.011.179-.02.268-.009.09-.013.158-.022.237 0 .023-.005.046-.008.069-.007.07-.016.141-.025.211 0 .022 0 .043-.009.065-.01.095-.024.19-.041.284-.011.087-.025.174-.042.261-.007.05-.017.099-.025.149-.026.142-.06.283-.101.421-.077.258-.171.511-.282.757-.048.107-.099.214-.151.319-.108.217-.23.439-.364.669-.067.113-.136.23-.21.347l-.112.178c-.114.179-.233.36-.357.543s-.257.37-.4.559c-.185.252-.38.509-.586.769l-.156.197c-.441.549-.893 1.089-1.355 1.62l-.367.415-.187.21c-.255.285-.511.568-.769.849l-.198.214c-.131.142-.268.286-.399.429-.134.145-.27.289-.406.433l-.412.434-.417.435c-.139.145-.279.292-.42.437l-.849.875c-4.055 4.159-8.328 8.304-9.774 10.888-.096.169-.183.342-.262.519-.205.47-.291.872-.233 1.197.019.107.057.21.112.303.082.141.181.271.295.387.053.052.108.101.168.145.297.212.657.321 1.022.31h.114l.117-.008.118-.014.097-.014c.013-.001.026-.004.039-.007l.089-.017.024-.006.098-.021.035-.009.105-.027.125-.037c.082-.025.164-.053.248-.084.181-.064.358-.138.531-.221.044-.021.089-.041.132-.064l.133-.066c.174-.088.347-.183.521-.286.139-.082.277-.166.415-.255l.134-.089c.044-.028.089-.057.133-.09l.133-.089.07-.049.192-.134c.179-.124.346-.251.516-.38l.015-.011.268-.208c.367-.29.716-.582 1.031-.857l.21-.185.02-.018.109-.097c.258-.231.488-.447.68-.626l.078-.076.189-.179.113-.11.039-.04.011-.011c.096-.096.096-.096.192-.193l.008-.008.036-.032c.011-.012.026-.024.043-.039l.014-.013.038-.034.203-.179.114-.103c.056-.048.117-.103.179-.162l.137-.12c.024-.02.048-.043.073-.065l.143-.125.211-.184.111-.097c.435-.379.965-.836 1.572-1.351l.249-.21.412-.345.42-.352c.55-.456 1.142-.941 1.768-1.445l.411-.33c.35-.278.71-.563 1.074-.849.146-.115.295-.23.447-.344.373-.288.748-.575 1.124-.858.858-.648 1.743-1.297 2.638-1.93l.385-.267c.268-.186.536-.371.805-.552l.243-.165c.481-.324.966-.641 1.455-.951l.243-.153.241-.15c.241-.149.482-.297.72-.44l.239-.142.479-.279c.157-.091.313-.18.469-.268l.094-.053.372-.203c.154-.084.309-.165.462-.244l.23-.118.222-.113c.508-.255 1.025-.491 1.551-.707.072-.03.143-.059.214-.09.141-.059.281-.113.42-.161.139-.047.276-.096.411-.144.123-.041.242-.079.358-.115l.039-.012c.062-.019.124-.037.186-.053l.018-.005c.126-.036.252-.069.379-.099h.01c.187-.045.369-.083.547-.113.061-.01.121-.02.179-.028.173-.026.347-.044.521-.056.11-.008.221-.011.331-.011h.084c.112 0 .22.007.327.018.049 0 .098.009.146.016h.02c.048.005.097.013.144.023s.095.017.141.028h.016c.046.01.089.023.137.036.382.103.733.297 1.024.565l.026.026.051.05.05.053c.401.422.733.905.983 1.431l.039.089c.085.2.152.407.199.619.13.591.095 1.207-.102 1.779-.085.249-.189.491-.312.723l-.082.148c-.312.523-.68 1.01-1.099 1.452l-.09.095c-.197.209-.402.412-.613.607-.067.063-.136.126-.206.189l-.106.096c-.22.195-.445.385-.673.571-.04.032-.081.064-.12.098-.159.128-.323.258-.493.388-.586.448-1.183.88-1.791 1.297-.358.245-.728.492-1.11.743-.712.467-1.429.924-2.153 1.372-.209.129-.419.26-.633.39-1.967 1.21-4.148 2.504-6.474 3.911l-.602.366c-.659.402-1.281.786-1.866 1.151l-.295.186-.558.358c-.221.14-.436.278-.645.414-.158.101-.312.201-.463.3l-.298.196c-.145.095-.289.19-.433.287l-.14.089c-.148.099-.292.196-.432.292l-.229.156-.269.187-.248.173c-.392.275-.779.556-1.163.842l-.134.102c-.151.114-.297.228-.438.339l-.184.147c-.31.249-.591.488-.845.716l-.124.114c-.071.065-.141.13-.207.194-.047.044-.09.089-.137.133l-.065.064c-.143.143-.282.29-.417.441l-.066.076c-.147.17-.275.333-.388.492l-.05.072c-.13.19-.245.391-.343.6l-.034.073-.021.051-.017.044-.023.061c-.007.021-.021.058-.029.09-.041.119-.071.242-.091.367l-.01.067-.008.061-.005.059v.314c0 .026 0 .053.006.08.001.016.003.032.005.048 0 .026.007.052.01.079l.019.11v.005c.007.035.014.07.023.105s.018.074.029.111c.032.113.071.225.116.334 0 .008.007.017.01.025.012.027.023.055.036.082.049.114.104.225.164.334l.063.113.066.114.069.114c.012.019.025.036.04.053l.023.024.024.022.027.021c.018.013.037.024.057.035.02.009.042.019.064.027.024.008.048.015.072.021.577.13 1.763-.348 3.338-1.18l.283-.15.479-.261.235-.13c.166-.09.337-.19.51-.289l.317-.179c2.083-1.199 4.572-2.74 7.144-4.244.24-.141.482-.281.724-.421l.486-.31c.243-.14.485-.278.728-.414 1.034-.588 2.082-1.153 3.141-1.694l.475-.241c.316-.156.629-.308.938-.456.599-.284 1.204-.553 1.815-.808l.335-.136.041-.016c1.774-.703 3.383-1.138 4.685-1.138.282-.002.563.021.841.069h.008c.09.016.171.034.253.055h.015c.12.029.238.066.352.112.091.033.179.072.264.118.373.189.692.468.93.812.02.029.039.059.057.09.088.134.164.275.226.423.037.085.071.173.103.268.032.096.06.188.089.287.212.758.191 1.56-.06 2.306z" fill="#ff9d00"/><path clip-rule="evenodd" d="m220.867 122.075v-.49c0-41.854-33.918-75.783-75.775-75.783-41.855 0-75.7859 33.931-75.7859 75.783l-.001.164c-.001.109-.002.217 0 .326.0048.163.0065.326.005.489l.006.36.002.13.005.178c.002.096.005.191.005.287l.01.389.016.457.005.15.02.473v.022l.028.553v.014c.01.189.02.378.032.566.01.175.021.349.033.523l.003.031c.0088.149.0188.299.03.448l.003.039c.01.144.021.289.033.432l.002.028.02.25c.0599.721.1299 1.442.21 2.161l.005.045.06.528.069.556c.0463.37.0957.739.148 1.108.0312.223.0636.445.097.667l.005.027c.0747.502.1553 1.004.242 1.504.2487 1.451.5408 2.895.876 4.329l.005.023.032.135c.03.128.06.256.092.385l.055-.067c2.2-2.63 5.356-4.08 8.887-4.08 2.83 0 5.734.935 8.643 2.78 1.93 1.226 4.064 3.398 6.26 6.129 2.032-2.823 4.8799-4.698 8.1379-5.21.622-.098 1.25-.148 1.878-.149 7.437 0 11.916 6.454 13.608 12.258.835 1.962 4.865 10.893 10.941 16.935 9.235 9.227 11.546 18.749 6.976 28.944h.015c.312.034.625.066.939.095.187.018.374.036.561.052l.066.006c.137.013.275.025.413.035l.38.031c.362.028.725.053 1.09.077l.288.017.229.013.143.008.446.024.122.005.47.02.521.02.42.012.07.003c.088.003.178.007.267.007l.095.002c.59.014 1.179.021 1.769.021h.626l.448-.005c.11-.006.219-.006.329-.006h.174l.151-.003c.059-.002.119-.004.178-.004h.179l.351-.01.528-.018.582-.025c.167-.007.333-.015.5-.024l.179-.01.265-.015.157-.009.117-.007.537-.036c.179-.011.358-.025.537-.039l.486-.038.343-.029.375-.034c.385-.036.769-.074 1.151-.114.244-.027.486-.054.729-.083l.427-.051c-4.499-10.153-2.17-19.632 7.028-28.823 6.062-6.057 10.092-14.99 10.932-16.951 1.693-5.805 6.168-12.258 13.607-12.258.629.001 1.257.05 1.878.149 3.255.512 6.104 2.388 8.139 5.21 2.197-2.731 4.33-4.903 6.26-6.129 2.909-1.845 5.815-2.78 8.642-2.78 3.116 0 5.941 1.13 8.074 3.202.117-.522.23-1.044.338-1.568.066-.327.131-.655.195-.984.078-.404.152-.81.22-1.216.018-.11.037-.22.058-.331.033-.173.062-.344.089-.518l.011-.066.071-.453.07-.459.001-.005c.028-.192.057-.385.083-.578.021-.146.041-.292.06-.439l.012-.084.062-.478.051-.407c.031-.268.061-.536.09-.805.013-.107.024-.215.035-.323l.01-.087c.019-.179.036-.357.052-.536l.04-.416c.083-.922.15-1.844.202-2.768v-.006l.027-.49.005-.11.02-.465c.008-.175.015-.352.021-.531v-.013l.005-.129c.005-.11.009-.22.009-.329l.002-.045c.004-.102.008-.208.008-.313l.003-.09c.003-.105.006-.209.006-.314l.002-.089c.003-.134.006-.267.006-.401zm-94.571 75.707c6.001-8.802 5.576-15.408-2.659-23.638s-13.028-20.266-13.028-20.266-1.789-6.992-5.869-6.349c-4.08.642-7.0729 11.089 1.469 17.484 8.542 6.395-1.699 10.731-4.987 4.73-3.2889-6.002-12.2649-21.429-16.9199-24.38-4.654-2.951-7.927-1.297-6.83 4.785.545 3.019 5.613 8.171 10.348 12.985 4.804 4.885 9.265 9.42 8.312 11.025-1.893 3.188-8.56-3.745-8.56-3.745s-20.876-18.997-25.421-14.046c-4.189 4.563 2.271 8.442 12.227 14.42.847.509 1.719 1.033 2.612 1.573 11.39 6.896 12.276 8.715 10.66 11.324-.597.964-4.41-1.325-9.1-4.141-7.995-4.8-18.538-11.129-20.026-5.464-1.289 4.903 6.467 7.907 13.501 10.632 5.86 2.27 11.22 4.346 10.432 7.164-.817 2.921-5.246.485-10.088-2.179-5.435-2.991-11.39-6.268-13.338-2.57-3.684 6.99 25.41 15.219 25.649 15.279 9.4 2.438 33.2719 7.604 41.6159-4.623zm38.664 0c-6.002-8.802-5.576-15.408 2.659-23.638s13.029-20.266 13.029-20.266 1.788-6.992 5.868-6.349c4.08.642 7.074 11.089-1.469 17.484s1.699 10.731 4.988 4.73c3.288-6.002 12.26-21.429 16.914-24.38s7.928-1.297 6.831 4.785c-.545 3.019-5.613 8.172-10.349 12.986-4.803 4.884-9.264 9.419-8.311 11.024 1.892 3.188 8.565-3.749 8.565-3.749s20.875-18.997 25.42-14.046c4.189 4.563-2.272 8.443-12.228 14.422-.847.508-1.718 1.031-2.611 1.572-11.391 6.895-12.276 8.715-10.66 11.323.597.964 4.41-1.325 9.099-4.14 7.996-4.8 18.539-11.13 20.027-5.465 1.289 4.903-6.467 7.908-13.502 10.633-5.86 2.27-11.219 4.345-10.432 7.164.817 2.921 5.244.484 10.084-2.18 5.435-2.991 11.391-6.269 13.34-2.57 3.684 6.995-25.414 15.215-25.65 15.276-9.4 2.445-33.272 7.611-41.612-4.616z" fill="#ffd21e" fill-rule="evenodd"/><path clip-rule="evenodd" d="m169.705 100.957c1.181.418 2.06 1.691 2.896 2.901 1.13 1.637 2.182 3.159 3.796 2.301 1.905-1.012 3.466-2.566 4.487-4.466 1.021-1.8995 1.455-4.0593 1.248-6.206-.154-1.6051-.662-3.1562-1.488-4.5412-.826-1.3851-1.949-2.5697-3.287-3.4686-1.339-.8988-2.861-1.4894-4.455-1.7293-1.595-.2399-3.223-.123-4.767.3421-2.065.6219-3.899 1.8418-5.271 3.5057-1.371 1.6638-2.219 3.6969-2.436 5.8423-.216 2.1459.209 4.3076 1.221 6.212.748 1.407 2.408.744 4.16.043 1.374-.549 2.804-1.121 3.896-.736zm-51.376.001c-1.181.418-2.061 1.691-2.897 2.901-1.13 1.636-2.182 3.159-3.796 2.301-1.423-.757-2.66-1.821-3.623-3.114s-1.627-2.783-1.945-4.3638c-.318-1.5805-.282-3.2117.106-4.7764.389-1.5647 1.119-3.024 2.138-4.2728 1.021-1.2481 2.305-2.2545 3.761-2.9468s3.048-1.0531 4.66-1.0567c1.612-.0035 3.205.3504 4.664 1.0362 1.459.6859 2.748 1.6867 3.774 2.9303 1.372 1.6638 2.22 3.6973 2.437 5.8432.216 2.1459-.209 4.3077-1.222 6.2118-.75 1.407-2.41.743-4.162.042-1.373-.549-2.803-1.121-3.895-.735zm43.428 46.751c8.143-6.416 11.134-16.889 11.134-23.341 0-5.1-3.432-3.495-8.925-.776l-.309.154c-5.043 2.497-11.755 5.821-19.123 5.821-7.369 0-14.081-3.325-19.122-5.822-5.671-2.809-9.228-4.571-9.228.624 0 6.655 3.182 17.584 11.917 23.934 1.152-2.34 2.774-4.417 4.766-6.101 1.991-1.684 4.309-2.938 6.808-3.685.872-.26 1.77 1.241 2.69 2.777.887 1.483 1.793 2.999 2.716 2.999.982 0 1.948-1.494 2.891-2.953.985-1.524 1.945-3.01 2.874-2.713 4.676 1.501 8.587 4.756 10.911 9.082z" fill="#32343d" fill-rule="evenodd"/><path d="m161.754 147.708c-4.241 3.342-9.878 5.583-17.218 5.583-6.897 0-12.292-1.978-16.435-4.989 1.153-2.339 2.776-4.416 4.767-6.099 1.991-1.684 4.309-2.939 6.807-3.687 1.713-.511 3.527 5.776 5.405 5.776 2.011 0 3.948-6.247 5.766-5.666 4.674 1.502 8.584 4.757 10.908 9.082z" fill="#ff323d"/><path clip-rule="evenodd" d="m98.8581 110.031c-.7738.521-1.6428.884-2.5571 1.068-.9144.184-1.8561.186-2.7712.006-.9151-.181-1.7856-.54-2.5616-1.057-.776-.518-1.4422-1.183-1.9605-1.959-.5183-.775-.8784-1.646-1.0597-2.56-.1813-.915-.1803-1.857.003-2.772.1833-.914.5454-1.783 1.0653-2.558.52-.7742 1.1877-1.4383 1.9648-1.9541 1.563-1.0373 3.4735-1.4128 5.3128-1.0441s3.4575 1.4515 4.5001 3.0112c1.042 1.56 1.424 3.469 1.061 5.309-.363 1.841-1.441 3.463-2.9969 4.51zm101.4119 0c-.774.521-1.643.884-2.557 1.068s-1.856.186-2.771.006c-.915-.181-1.786-.54-2.562-1.057-.776-.518-1.442-1.183-1.96-1.959-.519-.775-.879-1.646-1.06-2.56-.181-.915-.18-1.857.003-2.772.183-.914.545-1.783 1.065-2.558.52-.7742 1.188-1.4383 1.965-1.9541 1.563-1.0373 3.474-1.4128 5.313-1.0441s3.457 1.4515 4.5 3.0112c1.042 1.56 1.424 3.469 1.061 5.309-.363 1.841-1.441 3.463-2.997 4.51z" fill="#ffad03" fill-rule="evenodd"/></svg>
