<svg fill="none" height="135" viewBox="0 0 857 135" width="857" xmlns="http://www.w3.org/2000/svg" xmlns:xlink="http://www.w3.org/1999/xlink"><clipPath id="a"><path d="m0 0h190.141v135h-190.141z"/></clipPath><g clip-path="url(#a)"><path d="m54.3221 0h-27.169v27.0892h27.169z" fill="#ffd800"/><path d="m162.984 0h-27.169v27.0892h27.169z" fill="#ffd800"/><path d="m81.4823 27.0914h-54.3292v27.0892h54.3292z" fill="#ffaf00"/><path d="m162.99 27.0914h-54.329v27.0892h54.329z" fill="#ffaf00"/><path d="m162.972 54.1678h-135.8189v27.0893h135.8189z" fill="#ff8205"/><g fill="#fa500f"><path d="m54.3221 81.2592h-27.169v27.0888h27.169z"/><path d="m108.661 81.2592h-27.1693v27.0888h27.1693z"/><path d="m162.984 81.2592h-27.169v27.0888h27.169z"/></g><path d="m81.4879 108.339h-81.48936484v27.09h81.48936484z" fill="#e10500"/><path d="m190.159 108.339h-81.498v27.09h81.498z" fill="#e10500"/></g><g fill="currentColor"><path d="m842.372 121.565v-106.3541h14.074v106.3541z"/><path d="m729.208 121.565 40.844-106.3541h15.163l43.528 106.3541h-16.033l-12.406-32.2111h-44.471l-11.68 32.2111zm30.688-43.6735h36.056l-11.1-29.4541c-3.386-8.9474-5.901-16.2989-7.545-22.0542-1.354 6.8194-3.265 13.5904-5.731 20.3131z"/><path d="m672.76 121.565v-106.3541h13.059v106.3541z"/><path d="m640.62 112.06c-4.837 4.111-9.504 7.013-14.002 8.706-4.449 1.692-9.237 2.539-14.364 2.539-8.464 0-14.969-2.056-19.515-6.167-4.546-4.159-6.82-9.455-6.82-15.888 0-3.772.847-7.2059 2.54-10.3012 1.741-3.1437 3.99-5.6587 6.746-7.5449 2.806-1.8862 5.949-3.313 9.432-4.2803 2.563-.6771 6.432-1.33 11.607-1.9587 10.544-1.2575 18.306-2.7568 23.288-4.4979.048-1.7895.072-2.9261.072-3.4097 0-5.3201-1.233-9.0684-3.7-11.2448-3.337-2.9502-8.294-4.4254-14.872-4.4254-6.142 0-10.688 1.0882-13.639 3.2646-2.902 2.1281-5.054 5.9247-6.456 11.3899l-12.769-1.7411c1.161-5.4652 3.072-9.8664 5.732-13.2035 2.66-3.3856 6.505-5.9731 11.535-7.7626 5.029-1.8378 10.857-2.7568 17.483-2.7568 6.578 0 11.922.7739 16.033 2.3216 4.111 1.5476 7.134 3.5064 9.069 5.8762 1.934 2.3216 3.288 5.2718 4.062 8.8508.435 2.2247.653 6.239.653 12.0428v17.4112c0 12.1398.266 19.8298.798 23.0698.581 3.192 1.693 6.263 3.337 9.214h-13.639c-1.354-2.709-2.224-5.877-2.611-9.504zm-1.088-29.1639c-4.74 1.9346-11.85 3.579-21.329 4.9332-5.369.7738-9.165 1.6444-11.39 2.6117s-3.942 2.394-5.151 4.2802c-1.209 1.8379-1.814 3.8934-1.814 6.1668 0 3.482 1.306 6.384 3.918 8.705 2.66 2.322 6.529 3.483 11.607 3.483 5.03 0 9.504-1.089 13.422-3.265 3.917-2.225 6.795-5.248 8.633-9.068 1.402-2.9506 2.104-7.3034 2.104-13.0588z"/><path d="m540.731 121.564v-77.0452h11.753v11.68c2.998-5.4652 5.755-9.0683 8.27-10.8095 2.563-1.7411 5.369-2.6117 8.416-2.6117 4.401 0 8.874 1.4026 13.421 4.2078l-4.498 12.1153c-3.192-1.8862-6.384-2.8293-9.576-2.8293-2.854 0-5.417.8705-7.69 2.6117-2.273 1.6927-3.894 4.0626-4.861 7.1096-1.451 4.643-2.176 9.7212-2.176 15.2348v40.3365z"/><path d="m528.028 109.886 1.886 11.535c-3.676.774-6.965 1.161-9.867 1.161-4.739 0-8.415-.75-11.027-2.249-2.611-1.5-4.449-3.458-5.513-5.877-1.064-2.466-1.596-7.617-1.596-15.4521v-44.3262h-9.577v-10.1565h9.577v-19.0799l12.986-7.835v26.9149h13.131v10.1565h-13.131v45.0517c0 3.7236.217 6.1176.652 7.1816.484 1.065 1.234 1.911 2.249 2.54 1.064.628 2.564.943 4.498.943 1.451 0 3.362-.17 5.732-.508z"/><path d="m420.007 98.5662 12.913-2.0313c.726 5.1751 2.733 9.1411 6.022 11.8981 3.337 2.756 7.98 4.135 13.929 4.135 5.997 0 10.446-1.209 13.348-3.628 2.902-2.466 4.353-5.344 4.353-8.633 0-2.9499-1.282-5.2714-3.845-6.9642-1.789-1.1607-6.239-2.6358-13.349-4.4253-9.576-2.4183-16.226-4.4979-19.95-6.2391-3.676-1.7894-6.481-4.2319-8.415-7.3272-1.887-3.1437-2.83-6.6018-2.83-10.3742 0-3.4339.774-6.6018 2.322-9.5036 1.596-2.9503 3.748-5.3927 6.456-7.3273 2.032-1.4993 4.789-2.7568 8.271-3.7724 3.53-1.064 7.303-1.5961 11.317-1.5961 6.046 0 11.342.8706 15.888 2.6117 4.595 1.7412 7.98 4.111 10.156 7.1096 2.177 2.9503 3.676 6.9162 4.498 11.8977l-12.768 1.7411c-.58-3.9658-2.273-7.0612-5.078-9.286-2.757-2.2247-6.675-3.3371-11.753-3.3371-5.997 0-10.277.9915-12.841 2.9744-2.563 1.983-3.845 4.3045-3.845 6.9645 0 1.6928.532 3.2163 1.596 4.5705 1.064 1.4025 2.733 2.5633 5.006 3.4822 1.306.4837 5.151 1.5961 11.535 3.3372 9.238 2.4666 15.67 4.4979 19.298 6.0939 3.675 1.5477 6.553 3.8208 8.633 6.8194 2.079 2.9986 3.119 6.7227 3.119 11.1723 0 4.353-1.281 8.464-3.845 12.333-2.515 3.821-6.166 6.795-10.954 8.923-4.788 2.08-10.205 3.12-16.251 3.12-10.011 0-17.653-2.08-22.925-6.239-5.223-4.16-8.56-10.326-10.011-18.4998z"/><path d="m392.228 30.2281v-15.0172h13.059v15.0172zm0 91.3369v-77.0451h13.059v77.0451z"/><path d="m269.617 121.565v-106.3541h21.184l25.174 75.3037c2.321 7.0129 4.014 12.2604 5.078 15.7424 1.209-3.869 3.095-9.5517 5.659-17.0482l25.464-73.9979h18.934v106.3541h-13.566v-89.0154l-30.905 89.0154h-12.696l-30.76-90.5388v90.5388z"/></g></svg>
