<svg fill="none" viewBox="0 0 5850 2016" xmlns="http://www.w3.org/2000/svg"><g fill="currentColor"><path d="m599.877 159.522c-17.333 2.8-38.133 11.866-52.8 23.066-44.4 33.734-78.8 105.334-93.333 194.534-5.467 33.733-9.2 80.533-9.2 116.266 0 42.134 4.933 96 12 133.201 1.6 8.266 2.4 15.599 1.733 16.133-.533.533-7.066 5.866-14.4 11.733-25.066 20-53.733 50.8-73.466 78.933-37.867 53.734-62.4 114.8-72.667 180.934-4 26.133-5.067 78.933-1.867 105.068 7.067 60.27 25.2 111.2 56.267 157.87l10.133 15.06-2.933 4.94c-20.8 34.93-38.533 85.46-46.8 134-6.533 38.4-7.333 48.66-7.333 100.13 0 51.87.666 62.13 6.8 98 7.333 42.93 22.266 88.4 38.933 118.67 5.467 9.86 18.8 30.4 20.4 31.46.533.27-1.067 5.2-3.6 10.94-19.2 42-35.6 97.86-42.4 144.93-4.8 32.27-5.467 42.67-5.467 76.67 0 43.33 2.4 64.4 11.467 98.93l1.333 5.07h57.067 57.2l-3.733-7.07c-23.067-42.67-25.2-121.87-5.334-200.93 9.067-36.54 19.334-63.34 38.534-100.27l11.466-22.4v-13.73c0-12.8-.266-14.27-4.4-22.67-3.2-6.4-7.466-11.87-15.066-19.33-12.934-12.54-22.267-25.74-29.734-42-32.8-71.2-39.2-176.94-16.133-267.07 9.6-37.6 25.467-71.07 42.133-89.33 11.334-12.54 17.2-26.54 17.2-41.07 0-15.07-5.333-27.47-17.333-40.4-34.4-36.8-55.6-81.6-63.2-133.73-10.8-74.272 8.8-155.205 53.333-219.338 43.6-62.934 104.8-103.334 173.2-114.133 15.334-2.534 44-2.134 60 .799 17.467 3.067 28.4 2.134 39.6-3.2 13.867-6.533 20.8-14.666 28.934-33.333 7.2-16.667 12.8-25.733 27.866-44.533 18.134-22.534 35.6-37.867 63.6-56.4 32-20.934 68.4-36.134 104.667-43.467 13.2-2.667 19.333-3.067 44-3.067 24.666 0 30.796.4 43.996 3.067 53.2 10.8 106 38.267 148.14 77.2 9.06 8.4 30.8 35.333 37.73 46.533 2.67 4.4 7.33 13.734 10.27 20.667 8.13 18.667 15.06 26.8 28.93 33.333 10.8 5.2 22.13 6.267 38.93 3.467 26.54-4.533 46.94-4.133 72.94 1.2 88.53 17.867 165.6 90.8 199.73 188.533 29.73 85.734 21.33 175.472-22.93 244.002-7.47 11.6-14.94 20.93-25.74 32.4-23.33 24.93-23.33 55.87-.13 81.47 38.13 41.73 62 144.4 54.8 234.93-4.8 59.73-20.13 113.2-41.2 143.47-3.73 5.33-11.47 14.4-17.33 20-7.6 7.46-11.87 12.93-15.07 19.33-4.13 8.4-4.4 9.87-4.4 22.67v13.73l11.47 22.4c19.2 36.93 29.46 63.73 38.53 100.27 19.6 78 17.87 155.6-4.53 199.73-1.87 3.73-3.47 7.2-3.47 7.6s25.47.67 56.67.67h56.53l1.47-5.74c.8-3.06 2.13-7.73 2.8-10.4 1.46-5.86 4.4-23.2 6.8-39.86 2.26-16.8 2.26-78.67 0-97.34-8.54-67.73-22.8-121.46-46.14-172.26-2.53-5.74-4.13-10.67-3.6-10.94.67-.4 4.4-5.73 8.4-11.73 29.07-44 46.94-99.33 56-172.4 2.4-20.13 2.4-106.67 0-126-6.4-49.87-14.13-83.73-26.93-118-5.33-14.27-19.47-44.4-25.47-54.13l-2.93-4.94 10.13-15.06c31.07-46.67 49.2-97.6 56.27-157.87 3.2-26.135 2.13-78.935-1.87-105.068-10.4-66.267-34.8-127.067-72.66-180.934-19.74-28.133-48.4-58.933-73.47-78.933-7.33-5.867-13.87-11.2-14.4-11.733-.67-.534.13-7.867 1.73-16.133 16.14-84.134 15.6-189.067-1.33-271.067-14.67-71.467-41.33-128.267-75.73-161.067-27.47-26.133-55.47-37.333-89.07-35.2-77.07 4.533-139.2 93.2-163.73 232.933-4 22.534-7.47 48.934-7.47 56.134 0 2.8-.53 5.066-1.2 5.066s-5.87-2.666-11.47-6c-59.46-35.2-125.6-54-189.996-54-64.4 0-130.533 18.8-190 54-5.6 3.334-10.8 6-11.467 6-.666 0-1.2-2.266-1.2-5.066 0-7.467-3.6-34.667-7.466-56.134-22.267-125.466-73.334-208.533-141.2-229.466-9.334-2.8-35.867-4.667-45.334-3.2zm22.667 108.533c19.2 15.2 40.533 58.667 52.8 107.333 2.267 8.8 4.667 18.934 5.333 22.667.534 3.6 2 11.733 3.2 18 5.2 28.267 7.6 58.8 7.867 96l.133 36.667-9.2 13.6-9.2 13.733h-21.466c-25.067 0-50 3.2-73.867 9.6-8.533 2.133-16.8 4.267-18.4 4.667-2.533.533-2.933-.267-4.4-11.2-7.867-59.334-7.467-125.067 1.2-179.734 9.6-60.933 32-116.133 53.867-132.4 5.2-3.866 6.133-3.733 12.133 1.067zm760.266-.933c13.2 9.733 27.73 35.6 38.53 68.666 21.74 66.134 27.87 156.934 16.4 243.334-1.46 10.933-1.86 11.733-4.4 11.2-1.6-.4-9.86-2.534-18.4-4.667-23.86-6.4-48.8-9.6-73.86-9.6h-21.47l-9.2-13.733-9.2-13.6.13-36.667c.27-51.733 5.07-92.133 16.54-137.067 12.13-48.266 33.6-91.733 52.66-106.933 6-4.8 6.94-4.933 12.27-.933z"/><path d="m975.877 938.189c-28.933 2.8-36.8 3.866-50.667 6.666-22.533 4.667-52.666 15.067-73.6 25.334-72.8 35.601-122.933 94.931-138.266 163.601-3.067 13.6-3.467 18.13-3.467 41.07 0 22.66.4 27.6 3.333 40.53 20.4 89.73 103.067 156 210 168.13 23.2 2.54 123.47 2.54 146.67 0 85.86-9.73 159.73-56.26 192.93-121.6 8.8-17.46 13.07-28.8 17.07-46.53 2.93-12.93 3.33-17.87 3.33-40.53 0-22.94-.4-27.47-3.47-41.07-22.26-99.73-119.06-178.268-237.73-193.201-15.47-1.867-56-3.467-66.133-2.4zm49.863 72.531c39.6 4.27 79.47 18.4 111.47 39.74 17.2 11.46 41.47 35.46 51.87 51.2 12.8 19.46 20.13 39.33 23.46 63.46 1.47 11.07.67 19.47-3.33 37.34-6.27 26.66-25.73 54.53-52 74-12.27 8.93-37.73 21.86-53.33 26.93-29.6 9.47-48.94 11.2-118.003 10.67-45.067-.4-53.067-.8-66-3.2-44.133-8.27-79.067-25.87-104.4-52.67-20.533-21.6-29.867-41.33-34.933-73.2-2.267-14.8 2-39.33 10.666-60 10.534-25.2 37.734-56.53 64.667-74.53 31.2-20.8 72.267-35.6 110-39.6 14.533-1.6 45.333-1.6 59.863-.14z"/><path d="m945.61 1108.06c-10.133 5.46-17.2 19.33-15.067 29.6 2.4 11.06 12.134 22.26 27.334 31.46 8.133 4.94 8.666 5.6 9.066 10.54.267 2.93-.8 11.33-2.266 18.8-1.6 7.33-2.8 15.06-2.8 17.2.133 5.73 5.466 15.06 11.066 19.6 4.934 4 5.867 4.13 19.734 4.53 12.663.4 15.333.13 20.403-2.27 13.06-6.4 16.4-18.13 11.6-40.66-4-18.8-3.2-21.74 6.8-27.47 10.53-6.13 21.73-16.93 25.06-24.27 6.4-14 .54-29.86-13.6-37.2-3.46-1.73-7.73-2.53-14-2.53-9.73 0-16 2.27-27.46 9.6l-6.537 4.13-4.133-2.53c-16.933-10-20-11.2-30.267-11.07-7.333 0-11.333.67-14.933 2.54z"/><path d="m621.878 953.255c-23.6 7.467-41.2 24.8-50.267 49.465-4.4 11.74-6.533 30.27-4.666 40.27 4.4 23.87 24 45.6 46.266 51.6 28 7.33 48.934 2.53 67.467-15.87 10.8-10.53 16.667-19.73 22.533-34.66 4.267-10.54 4.534-12.4 4.534-27.34l.133-16-5.6-11.465c-8.933-18.133-25.067-31.6-43.733-36.533-10.534-2.667-27.467-2.533-36.667.533z"/><path d="m1334.01 952.855c-18.27 4.934-34.53 18.534-43.2 36.4l-5.6 11.465.13 16c0 14.94.27 16.8 4.54 27.34 5.86 14.93 11.73 24.13 22.53 34.66 18.53 18.4 39.47 23.2 67.47 15.87 16.13-4.27 32.26-17.87 40-33.73 6.66-13.47 8.26-23.2 6.13-38.54-4.93-35.065-25.47-60.531-56-69.465-8.93-2.666-26.27-2.666-36 0z"/><path d="m2452.67 1046.27c-55.47 4.53-103.2 15.73-147.34 34.53-128.13 54.67-213.33 169.33-241.86 325.87-7.47 41.33-10.27 74.8-10.27 124 0 38.8 1.2 59.73 5.6 93.06 18.93 146.4 85.73 260.8 191.2 327.6 15.6 9.87 53.33 28.27 72 35.2 94.27 34.94 211.2 38.67 310.67 10.14 84.13-24.14 154.66-72.4 205.73-141.07 34.4-46.13 60.4-102.53 76-165.6 24.67-99.2 24.8-218.4.13-318.27-21.06-85.6-58.4-154.4-113.86-209.73-30.54-30.4-61.47-52.4-101.34-72-49.86-24.53-98.53-37.6-160.66-43.2-13.87-1.33-72.8-1.73-86-.53zm90.66 130.93c60.27 10.27 106 34.13 146.67 76.27 16.13 16.8 25.87 29.33 37.47 48.66 27.2 45.2 44.4 98.54 52.13 161.87 2.93 24.53 3.33 102.53.67 127.33-10.27 91.47-41.47 166.14-90.8 217.07-40.4 41.73-94.54 68.4-154.54 76.13-20.8 2.67-63.73 2.8-82.93.27-74.67-10.13-135.2-44.93-178-102.27-51.6-69.2-76.67-167.06-71.33-278.8 4.53-93.46 28.13-168.13 71.46-225.86 9.87-13.07 31.6-35.74 43.87-45.87 38.13-31.2 88.13-51.47 141.33-57.2 19.47-2.13 65.34-.8 84 2.4z"/><path d="m3087.07 1050c-24.94 5.47-43.47 23.73-50.8 50.27-2.14 7.86-2.27 33.46-2.27 429.73 0 398.67.13 421.87 2.4 430.53 8.13 32 33.47 51.47 67.2 51.47 13.6 0 22.8-1.87 33.2-6.8 16-7.6 27.2-20.67 33.73-39.6l3.47-10.27v-424.66c0-408.4-.13-424.94-2.4-432.67-4-12.67-9.87-22.53-19.07-31.33-4.66-4.4-11.6-9.6-15.73-11.47-14.93-6.8-33.47-8.8-49.73-5.2z"/><path d="m3351.06 1050c-19.73 4.27-37.6 18.27-45.86 35.73-8.4 18.14-8-11.86-7.6 449.6l.4 420 3.46 10.14c10.27 30.13 33.74 46.53 66.54 46.53 34 0 58.4-18.4 67.6-50.67 2.26-8.26 2.4-25.46 2.4-430.66 0-400.14-.14-422.4-2.4-430.67-3.74-13.87-8.67-22.67-18.14-32.13-16.93-16.8-41.06-23.34-66.4-17.87z"/><path d="m3802 1304c-62.8 5.6-119.47 24.4-162.53 53.73-14.94 10.27-35.74 30-46.27 43.87-10.27 13.73-24.67 42.8-27.2 55.07-9.2 44.53 15.33 76.66 58.53 76.66 27.6 0 43.74-9.33 61.2-35.33 33.34-49.73 69.74-73.47 121.34-79.2 70.8-7.87 127.46 15.33 150.4 61.87 11.06 22.53 12.13 28.53 12.93 72.93l.53 38.4h-3.06c-13.6 0-208.14 12.4-221.2 14.13-143.87 18.27-223.2 94.14-218.27 208.54 4.93 114 89.6 190.93 216.27 196.8 83.6 3.86 166.93-35.2 213.2-99.87 4-5.73 9.06-13.47 10.93-17.07 6.67-12 7.2-10 7.2 25.87 0 36 1.47 46.13 8.93 60 7.87 14.8 24.4 26.8 41.47 30.4 10.67 2.13 32.27.8 42-2.53 21.47-7.74 36.13-25.74 40.93-50.27 1.07-5.87 1.34-67.6 1.07-234.67l-.53-226.66-3.47-16c-7.87-34.94-19.47-60.27-38.93-85.2-38-48.4-98.14-79.2-174.8-89.47-18.94-2.53-71.34-3.73-90.67-2zm168.67 418.27c0 22.8-.67 36.8-2 45.2-10.27 63.73-60.94 113.2-131.74 128.66-15.6 3.47-50.26 4.8-66.53 2.67-32.93-4.4-60.93-17.6-78.13-36.93-8.67-9.6-16.8-25.6-19.6-38.54-3.34-15.06-2.27-39.33 2.26-52.26 13.34-37.47 50.94-61.47 108.14-69.07 12-1.6 148.8-10.93 184-12.53l3.6-.14z"/><path d="m4270.4 1304.8c-23.33 5.6-40.93 23.47-47.07 48-1.73 7.07-2 42.8-1.73 306.67l.4 298.53 2.93 8.8c6.54 18.93 21.2 34 40.14 41.33 10.4 4 32 4.94 44.66 2 23.47-5.46 40.27-21.46 48.4-46.13 2.4-6.93 2.54-18.27 3.2-209.33l.8-202 3.07-13.2c12.93-57.47 49.47-96.94 102.53-111.07 11.34-3.07 15.6-3.47 35.6-3.6 25.2-.13 37.6 1.73 55.34 8.67 31.73 12.26 55.73 37.06 66.93 69.2 7.33 21.06 6.8 7.2 7.73 238.66.67 200.8.94 214.54 3.2 222 9.34 31.34 32.94 48.67 66.14 48.67 33.33 0 56.93-17.73 66.26-50 2.14-7.47 2.4-23.2 3.07-212.67.8-202.26.8-204.8 3.6-216 16.27-65.86 64.4-106 130.4-108.93 44.27-2 78.13 9.87 102.93 36.13 19.47 20.4 30.14 46.4 33.74 82 .8 8.8 1.33 83.74 1.33 210.67 0 191.87.13 197.33 2.67 207.33 8.4 32.94 32.8 51.47 67.6 51.47 28.4 0 50.8-13.07 62.4-36.27 8.93-18.26 8.53-8 8.66-243.73 0-131.33-.53-218.27-1.33-227.33-5.33-58-25.2-103.34-61.2-139.47-37.87-37.87-84.13-57.33-144.53-61.07-99.07-6.13-185.07 40.27-225.07 121.47-3.2 6.53-6.4 11.73-7.33 11.73-.8 0-3.6-5.86-6.4-13.2-16.27-43.06-48.67-79.2-88.8-99.46-47.2-23.74-116-27.74-170-9.87-16.67 5.6-39.07 16.93-53.74 27.47-24.93 17.86-51.06 49.33-63.6 76.8-2.93 6.4-6.13 11.6-6.93 11.6-1.33 0-1.73-7.74-1.73-34.4 0-37.2-1.07-44.67-7.6-58.67-4.4-9.47-17.34-22.67-26.8-27.47-14.14-7.2-33.87-9.33-49.87-5.33z"/><path d="m5540 1304.13c-56.8 4.94-109.2 21.07-151.47 46.54-38.66 23.46-68.8 59.46-82 98-2.66 7.86-3.2 11.86-3.2 26 0 20.26 2.54 28 12.94 39.33 12.26 13.47 26.53 19.33 46.8 19.33 28.93-.13 42.26-8.13 62.4-37.6 12.4-18 30.53-37.86 43.86-48 12.14-9.33 35.47-20.4 50.8-24.26 42.94-10.94 92.94-7.07 127.2 9.73 28.27 14 46.4 35.07 55.74 64.8 4.8 15.2 6.26 30.53 6.26 64.27 0 29.2 0 29.73-2.8 29.73-12.4 0-208.8 12.53-220.93 14-42.4 5.47-78.13 15.33-108.93 29.87-59.07 28-94 70.66-106.94 130.8-3.46 16.13-3.46 59.2.14 78 7.6 41.2 24.66 74 53.46 102.66 37.34 37.47 87.6 58.67 150.27 63.6 93.87 7.47 187.07-38.26 231.87-113.73 3.06-5.07 6.26-9.2 7.2-9.2 1.46 0 1.86 7.73 2.26 36.93.54 34.14.8 37.74 3.47 44.94 10.13 27.33 32.13 42.13 62.93 42.13 32.27 0 54.67-16 64.94-46.67 2.26-6.93 2.4-17.6 2.8-226 .4-227.6.26-236.53-5.2-261.86-8.67-39.6-26-71.6-54.54-100.14-42.26-42.26-101.73-66.8-178-73.33-18.4-1.47-52.93-1.47-71.33.13zm168.93 422.8c-.53 27.47-1.2 40.14-2.8 46.67-14.93 63.87-62.53 107.73-134.13 123.2-17.2 3.87-61.2 3.47-78.4-.53-35.47-8.27-61.33-26.14-74.53-51.74-7.74-14.8-10.14-24.93-10.27-42.53-.13-17.47 1.73-25.6 8.8-40.53 4.4-9.2 7.47-13.34 16.27-22 6-6 14.26-12.8 18.4-15.2 19.73-11.74 47.06-20.14 74.4-22.94 11.73-1.33 158.4-10.93 179.2-11.86l3.73-.14z"/></g></svg>
