<svg fill="none" height="818" viewBox="0 0 4000 818" width="4000" xmlns="http://www.w3.org/2000/svg"><g fill="currentColor"><path d="m915.294 191.553h205.016c148.36 0 185.94 87.233 185.94 158.331 0 71.099-38.42 158.332-185.94 158.332h-126.488v249.392h-78.528zm78.528 249.393h103.488c62.26 0 124.52-14.22 124.52-91.062 0-76.841-62.26-91.061-124.52-91.061h-103.488z"/><path d="m1408.92 188.829c29.63.019 53.74 23.27 54.09 52.163.34 28.893-23.2 52.685-52.83 53.377-29.62.693-54.31-21.972-55.39-50.848-.45-14.305 5.04-28.182 15.23-38.48 10.19-10.299 24.22-16.145 38.9-16.212zm-36.18 189.781h72.92v379.017h-72.92z"/><path d="m1530.04 378.622h73.76v58.519h1.68c25.72-44.727 75.4-71.178 127.89-68.09 75.44 0 140.23 44.026 140.23 144.656v243.919h-72.92v-223.683c0-71.371-41.79-97.623-88.62-97.623-61.42 0-108.26 38.284-108.26 126.335v194.971h-73.76z"/><path d="m2008.8 594.645c0 66.181 63.1 109.39 131.25 109.39 42.76-1.212 82.35-22.243 106.58-56.61l56.09 41.569c-40.73 52.387-105.44 81.682-172.76 78.214-123.12 0-199.97-86.145-199.97-199.09-2.17-52.708 18.05-103.955 55.91-141.641 37.85-37.686 89.97-58.472 144.06-57.45 136.86 0 189.31 102.28 189.31 199.911v25.707zm233.34-57.704c-1.68-63.172-37.86-109.39-112.18-109.39-63.56-.422-116.44 47.544-120.6 109.39z"/><path d="m2654.15 479.528c-24.01-27.678-59.59-43.263-96.76-42.386-80.21 0-121.44 63.168-121.44 134.267-2.02 33.63 10.35 66.571 34.16 90.98s56.94 38.102 91.49 37.817c36.51 1.193 71.46-14.525 94.23-42.385l52.45 50.589c-38.16 39.388-92.01 60.647-147.52 58.246-54.58 2.678-107.78-17.233-146.5-54.829s-59.36-89.383-56.84-142.606c-2.46-53.429 18.11-105.427 56.73-143.401 38.63-37.973 91.79-58.459 146.61-56.495 56.16-1.39 110.32 20.35 149.2 59.887z"/><path d="m2926.45 369.039c112.31 1.805 202.03 91.715 200.8 201.222-1.23 109.506-92.95 197.48-205.26 196.891-112.32-.594-203.06-89.53-203.07-199.043-.01-53.37 21.96-104.508 60.98-141.937 39.02-37.428 91.82-58.013 146.55-57.133zm0 331.146c78.53 0 127.89-54.69 127.89-132.076s-49.36-131.802-127.89-131.802c-78.52 0-128.17 54.69-128.17 131.802 0 77.113 49.37 132.076 128.17 132.076z"/><path d="m3192.88 378.604h73.77v58.52c25.8-44.771 75.59-71.219 128.16-68.091 75.45 0 140.23 44.027 140.23 144.658v243.921h-73.76v-223.686c0-71.371-41.78-97.623-88.34-97.623-61.7 0-108.26 38.284-108.26 126.336v194.973h-71.8z"/><path d="m3672.46 594.624c0 66.178 63.1 109.385 131.26 109.385 42.71-1.343 82.25-22.342 106.57-56.606l56.09 41.566c-40.76 51.949-105.21 80.914-172.2 77.39-122.84 0-199.97-86.141-199.97-199.081-2.18-52.85 18.16-104.227 56.2-141.938 38.03-37.71 90.38-58.394 144.61-57.142 137.15 0 189.59 102.275 189.59 199.901v25.705zm232.78-57.7c-1.68-63.17-37.58-109.385-112.18-109.385-63.62-.56-116.58 47.478-120.6 109.385z"/><path clip-rule="evenodd" d="m471.826 24.0936c-7.71-9.1802-20.876-11.5385-31.292-5.605l-9.731 5.5436-.124-.0229-.02.1046-104.809 59.7065 24.57 43.1566 68.454-38.9956-16.839 91.2546 48.824 9.015 16.932-91.7536 50.421 60.0346 38.015-31.947-76.755-91.3885.031-.1721-.208-.0385zm-147.746 770.7304c25.248 0 45.715-19.956 45.715-44.574 0-24.617-20.467-44.574-45.715-44.574-25.247 0-45.714 19.957-45.714 44.574 0 24.618 20.467 44.574 45.714 44.574zm61.481-244.615-16.47 91.86-48.87-8.767 16.365-91.277-68.211 39.18-24.724-43.069 104.382-59.956.023-.131.156.028 9.799-5.628c10.378-5.961 23.53-3.668 31.279 5.454l7.561 8.9.075.013-.011.063 77.443 91.16-37.834 32.161zm39.549-219.274-16.458 91.802-48.87-8.766 16.303-90.936-67.994 38.859-24.63-43.123 104.049-59.465.107-.598.714.128 9.516-5.438c10.377-5.93 23.504-3.624 31.239 5.489l7.27 8.564.131.024-.02.108 77.399 91.182-37.847 32.145zm-320.443 362.433-.273.186-.223-.329-10.1254-2.908c-10.7132-3.077-17.8052-13.243-16.9972-24.363l9-123.86 47.0016 3.417-5.476 75.358 73.226-49.679 26.451 39.013-71.796 48.709 73.246 21.04-13.007 45.308zm485.629 51.468.005.008-.01.008-3.303 10.869c-3.186 10.484-13.175 17.388-24.105 16.662l-10.323-.685-.66.469-.383-.538-115.073-7.643 3.122-47.036 76.692 5.094-50.008-70.326 38.401-27.323 51.138 71.914 22.132-72.825 45.088 13.711zm134.881-255.646.145.025-.032.178 5.484 9.827c5.62 10.071 3.33 22.711-5.465 30.169l-8.291 7.031-.058.327-.272-.048-89.431 75.833-31.197-36.815 58.841-49.894-88.105-15.509 8.362-47.531 88.745 15.621-37.217-66.692 42.128-23.523zm-90.684-207.163-79.584 42.836-22.862-42.499 78.216-42.1-71.891-29.088 18.092-44.741 109.014 44.109.486-.261.315.585 9.867 3.993c10.591 4.285 16.725 15.415 14.693 26.661l-2.029 11.231.016.029-.024.013-20.483 113.376-47.478-8.582zm-533.53 99.553 88.287 15.027-8.094 47.578-89.045-15.156 37.972 66.929-41.9601 23.82-57.4172-101.201-.0407-.007.0085-.05-5.5008-9.695c-5.6899-10.029-3.4912-22.683 5.248-30.204l8.2471-7.097.0905-.532.4405.075 88.3182-76 31.465 36.586zm133.361-205.779 58.748 65.467-35.904 32.238-60.108-66.983-13.995 76.299-47.455-8.709 20.722-112.975-.104-.117.151-.135 2.095-11.423c2.033-11.085 11.467-19.286 22.725-19.755l10.383-.432.549-.493.408.453 117.934-4.906 2.005 48.22z" fill-rule="evenodd"/></g></svg>
