<svg height="16.232729" viewBox="0 0 15.437209 16.232729" width="15.437209" xmlns="http://www.w3.org/2000/svg"><path d="m13.266875.00185084c-1.22.042-2.283.715-3.075 1.64399996-.8779999 1.02-1.4609999 2.229-1.8809999 3.461-.753-.614-1.332-1.414-2.539-1.761a3.1 3.1 0 0 0 -2.813.514c-.41.319-.71.757-.861 1.254-.36 1.176.381 2.225.719 2.6l.737.79c.15.154.519.56.339 1.138-.193.6310002-.951 1.0370002-1.732.7990002-.348-.106-.848-.366-.734-.7300002.045-.15.152-.263.21-.391.052-.11.077-.194.095-.242.141-.465-.053-1.07-.551-1.223-.46500003-.143-.93900003-.03-1.12500003.566-.209.68.117 1.9130002 1.86000003 2.4490002 2.04.628 3.765-.484 4.009-1.9320002.153-.907-.255-1.582-1.006-2.447l-.612-.677c-.371-.37-.497-1.002-.114-1.485.324-.409.785-.584 1.539-.379 1.103.3 1.594 1.063 2.412 1.68-.338 1.11-.56 2.223-.759 3.222l-.123.746c-.585 3.0700002-1.033 4.7570002-2.194 5.7260002-.234.166-.57.416-1.073.434-.266.005-.352-.176-.355-.257-.006-.184.15-.271.255-.353.154-.083.39-.224.372-.674-.016-.532-.456-.994-1.094-.973-.477.017-1.203.465-1.176 1.286.028.85.819 1.485 2.012 1.444.638-.021 2.062-.281 3.464-1.949 1.633-1.911 2.09-4.101 2.434-5.7060002l.3829999-2.116q.318.037.69.048c2.032.044 3.049-1.01 3.064-1.776.01-.464-.304-.921-.744-.91a.85.85 0 0 0 -.806.654c-.094.428.646.813.068 1.189-.41.266-1.146.452-2.184.3l.188-1.042c.386-1.976.859-4.40699996 2.661-4.46699996.132-.007.612.006.623.323.003.105-.022.134-.147.37499996a.86.86 0 0 0 -.168.537c.017.504.4.836.957.816.743-.023.955-.748.945-1.119-.032-.87399996-.952-1.42399996-2.17-1.38599996"/></svg>