<svg width="285" height="81" viewBox="0 0 285 81" fill="none" xmlns="http://www.w3.org/2000/svg">
    <path d="M60.582 14.9102C63.4049 14.9102 65.6934 17.1987 65.6934 20.0215V60.9111C65.6934 63.734 63.4049 66.0225 60.582 66.0225H19.6924C16.8696 66.0225 14.5811 63.734 14.5811 60.9111V20.0215C14.5811 17.1987 16.8696 14.9102 19.6924 14.9102H60.582ZM53.0811 21.5352C50.2373 21.6324 47.7542 23.2024 45.9062 25.3682C43.8603 27.7467 42.4995 30.5653 41.5176 33.4443C39.7642 32.0057 38.412 30.1446 35.5967 29.335C33.4214 28.7095 31.1366 28.9664 29.0352 30.5322C28.0398 31.2754 27.3532 32.3984 27.0273 33.457C26.1829 36.2018 27.9151 38.6459 28.7021 39.5225L30.4229 41.3652C30.7767 41.7271 31.631 42.6698 31.2129 44.0205C30.763 45.4915 28.9912 46.4408 27.1738 45.8828C26.3617 45.6336 25.1957 45.0296 25.457 44.1797C25.5639 43.8308 25.8135 43.5682 25.9482 43.2705C26.07 43.0106 26.13 42.8169 26.167 42.7012C26.4987 41.6186 26.0443 40.2083 24.8838 39.8496C23.8002 39.5172 22.6916 39.7806 22.2617 41.1748C21.7747 42.759 22.5335 45.6354 26.5957 46.8867C31.3543 48.3511 35.379 45.7588 35.9502 42.3809C36.3102 40.265 35.3535 38.6916 33.6035 36.6699L32.1768 35.0908C31.3133 34.2279 31.0163 32.7565 31.9102 31.626C32.6653 30.671 33.7388 30.2652 35.5 30.7432C38.0702 31.4401 39.2151 33.2234 41.126 34.6621C40.3382 37.2505 39.8218 39.8492 39.3555 42.1787L39.0693 43.916C37.7037 51.0792 36.66 55.0148 33.9502 57.2734C33.4036 57.6624 32.6232 58.2447 31.4473 58.2861C30.8293 58.305 30.6305 57.8792 30.6221 57.6934C30.6081 57.262 30.9718 57.0632 31.2139 56.8691C31.5767 56.671 32.1243 56.3435 32.0869 55.2939C32.0474 54.0536 31.0206 52.9781 29.5352 53.0273C28.423 53.0648 26.7277 54.1106 26.792 56.0273C26.8575 58.0075 28.702 59.4907 31.4844 59.3965C32.9716 59.3466 36.2926 58.7417 39.5645 54.8525C43.3736 50.3921 44.4391 45.2809 45.2402 41.5391L46.1348 36.5977C46.6311 36.6577 47.1631 36.6985 47.7412 36.7119C52.4851 36.8122 54.8562 34.3563 54.8936 32.5684C54.9176 31.4867 54.1844 30.4208 53.1572 30.4463C52.4235 30.4669 51.5001 30.9567 51.2793 31.9717C51.0616 32.9675 52.7885 33.868 51.4395 34.7441C50.4811 35.3641 48.7627 35.8001 46.3428 35.4463L46.7822 33.0146C47.6803 28.4036 48.788 22.7317 52.9902 22.5928C53.2967 22.5784 54.4163 22.6061 54.4424 23.3477C54.4497 23.5936 54.3883 23.6589 54.0996 24.2236C53.8043 24.6649 53.6925 25.0425 53.707 25.4736C53.7475 26.6502 54.6423 27.4249 55.9385 27.3799C57.6716 27.3215 58.1691 25.635 58.1406 24.7676C58.0697 22.7291 55.9223 21.4413 53.0811 21.5352Z" fill="white"/>
    <path d="M179.412 31.8252C185.886 31.8252 190.226 36.5019 190.226 42.9726C190.226 49.0693 185.802 54.1182 179.412 54.1182C172.984 54.1182 168.561 49.0693 168.561 42.9726C168.561 36.5019 172.898 31.8252 179.412 31.8252ZM179.412 50.9502C184.005 50.9502 186.049 46.7744 186.049 42.9726C186.049 38.9248 183.586 35.001 179.412 35.001C175.196 35.001 172.732 38.9248 172.732 42.9726C172.732 46.7744 174.779 50.9502 179.412 50.9502Z" fill="white"/>
    <path d="M168.022 33.8076V32.3262H162.385V30.3017C162.385 27.4209 162.804 25.2471 166.183 25.2471C166.245 25.2471 166.31 25.2529 166.376 25.2559C166.383 25.2559 166.381 25.2451 166.389 25.2451C167.327 25.3135 168.108 24.5498 168.161 23.6123L168.229 22.3262C167.436 22.2002 166.6 22.0762 165.6 22.0762C159.797 22.0762 158.462 25.458 158.462 30.6357V32.3262H153.447V33.9795C153.576 34.8369 154.31 35.4971 155.205 35.4971C155.209 35.4971 155.214 35.501 155.219 35.501H158.462V53.6201H160.629C161.529 53.6201 162.263 52.9424 162.385 52.0791V35.501H166.31C167.233 35.4707 167.977 34.7314 168.022 33.8076Z" fill="white"/>
    <path d="M115.748 32.3262C115.742 32.3262 115.737 32.331 115.727 32.331C114.901 32.331 114.1 32.8994 113.75 33.6679L108.351 49.9463H108.267L102.985 33.6767C102.64 32.9033 101.835 32.331 101.003 32.331C100.993 32.331 100.99 32.3262 100.983 32.3262H98.2461L105.469 52.2002C105.721 52.9111 106.223 53.9971 106.223 54.4541C106.223 54.874 105.053 59.7139 101.543 59.7139C101.458 59.7139 101.369 59.7041 101.284 59.6982C100.389 59.6494 99.7134 60.2744 99.564 61.2373L99.4566 62.5967C100.167 62.7217 100.879 62.8896 102.13 62.8896C107.307 62.8896 108.851 58.1689 110.314 54.0791L118.162 32.3262H115.748Z" fill="white"/>
    <path d="M90.7991 36.6515C87.5589 34.9933 84.012 33.8663 83.9505 30.5304C83.9603 26.9874 87.2166 26.0567 89.7244 26.0597C89.7366 26.0577 89.7464 26.0577 89.7528 26.0577C90.8431 26.0577 91.7142 26.1661 92.5648 26.3526C92.576 26.3526 92.574 26.339 92.5867 26.339C93.4866 26.4054 94.242 25.7022 94.3465 24.8155L94.4183 23.5284C92.7737 23.1202 91.0545 22.9112 89.5579 22.9112C84.1028 22.9454 80.0516 25.6905 80.0389 30.9288C80.0452 35.5089 83.1307 37.2843 86.4529 38.8917C89.7093 40.4581 93.2742 41.7501 93.305 45.5304C93.2869 49.4737 89.4808 50.9268 86.8582 50.9327C85.324 50.9268 83.659 50.546 82.2557 50.1026C81.3768 49.9581 80.6561 50.7335 80.5408 51.7608L80.4232 52.9073C82.3524 53.5304 84.3294 54.0753 86.3182 54.0753H86.3402C92.4525 54.0304 97.202 51.5929 97.221 45.2647C97.2127 40.382 94.1038 38.3311 90.7991 36.6515Z" fill="white"/>
    <path d="M150.157 53.6201H150.162C151.008 53.6201 151.715 53.0244 151.893 52.2314V39.9678C151.893 35.333 149.935 31.8252 144.504 31.8252C142.584 31.8252 139.371 32.9131 137.909 35.96C136.783 33.0791 134.319 31.8252 131.858 31.8252C128.725 31.8252 126.595 32.9521 125.093 35.417H125.009V34.0928C124.998 33.1182 124.208 32.331 123.232 32.331C123.223 32.331 123.219 32.3262 123.213 32.3262H121.336V53.6201H123.464C124.449 53.6201 125.245 52.8213 125.245 51.8389C125.245 51.8115 125.253 51.8017 125.262 51.7842V42.8896C125.262 38.9248 126.847 35.001 130.854 35.001C134.025 35.001 134.656 38.2978 134.656 40.9287V53.6201H136.815C137.745 53.6201 138.494 52.9053 138.577 51.9971V42.8896C138.577 38.9248 140.165 35.001 144.171 35.001C147.344 35.001 147.971 38.2978 147.971 40.9287V53.6201H150.157Z" fill="white"/>
    <path d="M210.804 53.6202H210.808C211.765 53.6202 212.536 52.8643 212.582 51.9171V40.9698C212.582 35.2511 210.116 31.8253 204.605 31.8253C201.641 31.8253 198.805 33.2882 197.633 35.711H197.551V34.1202C197.551 34.1183 197.547 34.1183 197.547 34.1143C197.547 33.127 196.748 32.3311 195.767 32.3311C195.757 32.3311 195.755 32.3263 195.748 32.3263H193.75V53.6202H195.911C196.845 53.6202 197.602 52.8936 197.674 51.9776V43.7667C197.674 38.5909 199.68 35.0011 204.146 35.0011C207.573 35.2081 208.653 37.628 208.653 42.5977V53.6202H210.804Z" fill="white"/>
    <path d="M231.931 32.3262C231.921 32.3262 231.917 32.331 231.908 32.331C231.081 32.331 230.279 32.8994 229.931 33.6679L224.533 49.9463H224.445L219.163 33.6767C218.817 32.9033 218.013 32.331 217.183 32.331C217.175 32.331 217.17 32.3262 217.163 32.3262H214.426L221.649 52.2002C221.899 52.9111 222.404 53.9971 222.404 54.4541C222.404 54.874 221.233 59.7139 217.724 59.7139C217.639 59.7139 217.553 59.7041 217.465 59.6982C216.57 59.6494 215.896 60.2744 215.743 61.2373L215.638 62.5967C216.347 62.7217 217.06 62.8896 218.312 62.8896C223.488 62.8896 225.032 58.1689 226.496 54.0791L234.345 32.3262H231.931Z" fill="white"/>
    <path d="M253.399 47.454H240.104L238.502 52.0042C238.094 53.165 236.997 53.9416 235.766 53.9416H232.383L243.304 23.4151C243.577 22.6519 244.3 22.1426 245.11 22.1426H248.439C249.25 22.1426 249.973 22.6519 250.246 23.4151L261.167 53.9416H258.141C256.668 53.9416 255.356 53.0125 254.867 51.6237L253.399 47.454ZM251.938 43.205L246.775 28.4472L241.567 43.205H251.938Z" fill="white"/>
    <path d="M269.875 24.508V51.6226C269.875 52.9036 268.837 53.9421 267.556 53.9421H264.666V22.1885H267.556C268.837 22.1885 269.875 23.227 269.875 24.508Z" fill="white"/>
</svg>
