<svg height="43.123123" viewBox="0 0 218.13104 43.123123" width="218.13104" xmlns="http://www.w3.org/2000/svg" xmlns:xlink="http://www.w3.org/1999/xlink"><radialGradient id="a" cx="-145.47" cy="-548.28998" gradientTransform="matrix(1 0 0 -1 192.4 -493.01)" gradientUnits="userSpaceOnUse" r="68.690002"><stop offset="0" stop-color="#fff"/><stop offset=".48" stop-color="#eaeaeb"/><stop offset=".95" stop-color="#a9abae"/><stop offset="1" stop-color="#999b9e"/></radialGradient><linearGradient id="b" gradientUnits="userSpaceOnUse" x1="66.230003" x2="112.73" y1="24.48" y2="97.23"><stop offset="0" stop-color="#8a8a8a"/><stop offset=".57" stop-color="#606060"/><stop offset=".59" stop-color="#fff"/><stop offset=".61" stop-color="#585858"/><stop offset="1" stop-color="#303030"/></linearGradient><linearGradient id="c"><stop offset="0" stop-color="#a8a9ab"/><stop offset="1" stop-color="#636668"/></linearGradient><linearGradient id="d" gradientUnits="userSpaceOnUse" x1="35.349998" x2="55.349998" xlink:href="#c" y1="17.76002" y2="111.14003"/><linearGradient id="e" gradientUnits="userSpaceOnUse" x1="31.030001" x2="51.029999" xlink:href="#c" y1="18.69002" y2="112.06001"/><linearGradient id="f" gradientUnits="userSpaceOnUse" x1="54.720001" x2="83.800003" y1="65.14003" y2="65.14003"><stop offset="0" stop-color="#231f20"/><stop offset="1" stop-color="#474747"/></linearGradient><linearGradient id="g" gradientTransform="matrix(1 0 0 -1 192.4 -493.01)" gradientUnits="userSpaceOnUse" x1="-123.59" x2="-94.07" y1="-516.29999" y2="-606.21002"><stop offset="0" stop-color="#fff"/><stop offset="0" stop-color="#fcfcfc"/><stop offset=".07" stop-color="#eee"/><stop offset=".13" stop-color="#e5e5e5"/><stop offset=".25" stop-color="#e3e3e3"/><stop offset=".34" stop-color="#8a8a8a"/><stop offset=".44" stop-color="#b8b8b8"/><stop offset="1" stop-color="#3b3b3b"/></linearGradient><linearGradient id="h" gradientUnits="userSpaceOnUse" x1="70.419998" x2="119.55" y1="26.88002" y2="87.63002"><stop offset="0" stop-color="#eff0f0"/><stop offset=".59" stop-color="#f0f1f2"/><stop offset=".6" stop-color="#787878"/><stop offset=".65" stop-color="#eeeff0"/><stop offset="1" stop-color="#d8d9db"/></linearGradient><linearGradient id="i"><stop offset="0" stop-color="#fff"/><stop offset="1" stop-color="#e4e5e6"/></linearGradient><linearGradient id="j" gradientTransform="matrix(1 0 0 -1 192.4 -493.01)" gradientUnits="userSpaceOnUse" x1="-117.17" x2="-87.57" xlink:href="#i" y1="-513.97998" y2="-604.10999"/><linearGradient id="k" gradientUnits="userSpaceOnUse" x1="54.650002" x2="79.68" y1="25.27998" y2="106.39003"><stop offset="0" stop-color="#fff"/><stop offset=".75" stop-color="#f9f9f9"/><stop offset="1" stop-color="#d5d7d8"/></linearGradient><linearGradient id="l" gradientTransform="matrix(1 0 0 -1 192.4 -493.01)" gradientUnits="userSpaceOnUse" x1="-115.51" x2="-134.83" xlink:href="#i" y1="-517.29999" y2="-611.34003"/><linearGradient id="m" gradientUnits="userSpaceOnUse" x1="32.52" x2="37.25" y1="33.07997" y2="92.50001"><stop offset=".22" stop-color="#989a9c"/><stop offset=".25" stop-color="#fff"/></linearGradient><linearGradient id="n" gradientTransform="matrix(1 0 0 -1 192.4 -493.01)" gradientUnits="userSpaceOnUse" x1="-152.64" x2="-171.69" xlink:href="#i" y1="-509.35001" y2="-602.07001"/><linearGradient id="o" gradientTransform="matrix(1 0 0 -1 192.4 -493.01)" gradientUnits="userSpaceOnUse" x1="-130.14" x2="-130.14" xlink:href="#i" y1="-600.48999" y2="-600.52002"/><linearGradient id="p" gradientTransform="matrix(1 0 0 -1 192.4 -493.01)" gradientUnits="userSpaceOnUse" x1="-121.14" x2="-140.55" xlink:href="#i" y1="-515.78998" y2="-610.21997"/><linearGradient id="q" gradientTransform="matrix(1 0 0 -1 192.4 -493.01)" gradientUnits="userSpaceOnUse" x1="-135.59" x2="-155.00999" xlink:href="#i" y1="-512.76001" y2="-607.26001"/><linearGradient id="r" gradientTransform="matrix(1 0 0 -1 192.4 -493.01)" gradientUnits="userSpaceOnUse" x1="-127.4" x2="-146.88" xlink:href="#i" y1="-514.19" y2="-608.96997"/><linearGradient id="s" gradientTransform="matrix(1 0 0 -1 192.4 -493.01)" gradientUnits="userSpaceOnUse" x1="-118.49" x2="-138.85001" xlink:href="#i" y1="-512.10999" y2="-611.16998"/><linearGradient id="t" gradientTransform="matrix(1 0 0 -1 192.4 -493.01)" gradientUnits="userSpaceOnUse" x1="-115.38" x2="-134.78999" xlink:href="#i" y1="-516.98999" y2="-611.40997"/><linearGradient id="u" gradientTransform="matrix(1 0 0 -1 192.4 -493.01)" gradientUnits="userSpaceOnUse" x1="-168.86" x2="-168.67" y1="-575.71002" y2="-575.71002"><stop offset="0" stop-color="#808080"/><stop offset=".09" stop-color="#7a7a7a"/><stop offset=".36" stop-color="#6b6b6b"/><stop offset=".52" stop-color="#686868"/><stop offset=".64" stop-color="#5f5f5f"/><stop offset=".74" stop-color="#4e4e4e"/><stop offset=".84" stop-color="#383838"/><stop offset=".93" stop-color="#1b1b1b"/><stop offset="1"/></linearGradient><linearGradient id="v" gradientTransform="matrix(1 0 0 -1 192.4 -493.01)" gradientUnits="userSpaceOnUse" x1="-168.64" x2="-74.019997" y1="-570.95001" y2="-570.95001"><stop offset="0" stop-color="#808080"/><stop offset=".09" stop-color="#7a7a7a"/><stop offset=".38" stop-color="#828282"/><stop offset=".52" stop-color="#808080"/><stop offset=".57" stop-color="#797979"/><stop offset=".6" stop-color="#6e6e6e"/><stop offset=".61" stop-color="#6b6b6b"/><stop offset="1" stop-color="#4e4e4e"/></linearGradient><linearGradient id="w" gradientTransform="matrix(1 0 0 -1 192.4 -493.01)" gradientUnits="userSpaceOnUse" x1="-175.45" x2="-75.639999" y1="-552.51001" y2="-552.51001"><stop offset="0" stop-color="#555"/><stop offset="1" stop-color="#231f20"/></linearGradient><linearGradient id="x" gradientTransform="matrix(1 0 0 -1 192.4 -493.01)" gradientUnits="userSpaceOnUse" x1="-175.14" x2="-83.540001" y1="-532.03003" y2="-532.03003"><stop offset="0" stop-color="#a0a0a0"/><stop offset=".08" stop-color="#656767"/><stop offset="1" stop-color="#717375"/></linearGradient><linearGradient id="y"><stop offset="0" stop-color="#fff"/><stop offset=".08" stop-color="#f4f4f4"/><stop offset=".38" stop-color="#cecece"/><stop offset=".54" stop-color="#bfbfbf"/><stop offset=".84" stop-color="#7c7c7c"/><stop offset=".9" stop-color="#a8a8a8"/><stop offset=".91" stop-color="#9a9a9a"/><stop offset=".93" stop-color="#7d7d7d"/><stop offset=".96" stop-color="#686868"/><stop offset=".98" stop-color="#5b5b5b"/><stop offset="1" stop-color="#575757"/></linearGradient><linearGradient id="z" gradientTransform="matrix(1 0 0 -1 192.4 -493.01)" gradientUnits="userSpaceOnUse" x1="-175.72" x2="-67.169998" xlink:href="#y" y1="-557.65997" y2="-545.64001"/><linearGradient id="A" gradientTransform="matrix(1 0 0 -1 192.4 -493.01)" gradientUnits="userSpaceOnUse" x1="-176.14999" x2="-53.16" xlink:href="#y" y1="-557.63" y2="-544"/><linearGradient id="B" gradientUnits="userSpaceOnUse" x1="21.209999" x2="117.2" y1="71.32002" y2="51.95003"><stop offset="0" stop-color="#ededee"/><stop offset=".42" stop-color="#fff"/><stop offset=".63" stop-color="#f8f9f9"/><stop offset="1" stop-color="#bfc0c2"/></linearGradient><linearGradient id="C" gradientUnits="userSpaceOnUse" x1="23.469999" x2="27.959999" y1="30.73" y2="30.73"><stop offset="0" stop-color="#e2e3e4"/><stop offset=".51" stop-color="#fff"/></linearGradient><linearGradient id="D"><stop offset="0" stop-color="#ededee"/><stop offset=".42" stop-color="#fff"/><stop offset=".63" stop-color="#f8f9f9"/><stop offset=".95" stop-color="#b2b4b6"/></linearGradient><linearGradient id="E" gradientUnits="userSpaceOnUse" x1="24.200001" x2="118.24" xlink:href="#D" y1="82.58998" y2="60.21999"/><linearGradient id="F" gradientUnits="userSpaceOnUse" x1="26.66" x2="121.78" xlink:href="#D" y1="92.88002" y2="70.26002"/><linearGradient id="G" gradientUnits="userSpaceOnUse" x1="25.43" x2="120.55" xlink:href="#D" y1="87.74" y2="65.12001"/><linearGradient id="H" gradientUnits="userSpaceOnUse" x1="24.73" x2="119.81" xlink:href="#D" y1="84.8" y2="62.18001"/><linearGradient id="I" gradientUnits="userSpaceOnUse" x1="24.889999" x2="119.32" xlink:href="#D" y1="85.38002" y2="62.92"/><linearGradient id="J" gradientUnits="userSpaceOnUse" x1="26.110001" x2="121.18" xlink:href="#D" y1="90.37001" y2="67.76002"/><linearGradient id="K" gradientUnits="userSpaceOnUse" x1="22.57" x2="111.55" y1="49.71999" y2="29.20003"><stop offset="0" stop-color="#fff"/><stop offset=".65" stop-color="#fff"/><stop offset="1" stop-color="#cbccce"/></linearGradient><linearGradient id="L" gradientTransform="matrix(1 0 0 -1 192.4 -493.01)" gradientUnits="userSpaceOnUse" x1="-158.81" x2="-126.42" y1="-529.02002" y2="-529.02002"><stop offset="0" stop-color="#696969"/><stop offset=".37" stop-color="#2e2e2e"/><stop offset=".46" stop-color="#424242"/><stop offset=".6" stop-color="#303030"/><stop offset=".69" stop-color="#4a4a4a"/><stop offset="1" stop-color="#666"/></linearGradient><linearGradient id="M" gradientTransform="matrix(1 0 0 -1 192.4 -493.01)" gradientUnits="userSpaceOnUse" x1="-158.42" x2="-126.55" y1="-528.21002" y2="-528.21002"><stop offset="0" stop-color="#525252"/><stop offset=".19" stop-color="#333"/><stop offset=".35" stop-color="#aeaeae"/><stop offset=".42" stop-color="#adadad"/><stop offset=".43" stop-color="#9d9d9d"/><stop offset=".44" stop-color="#818181"/><stop offset=".46" stop-color="#6a6a6a"/><stop offset=".48" stop-color="#585858"/><stop offset=".51" stop-color="#4c4c4c"/><stop offset=".54" stop-color="#444"/><stop offset=".62" stop-color="#424242"/><stop offset=".67" stop-color="#454545"/><stop offset="1" stop-color="#bdbdbd"/></linearGradient><linearGradient id="N" gradientTransform="matrix(1 0 0 -1 192.4 -493.01)" gradientUnits="userSpaceOnUse" x1="-153.13" x2="-154.14999" y1="-538.47998" y2="-531.67999"><stop offset="0" stop-color="#969696"/><stop offset="1"/></linearGradient><linearGradient id="O" gradientUnits="userSpaceOnUse" x1="38.740002" x2="39.490002" y1="46.37001" y2="38.78999"><stop offset="0" stop-color="#333"/><stop offset=".43"/><stop offset="1" stop-color="#2e2e2e"/></linearGradient><radialGradient id="P" cx="-138.23" cy="-529.51001" gradientTransform="matrix(1 0 0 -1 192.4 -493.01)" gradientUnits="userSpaceOnUse" r="72.75"><stop offset="0" stop-opacity="0"/><stop offset=".8" stop-opacity=".08"/><stop offset="1" stop-opacity=".39"/></radialGradient><g transform="matrix(1.3722554 0 0 1.3722554 44.01927 -148.60669)"><path d="m18.76 118.89s-.37-.75-.49-.99c-.83-1.65-.82-1.74-1.66-1.85-.24-.03-.36-.06-.36-.18v-.52l.07-.05h4.91l.13.04v.52c0 .12-.08.18-.26.18l-.36.05c-.9.07-.75.44-.16 1.63l5.68 11.62.19.05 5.04-11.96c.17-.48.15-.82-.08-1.03-.23-.19-.39-.31-.97-.34l-.47-.02c-.06 0-.11-.02-.17-.06-.05-.04-.08-.09-.08-.14v-.5l.07-.05h5.69l.06.05v.5c0 .14-.08.2-.23.2-.75.03-1.3.19-1.66.48s-.64.69-.84 1.21c0 0-4.64 10.61-6.22 14.14-.61 1.16-1.2 1.05-1.73-.03-1.11-2.28-4.23-9.21-4.23-9.21l-1.9-3.73z"/><path d="m27.85 115.29s-3.2-.01-4.63 0l-.07.05v.5c0 .06.03.11.08.15s.11.06.17.06l.23.03c.58.02.85.18.93.27.14.17.21.35-.13 1.09l-5.98 11.93-.16-.04s-4.28-9.03-5.52-12.05c-.13-.31-.19-.54-.19-.69 0-.31.28-.47.83-.5l.65-.03c.17 0 .26-.07.26-.2v-.5l-.06-.05s-5.13 0-6.19 0l-.06.05v.52c0 .09.12.15.36.18.65.04 1.08.14 1.28.31.2.18.42.62.71 1.31 1.56 3.74 4.86 10.41 6.48 14.21.46 1.04 1.05 1.2 1.75-.03 1.23-2.27 4.55-9.22 4.55-9.22l2.62-4.9c.31-.52.6-.98.75-1.19.27-.39.43-.47 1.17-.5.15 0 .23-.07.23-.21v-.5z"/><path d="m37.59 130.77c0 .57.26.91 1.09.99l.55.05c.08 0 .16.05.16.15v.55l-.03.05s-1.98-.05-2.78-.05c-.73 0-2.76.05-2.76.05l-.05-.05v-.55c0-.1.08-.15.18-.15l.52-.05c.86-.08 1.12-.49 1.12-.99v-8.66c0-.57-.31-.73-1.12-.81l-.52-.05c-.1 0-.18-.02-.18-.1v-.6l.03-.05s2.05.05 2.86.05c.7 0 2.7-.05 2.7-.05l.03.05v.57c0 .08-.05.13-.16.13l-.55.05c-.81.08-1.09.29-1.09.81z"/><path d="m45.26 130.77c0 .57.34.86 1.09.99l.29.05c.08.02.16.05.16.15v.55l-.03.05s-1.64-.05-2.42-.05c-.73 0-2.86.05-2.86.05l-.05-.05v-.55c0-.1.08-.15.18-.15l.52-.05c.78-.08 1.12-.49 1.12-.99v-8.66c0-.57-.29-.73-1.12-.81l-.52-.05c-.1 0-.18-.02-.18-.1v-.6l.03-.05s2.13.05 2.94.05c.73 0 2.37-.05 2.37-.05l.03.05v.57c0 .08-.05.1-.16.13l-.29.05c-.81.15-1.09.29-1.09.81v3.93c.86 0 1.35-.44 2.5-1.66 1.04-1.15 1.85-2.1 1.85-2.6 0-.21-.23-.44-.75-.52-.1-.02-.16-.05-.16-.13v-.6l.03-.02s2.11.05 2.86.05c.68 0 1.82-.05 1.82-.05l.08.02v.6c0 .08-.08.13-.21.13-1.01.08-1.72.13-2.65 1.2l-2.24 2.57c-.44.47-.6.75-.6.96 0 .16.1.29.23.44l3.93 4.73c.31.36.94.52 1.46.62l.13.02c.08.02.18.08.18.15v.55l-.08.03s-1.38-.03-2.11-.03c-.65 0-1.59.03-1.59.03l-.03-.03v-.31c0-.34-.03-.62-.39-1.04l-2.89-3.59c-.39-.52-.81-.65-1.38-.65v3.85z"/><path d="m59.28 130.77c0 .57.26.91 1.09.99l.55.05c.08 0 .16.05.16.15v.55l-.03.05s-1.98-.05-2.78-.05c-.73 0-2.76.05-2.76.05l-.05-.05v-.55c0-.1.08-.15.18-.15l.52-.05c.86-.08 1.12-.49 1.12-.99v-8.66c0-.57-.31-.73-1.12-.81l-.52-.05c-.1 0-.18-.02-.18-.1v-.6l.03-.05s2.05.05 2.86.05c.7 0 2.7-.05 2.7-.05l.03.05v.57c0 .08-.05.13-.16.13l-.55.05c-.81.08-1.09.29-1.09.81z"/><path d="m64.9 122.16c0-.81-.34-.83-1.56-.91-.16 0-.18-.08-.18-.13v-.6l.05-.03c.39 0 1.92.05 2.68.05s1.77-.05 2.73-.05c3.69 0 4.37 1.82 4.37 3.17 0 1.56-.75 4-4.44 4-.65 0-1.17-.05-1.64-.26v3.48c0 .57.31.7 1.14.83l.52.08c.1.02.18.05.18.15v.55l-.02.05s-2.08-.05-2.89-.05c-.73 0-2.68.05-2.68.05l-.03-.05v-.55c0-.1.05-.13.16-.15l.55-.08c.81-.1 1.07-.34 1.07-.83v-8.73zm2 4.53c.52.21 1.17.23 1.69.23 1.56 0 2.31-.94 2.31-2.94 0-2.24-1.01-2.73-2.44-2.73-1.25 0-1.56.23-1.56.91v4.52z"/><path d="m77.46 132.51c-.78 0-2.57.05-2.57.05l-.03-.05v-.57c0-.05.03-.13.16-.13l.6-.05c.81-.08 1.04-.6 1.04-1.12v-8.58c0-.6-.31-.7-1.04-.75l-.6-.05c-.16-.02-.16-.08-.16-.1v-.6l.03-.05s2.03.05 2.81.05h3.82c.78 0 2.63-.05 2.63-.05l.05.05c.02 1.12.21 2.13.39 3.12l-.65.1c-.29-.96-.78-2.34-2.44-2.34h-2.08c-.49 0-.75.18-.75.62v3.77h1.95c.73 0 .91-.31 1.01-.83l.15-.55c0-.08.05-.13.16-.13h.44c.05 0 .05.03.05.08-.05.57-.16 1.3-.16 1.93s.1 1.2.16 1.79l-.05.05h-.44c-.13 0-.18-.05-.18-.13l-.13-.57c-.1-.52-.34-.81-1.02-.81h-1.95v3.98c0 .49.28.99.75.99h2.47c1.33 0 2.06-.83 2.37-2.19l.65.08-.52 2.99-.05.05s-1.53-.05-2.31-.05h-4.55z"/><path d="m87.24 131.81.6-.05c.78-.08 1.04-.31 1.04-1.12v-8.58c0-.68-.18-.68-1.04-.75l-.57-.05c-.1 0-.18-.05-.18-.13v-.57l.03-.05s2.29.05 2.76.05c.49 0 2.76-.05 3.43-.05 4.34 0 6.47 2.7 6.47 6.16 0 4.55-3.22 5.9-6.11 5.9-2.08 0-2.99-.05-3.79-.05s-2.76.05-2.76.05l-.03-.05v-.55c0-.07.05-.15.15-.15zm5.8 0c2.86 0 4.47-1.06 4.47-4.71 0-2.7-.6-5.85-4.97-5.85-1.01 0-1.66.16-1.66.81v8.58c0 .73.18 1.17 2.16 1.17z"/><path d="m105.91 130.77c0 .57.26.91 1.09.99l.55.05c.08 0 .16.05.16.15v.55l-.03.05s-1.98-.05-2.78-.05c-.73 0-2.76.05-2.76.05l-.05-.05v-.55c0-.1.08-.15.18-.15l.52-.05c.86-.08 1.12-.49 1.12-.99v-8.66c0-.57-.31-.73-1.12-.81l-.52-.05c-.1 0-.18-.02-.18-.1v-.6l.03-.05s2.05.05 2.86.05c.7 0 2.71-.05 2.71-.05l.02.05v.57c0 .08-.05.13-.16.13l-.55.05c-.81.08-1.09.29-1.09.81z"/><path d="m113.92 131.76.75.05c.1 0 .21.08.21.21v.49l-.05.05s-2.83-.05-3.46-.05c-.68 0-2.34.05-2.34.05l-.05-.05v-.49c0-.13.08-.21.21-.21 1.14-.08 1.79-.29 2.52-1.95l5.77-13.52c.29-.68.49-.94.89-.94.36 0 .49.26.7.78l5.33 14.09c.36 1.01.89 1.4 1.93 1.51l.29.02c.13 0 .26.08.26.21v.49l-.08.05s-2-.05-3.02-.05c-.91 0-3.46.05-3.46.05l-.02-.05v-.49c0-.13.05-.21.18-.21l.73-.05c.99-.08 1.35-.39 1.09-1.12l-1.59-4.4h-5.41c-.62 0-.78.1-.91.44l-1.51 3.77c-.26.65.08 1.23 1.04 1.31zm6.37-6.61-2.52-6.94h-.05l-2.6 6.6c-.1.26.08.34.65.34h4.53z"/></g><g transform="matrix(.46584338 0 0 .46584338 -7.686416 -7.090136)"><path d="m65.97 31.64c.01-.61-.39-1.27-.39-1.27l-.03-.06s-.49-.95-1.3-1.23-1.48.34-1.48.34-.11.13-.43.49c-.31.36-.51.67-1.2.94s-1.38.2-1.74.03c-.37-.17-.46-.54-.46-.54s-.23-.72-.31-1.05c-.09-.33-.31-1.69-.31-1.69s-.49-2.75-.53-3.3c0 0 1.47-.13 3.69-.77 2.3-.67 3.04-1.21 3.04-1.21s-.43-.16-.48-.66c-.05-.51-.09-1.19-.09-1.19s-.09-.5.48-1.14 1.35-.86 1.76-.95 1.28-.17 2.09-.13 1.27.11 1.59.29c.33.18.36.61.36.61v1.15s-.05.4.25.53c0 0 .5.31 2.2.13 0 0 .72-.13 1.85-.46 1.12-.33 4.13-1.23 4.55-1.34.43-.11.95-.29 1.65-.47.69-.18 2.04-.63 2.31-.73s1.81-.62 2.93-.81c1.11-.19 2.23-.19 2.81.15 0 0 .36.3.52.66s.48.86.92 1.09c.46.23.75.37 1.88.27 0 0 .02-.1-.39-.37-.42-.28-.99-.7-.99-.7s-.33-.25-.41-.45c-.07-.2-.04-.31-.04-.31l.88-1.41s0-.17.51-.24 1.07-.13 1.74-.31.79-.31.79-.31l.58.18s3.55 2.85 4.65 3.58l.2-.24s.43.02.83.17c.39.15.98.56.98.56s1.61 1.31 2.07 2.2l.22.68-.1.16s.92 1.31 2.1 2.6c0 0 1.23 1.66 1.69 2.09 0 0-.11-.4-.2-.85l.34-.23.2-.14.62.26c3.57 4.81 6.43 10.42 8.14 16.33l-.12.48.39.5c1.13 4.21 1.73 8.64 1.73 13.21 0 1.12-.04 2.24-.11 3.34l-.3.51.22.56c-2.23 26.1-24.12 46.58-50.8 46.58-18.5 0-34.7-9.85-43.64-24.6l-.1-.36-.2-.15c-3.39-5.74-5.68-12.21-6.59-19.1l.21-.53-.34-.48c-.21-1.89-.32-3.81-.32-5.76 0-2.99.25-5.91.75-8.76l.25-.56-.09-.33c1.16-6.05 3.38-11.72 6.47-16.8l.68-.38.08.03s.23-.17.35-.22l.08-.02s1.18-1.97 1.62-2.6c0 0 .54-.35.75-.41 0 0 .12-.02.19.08 0 0 .5-.43 1.7-2.05 0 0 0-.01.01-.02 0 0-.11-.08-.13-.17-.02-.1.11-.59.17-.72.07-.13.11-.16.11-.16s1.72-2.03 3.15-3.24c0 0 .26-.2.68-.25 0 0 1.47-.61 3.26-2.18 0 0 .05-.29.48-.86s1.46-1.16 2.22-1.34c.76-.17.9-.04.9-.04l.06.06.51.77s.56-.32 1.41-.6c.85-.29.98-.26.98-.26l.82 1.34-.99 2s-.64 1.42-1.65 2.18c0 0-.47.28-1.12.13s-1.07.33-1.07.33l-.17.14s.14-.02.35-.1c0 0 .16.07.27.22.11.16.91 1.17.91 1.17s0 .84-.42 1.94-1.47 2.89-1.47 2.89-.73 1.42-1.08 2.25-.51 1.77-.49 2.26c0 0 .19.06.71-.2.65-.33 1.08.03 1.08.03s.72.53 1.04.88c.26.29.8 1.76.21 3.22 0 0-.4 1.01-1.38 1.72 0 0-.22.33-1.53.17-.37-.04-.58-.28-1.37-.2-.78.08-1.23.81-1.23.81v-.02c-.68 1-1.14 2.46-1.14 2.46l-.06.17s-.24.51-.29 1.75c-.05 1.28.28 3.11.28 3.11s7.88-1.39 9.88-.06l.58.53s.05.17-.03.38c-.08.2-.38.67-.99 1.11s-1.22 1.58-.31 2.3c1.03.82 1.69.77 3.43.47s2.9-1.27 2.9-1.27.97-.72.78-1.63-1.02-1.19-1.02-1.19-.66-.42-.14-1.24c0 0 .14-.69 2.55-1.32s6.81-1.52 10.56-1.99c0 0-2.54-8.22-.74-9.29 0 0 .44-.3 1.22-.41l.72-.04c.13-.03.34 0 .8.04.45.04 1 .08 1.68-.44s.7-.82.7-.82" fill="url(#a)"/><path d="m98.57 93.95.45.17c-.03.06-.07.12-.1.18-.87 1.57-.94 1.93-1.36 2.25-.43.33-.58.54-1.44.69-.86.16-1.77 1.18-1.77 1.18s-.88.83-.48.87c.4.03 1.18-.61 1.18-.61s.5-.35.62-.25-.54.75-.54.75-1.16 1.18-2.48 1.98l-.4.21s1.87-1.39 2.76-2.39c0 0 .18-.27-.18.06-.37.33-1.33.82-1.74.82s.01-.56.01-.56.6-.77 1.81-1.76c1.22-.99 2.24-.92 2.24-.92s.23.04.25-.27c.03-.31.31-.86.31-.86s.45-1.03 1.67-2.75c1.22-1.71 1.77-2.2 1.77-2.2s1.59-1.63 2.42-3.26c0 0 .58-1.01-.37-.25-.95.75-2.21 1.7-3.44 2.01s-1.35-.84-1.35-.84-.27-1.88 1.05-3.34c1.19-1.32 2.49-1.27 3.68-1.42 1.19-.14 2.21-1.57 2.21-1.57s.82-.92 1.29-3.8c.22-1.33.07-2.24-.14-2.82l.02-.65-.37-.02c-.08-.11-.14-.15-.14-.15s-.3-.3-.61-.52c-.31-.23-.69-.65-1.06-1.46 0 0-1.02-2.11-.79-5.16s2.76-2.76 2.76-2.76 1.47.14 1.76-.3c.28-.44.55-.99.65-2.22s-.4-2.41-.4-2.41-.18-.61-1.05-.71c-.86-.1-1.05.17-1.05.17s-.25.07-.72 1.09-.75 1.49-1.6 1.7-2.02.1-2.55-.99c-.51-1.07-1.76-3.69-2.35-5.77l.08-.74-.32-.47c-.06-.4-.12-.85-.13-1.24-.03-.99-.31-2.1-.64-3.2-.33-1.11-1.46-2.97-1.67-3.4-.33-.67-.62-.95-1.02-.89s-.34.06-.51.06-.27.21-.31.42-.38 1.31-1.1 1.81c-.75.51-1.15.74-2.44.85 0 0-1.49.1-2.66-2.1-1.18-2.2-.88-3.6-.78-4.11s.54-1.25 1.23-1.39 1.12-.18 1.12-.18 1.12 0 1.6-.07c.55-.07.28-1.01.28-1.01s-.36-2.37-2.35-4.32l-.09-.49-.76-.38c-1.88-2.04-4.35-5.35-4.35-5.35s-1.1-1.05-.17-2.49c0 0 .44-.96 1.74-.79.42.08.46.12.82.2.48.1 1.01.23 1.48-.4 0 0 .44-.79-.27-1.81s-.92-1.74-1.79-1.69c0 0-.4-.06-.79.38-.4.44-1.42.72-2.01.78-.68.07-2.25-.53-3.16-2.08-.51-.87-.75-1.35-.87-1.59l.23-.34.72.08c.18.36.55 1.06.98 1.81.55.98 1.05 1.12 1.37 1.26s1.05-.07 1.43-.28.76-.69 1.43-.74c.67-.04 1.63.07 2.31.79s1.53 2.22 1.46 2.93-.11 1.4-1.04 1.7c-.92.3-1.3.04-1.88-.08-.58-.13-.86-.07-1.1.21s-.51.89-.41 1.16.18.45.75 1.26 3.47 4.25 4.03 4.77l-.15.7.96.18c.62.72 1.36 1.67 1.69 2.26.5.91.75 2.34.78 3 .03.67-.3.96-.3.96s-.31.52-2.01.52c-1.52 0-1.61.3-1.61.3s-.47.47-.37 1.62.62 2.34 1.56 3.37c.78.85 2.25 0 2.75-.29.51-.3.82-1.26.82-1.26s.1-1.22 1.43-1.22 1.97 1.32 1.97 1.32.96 1.29 1.94 4.12c.48 1.39.57 2.28.57 2.28l.13 1.67-.51.89.73.31c.13.54.35 1.24.68 2.04 0 0 1.01 2.38 1.44 3.29.44.91.89.77 1.26.81 0 0 .85.11 1.16-.28.31-.4.61-1.09.61-1.09s.66-1.81 2.14-1.66c1.47.16 1.84 1.09 2.1 2.17.26 1.07.31 3.23-.48 4.54-.8 1.32-1.69 1.14-1.69 1.14s-1.81-.17-2.23.21c-.41.38-.62.72-.68 1.61s.03 2.34.75 4.08c.63 1.52 1.15 1.36 1.43 1.73.29.37 1.19 1.21 1.1 3.27-.08 2.07-.79 4.15-1.59 5.44-.79 1.29-2 2.05-2 2.05s-.34.21-1.08.31-1.79.08-2.54.51-.99 1.5-1.06 1.97-.11 1.53.92 1.41c1.03-.11 2.58-1.4 2.58-1.4s1.49-1.1 1.68-.75c.2.35-.64 1.79-.64 1.79s-1.03 1.56-1.9 2.52c-.71.79-1.64 1.87-2.43 3.1l-.84.47z" fill="url(#b)" opacity=".69"/><path d="m39.56 37.37s-.01.02-.02.03c0 0 .01-.02.02-.03z" fill="url(#d)"/><path d="m54.31 104.35h.16c-.16-.14-.37-.27-.62-.4-.7-.37-3.73-2.38-4.67-3.01s-2.58-1.7-3.3-1.48c-.55.17-.47.39-.8.56-.33.16-.69.05-1.5-.39-.82-.43-1.42-.72-3.02-2.24-1.24-1.19 1.6-.12 1.6-.12s.62.26.34-.39-1.68-2.33-2.99-3.69c-1.07-1.1-1.67-1.86-2.44-2.97l-.57-.66v-.17s-.03-.05-.04-.08c0 0-1.87-3.38-1.68-4.62 0 0 .07-.83 1.24-1.19.82-.25.71.54 3.11.98 0 0 2.07.56 2.61-.95.54-1.5-.57-3.39-.57-3.39s-1.45-2.66-3.24-2.76c-.95-.05-.69.58-2.12.93 0 0-1.91.18-2.52-.96-.73-1.39-1.04-2.97-1.01-4.02.02-1 .05-1.08.12-1.37.04-.21.19-.58.25-1.13l-.13-.67.2-.5c0-.26 0-.54-.02-.83-.09-1.66-.21-4.22-.44-5.71-.22-1.49-.63-3.8-1.99-3.87 0 0-.67-.05-1.63.88-.88.86-1.68-.71-1.73-1.66-.05-1.12.13-2.25.41-2.8.28-.54 1.04-.57 1.19-.56s.56.17 1.04.47c.49.31 1.16.31 1.56-.09.4-.39.95-.86 1.17-2.6s.22-3.55.01-5.71l-.22-.48 1.34-.29s-.02-.13-.03-.19 0-.04 0-.05c0-.02 0-.04 0-.06 0-.02 0-.04 0-.06s0-.05-.01-.07c0-.02 0-.04 0-.07 0 0 0 0 0-.02s0-.05 0-.07c0 0 0 0 0-.01 0-.03 0-.05-.01-.08s0-.06-.01-.08c0 0 0 0 0-.02 0-.03 0-.05 0-.08 0 0 0-.01 0-.02 0-.03 0-.05-.01-.08 0 0 0-.01 0-.02 0-.03 0-.06 0-.09 0 0 0 0 0-.01 0-.03 0-.06 0-.08 0 0 0-.01 0-.02 0-.03 0-.06 0-.09 0 0 0-.01 0-.02 0-.03 0-.06-.01-.09 0 0 0-.01 0-.02 0-.03 0-.06 0-.09 0 0 0-.01 0-.02 0-.03 0-.06 0-.09s0-.08 0-.11c0 0 0-.01 0-.02 0-.03 0-.06 0-.1 0 0 0-.01 0-.02 0-.03 0-.07 0-.1 0 0 0-.01 0-.02 0-.03 0-.07 0-.1 0-.03 0-.07 0-.1 0 0 0-.01 0-.02 0-.03 0-.07 0-.1 0 0 0-.01 0-.02 0-.03 0-.06 0-.1 0 0 0-.01 0-.02 0-.03 0-.07 0-.1s0-.08 0-.11 0-.08 0-.11v-.11s0-.01 0-.02c0-.03 0-.06 0-.1s0-.08 0-.11c.05-1.24.29-1.75.29-1.75l.06-.16s.46-1.46 1.15-2.46v.02s.43-.74 1.22-.81c.78-.08 1 .16 1.37.2.04 0 .08 0 .12.01h.04.08.04.06.04.06.04.06.04.13.03.05.03.04.03.04.02.04.02.04.01.05s.07-.01.1-.02.03 0 .04-.01h.03.03.02.02.02.02.01.01.01q0 0 0 0c.33-.24.59-.52.8-.78.01-.02.03-.03.04-.05 0 0 0 0 0-.01.01-.01.03-.03.04-.05 0 0 0 0 0-.01.01-.02.03-.03.04-.05q0 0 0 0c.04-.05.08-.11.11-.16 0-.02.02-.03.03-.04 0 0 0 0 0-.01s.02-.03.02-.04c0 0 0 0 0-.01s.02-.03.02-.04.03-.06.05-.08c0 0 0 0 0-.01 0 0 0-.02.02-.03 0 0 0-.01.01-.02 0 0 0-.02.01-.02 0 0 0-.02.01-.02 0 0 0-.02.01-.02 0 0 0-.01.01-.02 0 0 0-.01 0-.02.07-.13.1-.21.1-.21.59-1.46.05-2.94-.21-3.22-.32-.35-1.04-.88-1.04-.88s-.43-.36-1.08-.03c-.52.26-.71.2-.71.2-.02-.5.15-1.43.49-2.26s1.08-2.25 1.08-2.25 1.05-1.79 1.47-2.89.42-1.94.42-1.94-.79-1.02-.91-1.18-.27-.22-.27-.22c-.21.08-.35.1-.35.1l.17-.14s.42-.49 1.07-.33 1.12-.13 1.12-.13c1.01-.76 1.65-2.19 1.65-2.19l.99-2-.83-1.34s-.13-.03-.98.26c0 0-.77 1.91-1.72 3.09 0 0-.37.55-.66.42s-.63-.14-.91-.08-1.16.35-1.95 1.41-.88 1.86-.46 2.1 1.04-.08 1.42-.41.64-.49.76-.47.09.32.07.41c-.03.09-.15 1.36-1.62 3.91-.37.64-.85 1.59-1.07 2.05l.61.45-1 .5c-.27.76-.6 1.94-.47 2.61.2 1.01 1.16 1.01 1.16 1.01s.62.03 1.34-.35.89 1.24.89 1.51 0 1.73-1.02 2.44c0 0-.41.31-.99.31s-.95-.17-.95-.17-.98-.27-1.59.08c-.6.36-1.33 1.1-1.9 2.17s-1.05 2.99-1.02 4.4c.02 1.11.18 2.16.29 2.88l.67.44-.54.62c.08 1.14.17 3.36.16 4.11-.02.91-.15 2.84-1.11 3.29 0 0-.32.17-.87-.24s-1.13-.43-1.37-.44c-.24 0-1.28.16-1.69 1.31s-.38 2.69-.29 3.6.88 2.46 1.87 2.46c0 0 .48.03 1.06-.55.57-.59.9-.64 1.16-.63.25 0 .75.27 1.07 2.85.31 2.44.44 4.44.41 6.67l.6.39-.76.77c-.04.2-.09.42-.14.63-.17.68-.19 1.36-.02 2.57.16 1.21.81 3.72 1.75 4.38 1.25.87 2.07.86 2.92.79.84-.07 1.42-.71 1.42-.71s.33-.34.69-.24 1.35.66 2.06 2.08.87 2.99-.32 3.27c-1.19.27-3.23-.85-3.23-.85s-1.16-.65-2.11.07c-.95.71-.98 1.81-.5 3.15.26.74.78 1.94 1.51 3.19l.72.3-.19.55c.49.75 1.06 1.48 1.68 2.11 0 0 2.47 2.73 3.84 4.46 0 0 .08.16-.16.02-.24-.15-1.27-.62-1.82-.57-.56.05-.45.4-.45.4s.24 1.25 4.01 3.36c0 0 1.36.76 2.22.76 0 0 .28.04.62-.34.35-.38.45-.34.69-.26s.55.25 1.74 1.11 3.5 2.18 4.33 2.73c.83.56.79.66.62 1.05-.17.4.59.62.59.62s1.9.86 2.93.85c1.03-.02 1.46-.12 2.1.01.63.13 1.28.29 1.35.35.07.05-.31.04-.31.04s-2.36-.28-2.49-.21.01.18.99.43c1.24.22 2.51.39 3.78.52-.49-.06-2.52-.32-3.82-.71 0 0-.13-.08.17-.01.3.06 2.02.22 2.47.16.45-.07-.09-.28-.09-.28s-.9-.42-2.89-.58c0 0-.8-.05-1.5.01-.7.07-1.41-.26-1.41-.26s-1.03-.32-.78-.65c.13-.17.14-.34.06-.5l-.45-.36z" fill="url(#e)" opacity=".45"/><path d="m78.46 100.8-.44.65c.1.65-.1.88-.25 1.12-.16.26-.59.59-.38 1.18s1.68.4 2.53.14 1.57-.49 2.13-.69.72.09.72.09.25.17-.57.61c-.82.43-2.34.63-3.06.72s-.51-.04-1.59.33c-1.08.38-.07.71-.07.71 2.43.64 4.19.11 4.19.11l.33-.1c.27-.08.53-.16.8-.24-2.02.46-3.33.15-3.74.1-.43-.06-.78-.14-.88-.36s.48-.2.48-.2 1.68-.19 3.24-.69c1.56-.51 1.93-.98 1.87-1.34s-.85-.33-1.79-.03c-.94.31-2.33.75-2.66.82s-.69.06-.81-.14c-.11-.2-.22-.53.15-.91.36-.38.4-.69.4-.69.06-.25.06-.52.02-.8l-.64-.37.55-.12c-.3-1.12-1.05-2.22-1.28-2.58-.32-.51-.84-.79-2.39-.54-1.56.26-3.39 1.04-3.39 1.04s-1.89 1-3.3.81-1.7-1.61-1.69-2.06.3-.83 1.04-1.12 2.46-.68 4.99-.81c2.52-.13 3.46-1.77 3.46-1.77.33-.48.92-1.54-.49-2.34-1.41-.79-1.44-.59-2.12-1.11s-1.41-1.15-1.7-2.03c-.03-.08-.07-.2-.11-.29l-.85-.56.41-.37c-.34-.67-.69-1.27-.69-1.27s-1.28-1.9-.25-3.7c1.04-1.8 2.74-2.35 2.74-2.35s1.5-.33 3 .02c1.42.32 2.13-.22 2.13-.22s.87-.37 1.12-2.1c.26-1.73-.01-4.94-2.32-5.58-2.31-.63-3.53.56-3.53.56s-1.24 1.37-1.64 1.57-1.02.56-1.02.56-.87.52-1.45.65c-.39.09-1.79-1.77-1.93-3.2-.13-1.32-.4-2.39-.31-5.1l-.49-.63.54-.53c.1-3-.42-5.12-1.19-6.46-.81-1.41-2.12-2.16-2.77-2.48s-2.15-.46-3.17-.09-1.24.68-1.61 1.33c-.38.65-.84.6-.84.6s-1.43.04-1.89-2.13c-.65-3.05.36-4.03.36-4.03s.32-.48 1.37-.62 1.73.12 2.54.31c.81.2 1.41.12 2.42-.37s1.44-1.3 1.24-2.74c-.19-1.39-.26-1.74-1.48-5.96l-.88-.46.58-.58c-1.19-4.28-1.26-6.96-1.26-6.96-.11-.98.05-1.29.6-1.54.58-.26 1.12-.17 1.93-.12.82.05 1.43-.08 1.85-.32s1.58-.87 1.5-2.16-1.11-2.82-1.95-3.35-1.95-.32-2.56.13-.85 1.03-1.21 1.21c-.37.18-.9.6-1.45.47s-.58-1.37-.82-2.77c-.15-.91-.27-1.61-.34-1.99l-.68-.25c.04.56.53 3.3.53 3.3s.22 1.36.31 1.69.31 1.05.31 1.05.09.36.46.53 1.05.24 1.74-.03.89-.57 1.2-.94c.31-.36.43-.49.43-.49s.66-.62 1.48-.34c.81.28 1.3 1.23 1.3 1.23l.03.06s.4.66.39 1.27v-.06s-.02.3-.7.82-1.23.48-1.68.44-.67-.07-.8-.04l-.72.04c-.79.11-1.22.41-1.22.41-1.8 1.06.74 9.29.74 9.29l-.28.61s.51 2.05.9 3.38.56 2.64.62 2.91.04.76-.32 1.05-1.24.53-1.42.56c-.19.03-.53-.04-1-.2-.46-.16-.92-.19-.92-.19s-1.11-.19-2.29.17-2.08 1.57-2.15 3.08-.06 2.28.53 3.62 1.66 2.1 2.46 2.12c.81.01 1.47-.4 1.93-1.05s.59-.75.59-.75c.55-.3 1.94-.43 2.65-.17s2.01 1.07 2.72 2.68c.58 1.3.76 2.75.73 5.36l.58.45-.61.7c0 .25-.02.5-.03.76-.14 3.88.72 5.86.72 5.86.49 1.07 1.02 1.83 1.75 2.32.72.49 1.7.16 2.02 0s1.19-.56 1.94-1.04.72-.68 1.63-1.51 2.08-.6 2.08-.6 1.11.03 1.74 1.31c.64 1.28.51 3.11.35 3.77s-.45 1.1-1.07.98c-.62-.11-1.64-.22-2.02-.23s-1.43-.05-2.39.2c-.94.24-2.21.92-3.41 2.88-.94 1.52-.48 3.01-.26 3.6.17.46.63 1.1 1.04 1.9l.76.25-.35.66c.4.96.7 1.49 1.3 2.15.65.71 1.67 1.25 2.88 1.71s.66 1.28.66 1.28c-.69 1.5-2.75 1.56-3.36 1.63-.6.07-1.87.19-3.06.45-1.18.26-2.29.42-2.96 1.18-.66.76-.4 1.56-.01 2.39s1.43 1.28 2.85 1.22c1.43-.06 2.35-.47 3.21-.85s2.36-.81 2.81-.94 1.05-.39 1.5.26c.48.7 1 1.7 1.23 2.45l.56-.12z" fill="url(#f)" opacity=".35"/><path d="m117.69 65.8s.35-3.24.46-4.39c.02-.17.03-.34.04-.51l-.1-.24c-.46 5.81-.94 7.73-.94 7.73s.01-.04.03-.1c.19-.82.36-1.65.51-2.48z" fill="#232323" opacity=".1"/><path d="m107.39 27.22.33.41.28.5c1.02 1.65 2.84 4.3 2.84 4.3s.74.96.91.97c.16 0-.08-.74-.08-.74s-.27-.98.52.3c.73 1.19 1.21 2.36 1.32 2.72s.04.41.04.41-.14.07-.14.33c0 .51.49 1.66.49 1.66s1.54 3.93 2.07 5.56c.53 1.64 1.13 4.37 1.13 4.37s.18.8.21 1.17c.02.37-.06.38-.23.19-.16-.2-.33-.07-.33-.07s-.18.07-.18.77.09 2.35.22 3.62c.15 1.51.62 2.13.62 2.13s.41.62.53-.58c.1-1.03.19-.23.19-.23.19 1.56.06 4.54.03 4.96-.02.22-.03.43-.05.64l.13-.22c.2-2.97.06-5.36.06-5.36s-.14-1.32-.3-1.31c-.15 0-.21.7-.21.7s-.06.47-.15.46-.37.02-.57-1.41c-.2-1.44-.16-2.95-.16-2.95s-.04-.15.04-.19c.09-.03.19.1.19.1s.13.19.29.03c.16-.15.19-.62-.3-3.08-.29-1.45-.71-2.9-1.01-3.83l-.29-.33-.06-.72s-.31-.91-1.03-2.74c-.72-1.82-.85-2.46-.85-2.46s-.04-.2.07-.23.09-.18.09-.18-.01-.24-.28-.99-.43-1.28-1.36-2.86c-.87-1.47-1.12-1.56-1.12-1.56s-.43-.23-.11.59c.31.82-.08.23-.08.23-.92-1.18-2.84-4.29-2.84-4.29l-.54-.37-.51-1.26h-.02" fill="#232323" opacity=".1"/><path d="m17.67 47.34-.18.37c-.47 2.49-.62 5.14-.62 5.31.01.21-.04.21-.08.18s.03-.16-.05-.16-.11.21-.11.21c-.02.28-.04.57-.05.86h.02c.07-.1.1-.03.1-.03s-.03.13.1.06.21-1.38.21-1.38.01-2.81.84-6.14c.82-3.33 1.28-4.26 1.28-4.26s.15-.42.14-.08c-.01.33.2.36.2.36.38-.05.82-1.12 1.27-2.49.44-1.36.67-2.59.67-2.7s-.06-.19-.15-.14c-.1.06-.12.01-.12.01-.01-.21.36-1.13.36-1.13 1.25-3.2 3.1-5.69 3.1-5.69l.09-.5c-.16.25-.27.42-.42.66-.06.09-.04.3 0 .32-.2.19-.36.35-.48.46-2.71 4.47-3.06 6.56-3.06 6.56-.02.21 0 .31.11.31.07 0 .25-.35.12.35-.09.47-.52 1.71-.69 2.21-.17.51-.36.85-.5.83-.14-.03-.14-.23-.14-.23s-.04-.55-.4.24-.71 1.86-1.42 4.65c-.03.12-.06.25-.09.38l-.03.62z" fill="#232323" opacity=".1"/><path d="m20.96 77.27c-.15-.4-.26-.72-.18-.58s.2.43.46.72.44-.22-.62-3.1-1.35-3.04-1.4-3.1-.22-.24-.17.17c.05.4.02.66-.51-1.15s-1-4.84-1.02-5.09c-.03-.25-.17-1.78-.4-3.59s-.25-3.74-.21-4.28-.07-.83-.12-.84c-.06 0-.09.05-.13.28s-.01.4-.07.38c-.06 0-.08-.47-.08-.47v.15.52l.04.4c.03.6.13.35.14.25 0-.11.03-.33.03-.33s.1-.88.08.02.24 4.56.24 4.56c.02.24.04.48.07.73l.06.09-.04.1c.26 2.42.8 5.09.8 5.09.51 2.42 1.11 3.85 1.31 4.25s.24.08.17-.27c-.07-.36.55.69.87 1.68.33.99.56 1.82.56 1.82s.25.78.14.83-.29-.29-.29-.29-.47-.83-.27-.23c.4 1.23 1.6 3.82 1.6 3.82l1.4 2.47c-1-1.81-2.3-4.64-2.44-5.02z" fill="#232323" opacity=".1"/><path d="m23.4 82.28c.07.13.14.25.2.36z" fill="#232323" opacity=".1"/><path d="m36.84 17.51c-.21.34-.24.51-.24.51s.11-.12.18-.24.06-.28.06-.28z" fill="#232323" opacity=".1"/><path d="m33.34 20.21c-.42.05-.68.25-.68.25s.35-.06.68-.25z" fill="#232323" opacity=".1"/><path d="m100.13 19.55s.25-.03.35.02.07-.16.07-.16-.29-.41-.32-.56c-.32-.09-.61-.1-.61-.1l-.03.03c-.01.08-.04.19-.01.3 0 0 .47.36.56.46z" fill="#232323" opacity=".1"/><path d="m103.61 22.52.1-.15-.22-.68s-.01-.02-.02-.04c0 .07-.05.12-.17.11 0 0-.1-.03-.01.2.06.14.2.37.33.55z" fill="#232323" opacity=".1"/><path d="m117.69 65.8s.35-3.24.46-4.39c.02-.17.03-.34.04-.51l-.1-.24c-.46 5.81-.94 7.73-.94 7.73s.01-.04.03-.1c.19-.82.36-1.65.51-2.48z" fill="#232323" opacity=".1"/><path d="m95.12 99.17s.67-.65.54-.75-.62.26-.62.26-.07.06-.19.14l.39-.25s-.04.24-.36.56c0 0-.09.09-.26.25-.96.94-2.39 2-2.39 2l.4-.21c1.32-.81 2.48-1.98 2.48-1.98z" fill="url(#g)" opacity=".5"/><path d="m99.11 54.35.51-.89-.13-1.67s-.08-.89-.57-2.28c-.98-2.83-1.94-4.12-1.94-4.12s-.59-1.32-1.97-1.32-1.43 1.22-1.43 1.22-.31.96-.82 1.26c-.5.29-1.97 1.15-2.75.3-.94-1.03-1.46-2.22-1.56-3.37s.37-1.62.37-1.62.1-.3 1.61-.3c1.7 0 2.01-.53 2.01-.53s.32-.3.3-.96c-.03-.67-.28-2.1-.78-3-.32-.6-1.06-1.54-1.68-2.26l-.97-.18.15-.7c-.56-.51-3.46-3.96-4.03-4.77s-.65-.99-.75-1.26.17-.88.41-1.16.52-.34 1.1-.21.96.38 1.89.08c.92-.3.96-.99 1.03-1.7s-.78-2.21-1.46-2.93-1.64-.84-2.31-.79c-.66.04-1.05.52-1.43.74-.38.21-1.1.42-1.43.28s-.82-.28-1.38-1.26c-.43-.76-.79-1.46-.98-1.82l-.72-.08s.63 1.67 1.63 2.82c1 1.16 2.27.92 2.27.92s.82-.09 1.53-.77 1.76-.15 2.03.04.85.91 1.48 2.13c.62 1.22-.36 2.06-.36 2.06s-.56.53-1.69.09c-1.14-.44-1.81.26-1.99.61-.18.36-.51.99.08 1.73.58.74 3.18 4.27 4.92 5.95s2.31 3.05 2.68 4.34c.36 1.3.08 1.9-.52 2.02s-1.15.02-2.09.19-1.35.37-1.54 1.65c-.2 1.29.56 3.37 1.67 4.36s2.33.39 2.76.23 1.35-.65 1.68-2.03c.19-.78.85-.72.85-.72s.56-.07.85.12.63.53 1.4 1.87c.77 1.35 1.46 3.15 1.72 4.74s.07 1.82.32 2.95c.26 1.13 1.08 3.24 1.47 4.07.38.83.78 1.66.99 2.11.21.44.53.78 1.44.8s1.28-.23 1.54-.66c.27-.44.61-1.09.71-1.32s.47-.91 1.15-1.02 1.76 0 2.11 1.2c.31 1.07.76 2.62-.16 4.5-.65 1.33-1.13.86-2.45.95 0 0-1.17-.01-1.78.92s-.42 2.61-.29 3.88.99 3.11 1.62 3.56c.63.44.86.85 1.08 1.26.22.4.53 1.21.22 3.31-.31 2.11-.98 3.74-1.87 4.52-.02.02-.05.04-.07.06-.07.07-.14.13-.22.2-.54.52-.37.54-.89.79-.59.29-.99.21-1.96.36-.97.16-1.58.33-2.09.82-.5.5-1.24 1.41-.98 3.19.15.99 1.32.58 2.23.11-.28.12-.55.22-.8.25-1.03.11-.99-.95-.92-1.42s.31-1.54 1.06-1.97 1.8-.41 2.54-.51 1.08-.31 1.08-.31 1.21-.76 2-2.05 1.5-3.37 1.59-5.44c.08-2.07-.82-2.9-1.1-3.27-.29-.37-.8-.2-1.43-1.73-.72-1.74-.81-3.19-.75-4.08s.27-1.23.68-1.61 2.22-.21 2.22-.21.89.18 1.69-1.13c.79-1.32.74-3.47.48-4.55-.25-1.08-.62-2.01-2.1-2.17-1.47-.15-2.14 1.66-2.14 1.66s-.3.69-.61 1.09-1.16.28-1.16.28c-.37-.04-.82.1-1.26-.81s-1.44-3.29-1.44-3.29c-.34-.81-.55-1.51-.69-2.06l-.73-.3z" fill="url(#h)" opacity=".73"/><path d="m98.61 93.95.8-.48c.79-1.23 1.72-2.31 2.43-3.1.86-.96 1.9-2.52 1.9-2.52s.84-1.43.64-1.79c-.13-.23-.7.02-1.69.75-3.67 2.75-3.97 1.25-3.97 1.25.42 2.44 4.73-1.63 5.11-1.38-.06.56-.46 1.17-1.25 2.25 0 0-.39.56-.78.95-.37.43-.58.64-.58.64l-.12.12c-.47.54-1.02 1.24-1.59 2.02-.02.02-.1.11-.12.14-.29.42-.49.73-.7 1.06-.01.02-.06.01-.07.03 0 0-.01.01-.03.04-.24.39-.37.71-.51.96-.01.03-.02.07-.03.09 0 0-.32.67-.46 1.07-.14.41-.12.55-.62.62-.5.08-.28-.05-1.02.2 0 0-.4.2-.94.57-.03.02-.06.04-.08.06-.74.6-1.25 1.12-1.53 1.43-.05.06-.1.13-.15.2 0 0-.16.17.05.19s.63-.01 1.01-.17l.09-.06c-.19.1-.37.17-.51.16-.4-.03.48-.87.48-.87s.91-1.02 1.77-1.17c.86-.16 1.02-.37 1.44-.69.43-.33.5-.68 1.36-2.25.03-.06.06-.11.1-.17l-.41-.17z" fill="url(#j)" opacity=".53"/><path d="m71.19 87.33.41-.38c-.34-.67-.69-1.27-.69-1.27s-1.28-1.9-.24-3.7 2.74-2.35 2.74-2.35 1.5-.33 3 .02c1.42.32 2.13-.22 2.13-.22s.87-.38 1.12-2.1c.26-1.73-.01-4.94-2.32-5.58-2.31-.63-3.53.56-3.53.56s-1.24 1.37-1.64 1.57-1.02.56-1.02.56-.87.52-1.45.65c-.39.09-1.79-1.77-1.93-3.2-.13-1.32-.4-2.39-.31-5.08v-.02l-.49-.63.54-.53c.1-3-.42-5.12-1.19-6.46-.81-1.41-2.12-2.16-2.77-2.48s-2.15-.46-3.17-.09c-1.02.38-1.24.68-1.61 1.33-.38.65-.83.61-.83.61s-1.43.04-1.89-2.13c-.64-3.05.36-4.04.36-4.04s.32-.47 1.37-.62c1.05-.14 1.73.12 2.54.32s1.41.11 2.42-.37c1.01-.49 1.44-1.3 1.24-2.74-.2-1.4-.25-1.73-1.48-5.97l-.87-.46.58-.58c-1.18-4.27-1.26-6.96-1.26-6.96-.1-.97.05-1.29.6-1.54.58-.26 1.12-.18 1.93-.12.82.05 1.43-.08 1.85-.32s1.58-.87 1.5-2.16-1.11-2.82-1.95-3.35-1.95-.32-2.56.13-.84 1.03-1.21 1.21-.9.61-1.45.47c-.55-.13-.58-1.37-.82-2.77-.15-.92-.28-1.61-.34-1.99l-.67-.25c.04.56.53 3.3.53 3.3l.29 1.62v.02s0 .04.01.05c.02.08.05.18.08.29.11.22.37.46.94.5 1.08.09 1.77-.47 2.03-.71.25-.24.86-.91.86-.91s.33-.63 1.25-.49 1.24.77 1.4 1.01c.17.24 1.57 1.96.67 2.86-.04.04-.09.09-.15.15-.1.11-.25.25-.45.4-.68.52-1.23.48-1.68.44s-.67-.07-.79-.04l-.72.04c-.79.11-1.22.41-1.22.41-1.8 1.06.74 9.29.74 9.29s.67 2.03.97 2.98.5 1.62.79 3.26-.23 2.09-.53 2.25c-.29.16-.98.57-1.77.6-.78.03-1.03-.37-2.37-.43-1.35-.06-2.25.35-2.66.91-.42.56-.91 1.86-.67 3.4s.5 2.06 1.09 2.75c.59.68 1.17.97 1.98.7.79-.27.76-.76 1.17-1.16.52-.52.85-.79 2.06-.82s1.98.29 2.59.78c.62.5 1.93 1.65 2.29 3.36s.42 2.27.42 3.67-.1 2.98-.06 4.38.19 2.84.58 3.79c.39.96.93 1.75 1.4 2.18s.9.44 1.37.25 1.51-.77 2.37-1.32c.86-.56.8-.99 1.58-1.5.88-.58 1.8-.61 2.46-.49.66.11 1.68.63 2.09 1.89.42 1.26.36 2.68.36 2.68s.04 1.18-.44 1.88c-.48.69-1.27.61-1.62.54s-1.09-.14-1.09-.14-1.45-.17-2.56.09-2.08 1.09-2.73 1.9-.94 1.57-.98 2.16.03 1.6.64 2.57c.61.98.71 1.43 1.41 2.83s2.15 2.17 2.2 2.21 1.39.53 1.89.95c.5.43.56.83.41 1.21-.14.38-.44 1.09-1.6 1.6-1.17.51-2.59.52-3.5.62-.9.09-2.65.33-3.7.83-1.04.5-.97 1.45-.97 1.45s-.03 1.56 1.34 1.99c1.36.43 2.64 0 3.2-.24s1.49-.58 1.49-.58 1.79-.63 2.75-.85 1.53-.32 2.19.83c.65 1.16 1.01 1.89 1.08 2.62.06.74-.21 1.15-.46 1.43s-.21.46-.21.46c-.11.87 1.18.76 1.18.76s.04 0 .11-.02c-.26.02-.5-.02-.59-.18-.12-.2-.22-.53.14-.91.36-.37.4-.69.4-.69.3-1.44-1.04-3.37-1.35-3.88-.32-.5-.84-.79-2.39-.53-1.56.26-3.39 1.04-3.39 1.04s-1.89 1-3.3.81-1.7-1.61-1.69-2.06c.02-.44.3-.84 1.04-1.12.73-.29 2.46-.68 4.98-.81s3.46-1.77 3.46-1.77c.33-.48.92-1.54-.49-2.34-1.41-.79-1.44-.59-2.12-1.11s-1.41-1.15-1.7-2.03c-.03-.08-.07-.2-.11-.29l-.84-.56z" fill="url(#k)" opacity=".96"/><path d="m108.12 28c1.02 1.65 2.84 4.3 2.84 4.3s.25.33.5.6c.01-.39-.05-.58-.06-.63l-.09-.27c-.02-.37.44.09.61.29-.5-.75-.66-.81-.66-.81s-.42-.23-.11.59-.07.23-.07.23c-.92-1.18-2.84-4.29-2.84-4.29l-.55-.38.42.38z" fill="#232323" opacity=".1"/><path d="m117.66 65.99c.01-.06.02-.13.03-.19s0-.03.01-.09c-.01.1-.03.19-.04.28z" fill="#232323" opacity=".1"/><path d="m116.94 50.32c.09-.03.19.1.19.1s.13.19.29.03c.11-.1.15-.35.02-1.26 0 .23-.05.41-.14.59-.14.3-.32.02-.44-.08-.13-.1-.17.07-.17.07v.16c0 .7.08 2.35.21 3.62.06.6.17 1.07.29 1.41l.04.08c.09.15.19.34.31.26.12-.09.28-.58.28-.58l.13-.59c.19.11.29.53.34.96 0-.04 0-.06 0-.06s-.14-1.32-.3-1.31c-.15 0-.21.7-.21.7s-.07.47-.16.46-.37.02-.57-1.41c-.2-1.44-.16-2.95-.16-2.95s-.04-.16.04-.19z" fill="#232323" opacity=".1"/><path d="m115.82 43.21.3.34c.48 1.49 1 3.84 1.09 4.26-.03-.14-.06-.29-.09-.44-.29-1.45-.71-2.9-1.01-3.83l-.3-.33-.05-.7v-.02s-.31-.91-1.03-2.74c-.73-1.82-.85-2.46-.85-2.46s-.04-.2.07-.23.09-.18.09-.18-.01-.24-.28-.99c-.18-.5-.31-.91-.66-1.61.28.58.46 1.05.53 1.26l.03.07s.1.15.07.55-.15.45-.15.45l.02.14c.14.54.42 1.19.42 1.19s1.07 2.71 1.75 4.54l.06.72z" fill="#232323" opacity=".1"/><path d="m59.08 106.18c.94.18 1.72.36 1.89.4-.33-.11-.95-.28-1.89-.4z" fill="url(#l)"/><path d="m36.5 89.56v-.16s-.04-.08-.04-.08-1.87-3.38-1.68-4.61c0 0 .07-.83 1.24-1.19.82-.25.71.54 3.11.97 0 0 2.07.56 2.61-.95.54-1.5-.57-3.39-.57-3.39s-1.45-2.66-3.24-2.75c-.95-.06-.69.58-2.12.92 0 0-1.91.18-2.52-.96-.73-1.39-1.01-2.97-1.01-4.02s.04-1 .13-1.4c.04-.22.19-.55.25-1.09l-.13-.68.2-.5c0-.26 0-.54-.02-.83-.09-1.66-.21-4.22-.44-5.71-.22-1.49-.63-3.8-1.99-3.87 0 0-.67-.05-1.64.88-.88.86-1.68-.71-1.73-1.66-.05-1.12.13-2.26.41-2.8s1.04-.57 1.19-.55c.15.01.56.17 1.04.47.49.3 1.16.3 1.56-.09.4-.4.95-.86 1.17-2.6s.22-3.55.01-5.71l-.22-.49 1.34-.29s-.02-.12-.03-.19c0-.02 0-.03 0-.05s0-.04 0-.06q0 0 0 0s0-.04 0-.06 0-.05-.01-.07c0-.02 0-.04 0-.07 0 0 0 0 0-.01 0-.02 0-.05 0-.07 0 0 0 0 0-.01 0-.03 0-.05-.01-.08s0-.06-.01-.08c0 0 0-.01 0-.02 0-.02 0-.05 0-.08 0 0 0-.01 0-.02 0-.03 0-.05 0-.08 0 0 0-.01 0-.02 0-.03 0-.06 0-.09 0 0 0 0 0-.01 0-.03 0-.06 0-.08 0 0 0-.01 0-.02 0-.03 0-.06 0-.09 0 0 0-.01 0-.02 0-.03 0-.06-.01-.09 0 0 0-.01 0-.02 0-.03 0-.06 0-.09 0 0 0-.01 0-.02 0-.03 0-.06 0-.09 0-.03 0-.07 0-.1 0 0 0-.01 0-.02 0-.03 0-.06 0-.1 0 0 0-.01 0-.02 0-.03 0-.07 0-.1 0 0 0-.01 0-.02 0-.03 0-.07 0-.1 0-.03 0-.07 0-.1v-.02s0-.07 0-.1c0 0 0-.01 0-.02 0-.03 0-.07 0-.1v-.02s0-.07 0-.1 0-.08 0-.11 0-.08 0-.11v-.13s0-.06 0-.1c0 0 0 0 0-.01 0-.03 0-.07 0-.1.05-1.24.29-1.75.29-1.75l.06-.17s.46-1.46 1.15-2.46v.02s.43-.74 1.22-.82c.78-.08 1 .16 1.37.2.04 0 .08 0 .12.01h.04.07.04.06.04.06.04.06.04.05.03.05.03.05.03.04.03.04.02.04.02.04.01.05s.07-.01.1-.02h.04.03.03.02.02.02.01.01.01q0 0 0 0h.01c.33-.24.59-.52.8-.78.01-.02.03-.03.04-.05 0 0 0 0 0-.01.01-.02.03-.03.04-.05.01-.02.03-.03.04-.05.04-.06.08-.11.11-.16 0-.01.02-.03.03-.04 0-.02.02-.03.02-.04 0 0 0 0 0-.01s.02-.03.02-.04c.02-.03.03-.06.05-.08 0 0 0 0 0-.01 0 0 0-.02.02-.03 0 0 0-.01.01-.02 0 0 0-.02.01-.02v-.02s0-.02.01-.02c0 0 0-.01.01-.02 0 0 0-.01 0-.02.07-.13.1-.21.1-.21.59-1.46.05-2.94-.21-3.22-.32-.35-1.04-.88-1.04-.88s-.29-.24-.75-.14c.35-.05.79.09.97.56.28.73.38 1.33.21 2.33 0 0-.26 1.39-1.38 2.23-1.12.85-1.92.1-2.88.13s-1.52.7-1.81 1.16-1.42 2.2-1.32 5.07.29 4.3.33 5.56c.03 1.21.18 3.98-.64 5.28s-1.63.65-2.2.31-1.22-.24-1.74.13c-.52.38-.83 1.12-.85 3.32-.02 2.36 1.53 2.61 1.53 2.61s.29.15.94-.54c0 0 .65-.69 1.25-.6.6.08 1 .72 1.25 1.81.26 1.09.8 5.62.72 8.67-.03 1.27-.62 1.29-.36 3.62 0 0 .41 3.13 1.4 4.09s2.38.78 2.71.75c.32-.03.7-.26.7-.26s.31-.2.54-.37c.23-.18.52-.43 1.01-.28s1.65.89 2.56 2.57c.92 1.68.5 3.32-.26 3.52-.67.18-.85.23-1.97-.05s-1.45-.57-1.96-.77c-.5-.2-1.04-.26-1.55.11s-1.35 1.06-.34 3.32c.96 2.17 1.69 3.8 3.52 5.62-.52-.61-.96-1.19-1.43-1.87l-.57-.67z" fill="url(#m)"/><path d="m38.62 22.03-.05.02s.02-.01.05-.02z" fill="url(#n)"/><path d="m62.15 107.49c.13.01.26.03.39.04-.11-.01-.31-.04-.56-.07.06.01.11.02.17.03z" fill="url(#o)"/><path d="m40.21 20.13c-.65.36-.7-.02-1.14.02-.44.03-1.03.21-1.6 1.04s-.59 1.89.33 1.42c0 0 .44-.43.81-.58.08-.04.24-.13.41-.17l.14-.12s.42-.49 1.07-.33 1.12-.13 1.12-.13c1.01-.76 1.65-2.18 1.65-2.18l.99-2-.83-1.34s-.7 1.49-1.38 2.53c-.68 1.05-.63 1.33-1.58 1.84z" fill="#9fa2a3"/><path d="m35.99 30.93s-.42 1.89 1.16 1.6h.02c-.06 0-.09 0-.09 0-.03-.5.15-1.43.49-2.26s1.08-2.25 1.08-2.25 1.05-1.79 1.47-2.89.42-1.94.42-1.94-.8-1.02-.92-1.18-.27-.22-.27-.22c-.05.02-.1.04-.15.05.12 0 .22.02.28.11.21.31-.39 2.04-.39 2.04s-.52 1.24-1.55 3.03-1.55 3.93-1.55 3.93z" fill="#9fa2a3"/><path d="m54.31 104.34.17.02c-.13-.12-.31-.24-.5-.35.18.11.49.36.31.67-.24.42-.05.46.49.86 0 0 .02.01.06.03-.16-.11-.25-.23-.16-.36.12-.17.14-.33.06-.5l-.44-.37z" fill="url(#p)"/><path d="m40.56 97.39c-1.24-1.19 1.6-.12 1.6-.12s.62.26.34-.39c-.25-.57-1.37-1.96-2.54-3.22l.14.16s2.35 2.72 2.18 2.96c-.16.25-1.11-.32-1.11-.32s-1.4-.54-1.21.13c.14.49 1.06 1.27 1.54 1.65-.27-.23-.58-.51-.94-.85z" fill="url(#q)"/><path d="m43.1 99.37c.42.25.9.51 1.37.68 0 0 .83.29 1.34-.11.5-.4.5-.6 1.24-.24 0 0 1.39.7 2.38 1.44.98.74 3.56 2.34 4.4 2.79-.76-.42-3.71-2.36-4.63-2.99-.94-.63-2.57-1.7-3.3-1.48-.55.17-.47.4-.8.56s-.69.06-1.5-.38c-.17-.09-.32-.17-.48-.26z" fill="url(#r)"/><path d="m56.03 106.09c.37.1.67.06.79.04-.68.04-1.35-.27-1.35-.27s-.07-.02-.17-.06c.24.11.51.23.73.29z" fill="url(#s)"/><path d="m60.42 106.81s-1.34-.16-1.94-.16c0 0-.04.06.23.16-.02-.02-.03-.05.19 0 .3.07 2.02.22 2.47.16.45-.07-.09-.28-.09-.28s-.09-.04-.27-.1c-.32.26-.58.23-.58.23z" fill="url(#t)"/><path d="m20.78 76.69c.08.14.2.43.46.72.15.16.27.07.16-.53-.25-.18-.41-.32-.46-.37-.11-.01-.26-.3-.26-.3s-.47-.83-.27-.23c.4 1.23 1.6 3.82 1.6 3.82l1.4 2.47c-1-1.8-2.3-4.63-2.44-5.01-.15-.4-.26-.72-.18-.58z" fill="#232323" opacity=".1"/><path d="m17.67 47.34.03-.64c.03-.12.06-.24.09-.36.71-2.79 1.07-3.86 1.42-4.65.36-.79.4-.24.4-.24s0 .21.14.23.32-.32.49-.83c.17-.5.6-1.74.69-2.21.14-.7-.05-.36-.11-.35-.11 0-.13-.09-.11-.31 0 0 .38-2.12 3.06-6.56.18-.17.32-.31.47-.45-.06-.05-.03-.26 0-.32.14-.21.27-.43.42-.66l-.09.5s-1.85 2.49-3.1 5.69c0 0-.34.83-.36 1.09-.02.15-.1.74.15.58l.07-.05c-.09.48-.3 1.37-.61 2.33-.29.88-.57 1.63-.84 2.08-.08.06-.1-.02-.15-.21-.05-.2-.11-.2-.11-.2-.18 0-.32.2-.41.36-.04.06-.09.19-.09.19s-.46.93-1.28 4.26-.84 6.14-.84 6.14-.08 1.31-.21 1.38-.1-.06-.1-.06-.05-.05-.11.04c0 0 .02-.76.04-.88 0 0 .04-.21.12-.21s0 .12.05.16c.04.03.08.03.08-.18 0-.18.15-2.82.62-5.31l.18-.37z" fill="#232323" opacity=".1"/><path d="m16.51 56.63s.02.21.04.35c.08.37.19.37.19.37 0-.1.09-.27.18-.46v.38c-.04.54-.02 2.47.21 4.28s.37 3.35.39 3.59c.03.25.5 3.28 1.02 5.09.28.97.42 1.35.48 1.43v.05s.1.18.36.32c0 0 .11-.1.11-.41.02.03.04.07.06.11-.08.26-.1.43-.1.43s-.06-.03-.05.04c.07.36.03.68-.17.27-.2-.4-.8-1.83-1.31-4.25 0 0-.53-2.66-.8-5.08l.04-.1-.06-.09c-.03-.25-.05-.49-.07-.73 0 0-.25-3.66-.24-4.56.02-.9-.08-.02-.08-.02s-.02.22-.03.33c0 .11-.1.35-.14-.25.02.26-.04-.8-.04-1.07z" fill="#232323" opacity=".1"/><path d="m40.79 16.61-.53-.75-.07-.06s-.13-.14-.9.04l-.11.02s.38-.09.17.19-.56.5-1.17 1.15c-.61.66-.41.8 0 .67.4-.14 1.19-.5 2.61-1.24h.01z" fill="#232323" opacity=".1"/><path d="m39.23 15.85h-.04z" fill="#232323" opacity=".1"/><path d="m39.76 16.45c.31-.27.43-.48.45-.64h-.01s-.13-.15-.9.02l-.08.02c.09-.02.3-.03.13.2-.21.28-.56.5-1.17 1.15-.61.66-.41.8 0 .67.11-.04.24-.09.4-.16.14-.31.59-.74 1.18-1.26z" fill="#232323" opacity=".1"/><path d="m99.61 18.76-.2.24s.14.08.21.14c0 0 .01.01.02.01-.04-.03-.07-.06-.07-.06-.02-.11 0-.22.01-.3l.03-.03s.05 0 .14.01h-.14z" fill="#232323" opacity=".1"/><path d="m78.68 104.96s1.69-.19 3.24-.69c1.56-.5 1.93-.98 1.87-1.34-.04-.24-.4-.31-.91-.24.27-.02.51.03.35.33-.31.58-.86.78-.86.78s-.27.19-.89.37c-.81.25-1.79.38-2.33.44-.69.08-.52-.03-1.46.29-.02.02-.04.03-.07.04-.29.24 1.07.51 1.07.51s1.3.36 3.26.23l.07-.02c.27-.08.54-.16.8-.25-2.02.46-3.32.15-3.74.1-.43-.06-.78-.14-.88-.36s.47-.2.47-.2z" fill="#fff" opacity=".53"/><path d="m79.42 19.06.72.08c1.43-.41 2.65-.78 2.65-.78s1.26-.41 1.9-.64 1.09-.31 1.66-.41 1.31-.14 1.71-.13c.4 0 .53.12.53.12s.17.13.25.27.74 1.89 2.97 2.01c2.23.11 2.26-1.1 2.07-1.46-.23-.43-.9-.86-.9-.86s-.9-.58-1.09-.85.04-.36.11-.38 2.43-.5 2.73-.61l.02-.02-.56-.17s-.12.13-.79.31-1.24.25-1.74.31-.51.24-.51.24l-.88 1.41s-.03.1.04.31c.07.2.41.45.41.45s.57.42.99.7c.42.27.39.37.39.37-1.12.09-1.42-.05-1.88-.28-.44-.22-.76-.73-.92-1.09s-.52-.66-.52-.66c-.59-.34-1.69-.34-2.81-.15s-2.66.71-2.92.81c-.27.1-1.62.55-2.31.73s-1.22.36-1.65.47-3.43 1-4.56 1.34c-1.12.33-1.85.46-1.85.46-1.69.17-2.19-.13-2.19-.13-.3-.12-.26-.53-.26-.53v-1.15s-.02-.43-.35-.61-.78-.25-1.59-.29-1.68.04-2.09.13-1.19.31-1.76.95-.48 1.14-.48 1.14.03.68.09 1.19c.05.5.48.66.48.66s-.74.53-3.04 1.21c-2.21.65-3.68.77-3.68.77l.68.25s5.47-1.01 7.15-2.62c0 0 .62-.29.02-.88-.61-.58-.9-.76-.9-.76s-.41-.22.02-.77.92-.8 1.35-.93 1.75-.25 2.93-.09c0 0 .49.04.46.41-.04.37-.09.87-.08 1.03 0 .16.03.51.4.84.38.33 1.1.45 1.1.45s1.26.23 2.84-.22c1.59-.44 3.64-1.14 5.43-1.63l.23-.34z" fill="#232323" opacity=".1"/><path d="m64.58 21.27c.31.21.48.22.5.42.06.34-.56.64-.56.64s-.43-.17-.48-.67-.09-1.19-.09-1.19 0 .2.05.26c.13.17.22.29.59.54z" fill="#616161"/><path d="m98.57 93.95.45.17c1.1-.62 1.5-.81 1.76-.96 1.18-.7 2.59-1.56 2.96-1.86 0 0 .76-.52.11.19-.64.71-.97 1.01-.97 1.01s-.62.63-.47.78c0 0 .17.25 1.19-.69 1.03-.93 2.15-2.26 2.28-2.44.13-.19.15-.29.15-.29s.11-.21.27-.39c.14-.15 1.38-1.5 1.99-2.12.27-.36.54-.73.81-1.1-.36.38-1.72 1.83-2.48 2.68 0 0-.71.76-.94 1.06-.22.29-.22.47-.22.47s-.12.2-.39.52-1.24 1.19-1.24 1.19-.58.47-.75.48c-.18.01.43-.54.43-.54s.59-.62.97-1.12.14-.47.14-.47-.18-.05-.99.46-1.37.86-1.37.86-1.72.99-2.81 1.62c-1.09.64-3.6 1.91-5.02 2.49-1.43.59-2.16.71-2.03.53.12-.19.46-.46.46-.46s.4-.4.4-.8c0 0 .13-.58-1.6-.22s-3.29 1.21-3.29 1.21-2.57 1.18-1.96 1.89c0 0 .11.19.63.35.52.17-.92.61-.92.61-1.37.45-2.42.65-3.74.93-1.96.4-3.57.76-4.17.89-.17.04-.25.06-.25.06s-1.21.29-3.23 1.07-5.97 1.43-5.97 1.43-2.54.29-2.78.63c-.23.33.18.5.18.5s.36.22 1.67.28c0 0 .45 0 .47.04s.05.07-.24.16-.85.31-2.78.56c-1.94.25-1.9-.07-1.9-.07s0-.08.08-.22c.09-.13 0-.37-.29-.54 0 0-.42-.27-1.83-.26-1.41 0-4.21.02-6.83-.14-2.37-.14-5.59-.55-6.1-.66 0 0-.12-.03-.21-.12s-.65-.42-1.16-.73c-.52-.31-2.07-.91-2.07-.91s-2.01-.78-1.94-.52c.01.06.13.15.27.25.35.19.7.38 1.06.56s-.74-.41-.54-.41.44.11.44.11 1.21.33 1.97.68c.75.35 1.41.83 1.41.83s.93.55 2.32.73c1.35.18 3.17.39 3.78.45l.59-.27.43.35c1.11.07 2.58.15 2.58.15s2.98.11 4.6-.02c.73-.06.51.32.51.32s-.21.35.21.53c0 0 .77.44 3.34.16 2.57-.29 3.14-.86 3.14-.86s.3-.28-.35-.4c-.51-.1-.51-.05-1.18-.12s-1-.21-.56-.32 1.17-.18 1.17-.18 2.25-.31 4.07-.78c0 0 1.94-.46 3.86-1.14.76-.26 1.4-.46 1.89-.6l.44-.64.64.37c.07-.01.1-.02.1-.02s2.31-.54 3.27-.7c.97-.17 3.15-.64 4.09-1.09.93-.45 1.4-.81 1.5-1.08.11-.27-.39-.43-.39-.43s-.59-.14-.51-.34c.08-.21.29-.38 1.21-.79s2.07-.86 3.23-1.14c1.15-.28.73.19.73.19s-.69.71-.78.98.03.29.12.33c.09.05.65.03 1.02-.07.38-.1 3.46-1.27 5.34-2.35.05-.03.09-.05.14-.08l.39-.65z" fill="#fff" opacity=".17"/><path d="m23.55 82.65.18.13c-.1-.1-.17-.16-.17-.16s0 0-.02 0c0 0 .01.01.01.02z" fill="url(#u)" opacity=".68"/><path d="m106.53 74.6-.37-.02c-1.81 1.46-2.34 1.94-3.78 2.96 0 0-1.64 1.23-3.44 2.2s-3.92.85-3.92.85-.57-.06-.3-.48c.28-.42.63-1.43.77-1.94s.42-1.82-.63-2.24-3.02.2-3.02.2-4.53 1.21-6.37 3.23c-1.79 1.97-.29 2.85-.29 2.85s.71.49 1.39.73c.64.23.51.43.35.55 0 0-2.02 1.29-4.41 1.97 0 0-3.27 1-6.44 1.21-3.16.2-4.5.28-4.5.28l-.4.38-.76-.25c-1.28.15-3.45.46-5.59.98-2.62.64-5.12 1.15-6.9 2.3 0 0-1.33.89-.57 1.75s1.56 1.23 1.56 1.23.47.21.46.33c0 .17-.01.31-.37.51 0 0-1.39.82-4.11.86-2.71.04-3.91.02-4.71-.7-.66-.59.17-1.84.17-1.84s.33-.61 0-1.45-2.22-.85-2.22-.85l-2.62-.13c-3.1-.08-7.18-.43-9-.65 0 0-.01 0-.03 0v.17s-.73-.3-.73-.3c-1.14-.22-3.24-.67-4.08-1.08-.76-.38-1.17-.31-1.07-1.1.1-.77-.75-1.83-.75-1.83s-1.19-1.29-2.26-2.09-1.52-.56-1.52-.56-.48.26-.05 1.3c.44 1.04.86 1.4.86 1.4s.21.22.09.28-.48-.22-.79-.48c-.25-.21-1.89-1.74-2.46-2.28l.1.36s.03.06.05.09c.18.29.85 1.27 2.16 2.28 1.55 1.21 1.56.73 1.56.73s.06-.4-.3-.84-.93-1.37-.79-1.71.31-.31.31-.31.13-.05.6.3c.46.35 1.5 1.08 2.01 1.7s.48 1.18.48 1.18-.1.56.45 1.17c.55.6 1.73 1.71 5.86 2.35.03 0 .03 0 .06.01l.19-.55.57.66c3.6.52 5.56.56 5.56.56s4.71.16 5.98.16 1.03.67 1.03.67-.07.36-.22.65-.52 1.36-.14 1.94c0 0 .58 1.43 4.38 1.53 0 0 3.32.27 5.64-.69 2.32-.95.23-2.28.23-2.28s-.79-.48-1.13-.74c-.31-.24-.18-.48-.12-.65.06-.16.3-.36.56-.49.27-.13 1.24-.65 5.36-1.72s6.59-1.18 6.59-1.18h.06l.34-.65.85.56c.73-.06 1.68-.13 2.53-.17 1.69-.08 4.34-.47 5.88-.81s3.87-1.06 5.59-1.95 1.81-1.52 1.81-1.52.33-.47-.39-1c-.72-.52-1.04-.38-1.67-1.03-.64-.65.56-1.62.56-1.62s.61-.86 4.02-2.17 3.98-.87 4.15-.73c.18.14.2.61.12.93-.07.32-.49 1.46-.72 2.05s-.32 1.41.61 1.6c.92.19 2.21 0 3.43-.44 2.89-1.03 3.76-2.29 8.53-5.76.01 0 .02-.02.03-.02l.02-.65.69.11c1.98-1.57 3.87-3.57 3.87-3.57s1.26-1.26 1.89-2.36c.6-1.03.03.89.03.89s-.32 1.52.19 2.08c.41.44 1.56-.79 1.56-.79s.69-.79.96-2.06c.41-1.88.19-2.25.19-2.25s-.25-.39-.09-.85 1.16-3.05 1.98-4.01l.5-.56s0-.02 0-.03l-.22-.56.3-.51s-.28.32-1.4 2.18c-1.27 2.09-1.47 3.77-1.47 3.77s-.12.65-.05 1.04c.06.36.19.52.19.62s-.07.96-.51 1.77c-.44.82-.82 1.03-.82 1.03s-.76.55-.86.16-.07-.72-.04-.97c.04-.25.29-1.58.25-2.07s-.48-.1-.48-.1-.1.12-.3.37c-.19.25-1.29 1.64-1.71 2.12-.99 1.16-1.89 1.99-4.29 3.93 0 0-.01.01-.02.01l-.36.61z" fill="url(#v)" opacity=".43"/><path d="m17.32 63.18.1.97c.24.29.58.68 1.07 1.18 1.08 1.12 1.43.42 1.43.42s.25-.71-.05-1.99c-.31-1.28-.25-2.04.33-2.03.58.02 2.26.36 2.78 1.75 0 0 .22.65.02 1.48s-.16 1.57-.02 2.29c.15.72.76 1.41 1.46 1.97.71.56 2.75 1.54 4.73 1.66 1.99.13 2.6.02 2.6.02l.75-.76.13.67c.81-.09 2.12-.23 3.62-.39 2.53-.27 4.23-.54 5.8-.31 1.57.24 2.08 1.46 2.08 1.46s.11.31-.25.54c-.35.22-.75.55-.95.89-.2.35-.41 1.07.16 2.04.57.96 2.14 1.59 3.48 1.43 1.33-.16 3.33-.67 4.52-.98 1.29-.34 2.42-.97 2.57-1.98s-1.53-2.29-1.53-2.29-.81-.61-.91-.75.1-.2.1-.2.95-.23 1.36-.41c.4-.19 1.52-.64 3.35-1.22 1.83-.57 5.61-1.25 5.61-1.25s2.08-.33 4.68-.54l.62-.7.49.62c.41-.02.83-.04 1.24-.06 3.57-.13 5.34-.55 7.24-.98s4.57-1.98 4.96-2.28c.4-.29 1.23-.66 1.4-1.96.17-1.29-1.36-2.16-1.36-2.16s-1.22-.64-1.47-.93c-.26-.29-.02-.56-.02-.56s.69-1.49 2.9-2.35c2.2-.87 3.69-1.11 4.62-1.21s1.25.24 1.37.4c.13.16.13.49.02.82-.1.31-.44 1.04-.64 1.4s-.52 1.22-.32 1.62c.21.4.84.59 1.66.44s2.99-.76 4.89-1.55 5.07-2.35 5.07-2.35 0 0 .02-.01l.09-.73.73.29c1.02-.56 2.76-1.58 4.01-2.63 1.87-1.57 3.7-3.22 4.17-3.64.46-.42.89-.75 1.31-.73.41.02.73.32.99 1.43.26 1.12.31 2.04.43 2.58s.29 1.17.93 1.3 1.51-.43 1.84-.71.92-1.18.88-2.38c0 0 .07-1.6-.76-3.13 0 0-.35-.61-.48-.78-.09-.12-.16-.24-.01-.53s.47-.82 1.06-1.16c.45-.26.88-.32 1.13-.4 0 0 .28-.07.62-.26l-.12-.41.29.32c.41-.24.65.04.65.04l-.39-.5.12-.48s-.31-.16-.69-.09c-.38.08-.42.36-1.01.46s-1.28.31-1.94 1.32c-.67 1.01 0 2.27 0 2.27s.36.59.53.9 1.07 2.22.04 3.61c0 0-.55.64-1.53.86-.86.19-.64-.82-.73-1.35 0 0-.13-2.28-1.24-3.59-.97-1.15-2.75.89-3.63 1.57-.82.63-3.23 3.11-6.68 4.92l-.51.89-.32-.47c-1.66.83-5.42 2.66-7.87 3.51 0 0-1.88.76-2.64.78 0 0-.17 0-.04-.18.13-.19.28-.32.51-.74s.65-1.36.65-2.33-1.12-1.92-2.68-1.75-3.05.6-4.85 1.29c-1.79.69-3.34 2.16-3.55 3.38s1.11 1.92 1.11 1.92 1.48.75 1.67 1.16.05.78.05.78-.13.41-.78.78c-.65.38-2.42 1.29-2.42 1.29s-2.21 1.22-5.56 1.51c0 0-3.06.26-4.82.35-.02 0-.05 0-.07 0l-.54.53-.59-.45c-1.64.14-3.54.36-3.54.36s-4.29.61-8.22 1.82c-3.34 1.03-3.97 1.59-3.97 1.59s-.71.6-.12 1.45c0 0 .34.54 1.03 1.08s1.24 1.06 1.16 1.32-.29.38-.29.38-.96.86-4.89 1.52c0 0-2.53.49-3.31-.28s-.44-1.28-.44-1.28.05-.17.62-.53c0 0 .95-.6.65-1.73-.3-1.14-2.13-2.54-4.1-2.53 0 0-2.3 0-8.2.76 0 0 0 0-.03 0l-.2.5-.6-.39c-.32.04-.71.08-1.11.11-1.01.07-2.48-.06-4.3-.6s-2.96-1.54-3.13-2.13c-.11-.41.03-1 .03-1s.34-1.32.13-2.4c-.22-1.08-.58-1.93-1.63-2.57-1.05-.63-1.64-.52-1.64-.52s-.94-.14-.9 1.45.24 2.26.24 2.26.18.56-.11.63-.74-.36-.74-.36-1.02-.92-1.62-1.69l.05.07-.21.53s.07.12.27.38l.1-.74z" fill="url(#w)" opacity=".31"/><path d="m107.2 26.38.18.85s-.56.31-1.68.61c-1.11.3-2.19.8-2.19.8s-.89.29-.55 1.01c.34.73.84 1.08.84 1.08s.71.69.74 1.21c.02.53-.2.77-.76 1.08s-1.07.38-1.07.38-1.34.24-2-.39-.79-1.66-.79-1.66-.05-.88-1.15-1.25-2.45.42-2.45.42-1.06.56-2.2 1.3-3.29 1.64-4.64 2.11l-.15.7-.76-.38c-1.42.49-3.27 1.11-3.27 1.11s-2.51.93-4.16 1.15-2.02-.01-2.24-.24c-.23-.22.04-1.01.04-1.01s.68-1.38.35-2.09-2.45-.9-2.49-.9-2.32-.26-4.45.93c-1.89 1.06-2.14 1.64-2.14 1.64s-.6.94.11 1.87c.81 1.05 1.88 1.15 1.88 1.15s1.02.08 1.26.38.08.63.08.63-.34.92-2.23 1.31c0 0-3.18.93-9.11 1.78l-.58.58c-3.74.47-8.14 1.36-10.56 1.99-2.41.63-2.55 1.32-2.55 1.32-.52.81.14 1.24.14 1.24s.83.28 1.02 1.19-.78 1.63-.78 1.63-1.16.97-2.9 1.27-2.4.35-3.43-.47c-.91-.72-.3-1.86.31-2.3s.91-.91.99-1.11.03-.38.03-.38l-.58-.53c-2.01-1.33-9.88.06-9.88.06l-1.34.29-.67-.44s-2.29.6-4.88.59c-2.71-.01-1.27-2.13-1.27-2.13s.64-1.12.75-1.76c0 0 .22-1.74-1.42-1.63-1.65.11-1.97 1.55-1.97 1.55s-.11.8-.09 1.39 0 1.85-.74 2.56-1.53.49-1.53.49-1.33-.58-1.59-.72c-.27-.14-.52-.15-.75-.07-.02 0-.04.02-.06.03l-.17.75.02-.62c-.16.18-.27.42-.27.42l.09.33-.25.56v.03s.09-.19.22-.35l.18-.37-.05.24c.06-.04.11-.07.17-.07.28-.02.63.16.63.16s1.14.61 1.64.72.88-.06 1.2-.29c.53-.37 1.14-1.12 1.4-1.84.23-.65.28-2.39.28-2.39s0-.41-.01-.5c-.01-.1-.08-.55.2-.78s.46-.35 1.14-.36c.68-.02.89.38.89.38s.23.33.23.54-.07.34-.07.34-.37.63-.5.93c-.13.31-.64 1.32-.49 2.18.15.85 1.48 1.25 1.48 1.25s1.06.25 2.58.03l3.12-.5.54-.62.22.47c.81-.15 2.14-.37 3.58-.51 2.33-.23 4.79-.26 5.82-.13 0 0 .48.06.4.23-.06.14-.42.42-.42.42s-.13.08-.65.67-.67 1.15-.69 1.66.52 1.99 2.42 2.39 4.08-.34 4.08-.34 1.43-.31 2.79-1.67c1.41-1.41.01-3.11.01-3.11s-.22-.3-.65-.44c0 0-.19-.05-.08-.17s.37-.65 1.37-.9c1-.26 3.98-1.2 11.06-2.13l.27-.62.87.46c2.71-.37 4.55-.69 7.83-1.45 0 0 3.04-.54 3.68-1.65.37-.65 1.03-1.54-.05-2.43 0 0-.13-.16-.79-.31s-1.18-.25-1.74-.65-.55-.87-.55-.87-.05-.44.86-.96c0 0 .85-.62 2.54-1.16 1.69-.53 3.65-.3 3.65-.3s.82.09.68.64c-.14.56-.6 1.48-.62 1.96-.02.47.01 1.03.94 1.41.93.39 2.27.27 2.27.27s1.38-.07 3.65-.8c2.26-.73 4.59-1.57 4.59-1.57l-.09-.48.97.17c.59-.22 1.41-.54 2.29-.94 1.8-.81 2.66-1.49 3.48-1.96 0 0 1.82-1.12 2.89-1.09 0 0 .25 0 .27.32s.1.81.22 1.1c.11.28.74 1.82 2.73 2.05s2.85-1.12 2.85-1.12.68-1.05-.5-2.3c0 0-.96-1.03-.99-1.11 0 0-.1-.16.17-.23s3.15-.88 4.27-1.4c0 0 .01 0 .04-.01l-.27-.49.53.36c.2-.1.45-.25.54-.4.17-.27-.05-.8-.05-.8-.13-.19-.26-.37-.4-.55l-.61-.26-.06.03-.48.35" fill="url(#x)" opacity=".34"/><path d="m24.24 30.97-.29.43c.13-.02.24-.06.24-.06s.4-.07 1.11.12c.92.24 2.07-.5 2.07-.5s.87-.52 1.27-1.38l.36-1s.29-.97 1.1-1.28c0 0 .32-.17.83-.18.51 0 .39.35.39.35s-.06.23-.59.91-.67 1.2-.67 1.2-.32.72.19.96c0 0 .24.14.94-.09s3.02-.84 4.44-1.06l.99-.51c-.31-.23-.6-.44-.6-.44-2.39.44-4.17 1-4.77 1.23-.61.23-.62.08-.62.08-.21-.25.43-1.02.43-1.02s.66-.89.91-1.72c.26-.82-.89-.71-.89-.71-.76.12-1.3.48-1.93 1.24-.49.59-.78 1.39-.89 1.81-.07.27-.19.51-.19.51s-.09.17-.45.32c-.42.18-1.23.4-1.23.4s-.54.05-.93-.15c-.24-.12-.9.05-.9.05l.09-.5-.08-.03-.68.38c-.11.19-.23.38-.34.57-.06.15-.18.48.04.51h.16l.47-.46z" fill="#232323" opacity=".1"/><path d="m29.42 23.83s.34-.27.34-.03-.33.69-.33.69-.11.13-.17.13.02-.47.16-.8z" fill="#232323" opacity=".1"/><path d="m26.72 27.14s-.39.46 0 .52l.84-.83s-.05-.06-.16-.11c0 0-.52.26-.68.42z" fill="#232323" opacity=".1"/><path d="m93.93 100.39s-1.75.81-3.39 1.6c-1.65.8-2.25 1.14-2.25 1.14s-.09.05-.03.08 0 .06 0 .06c-.85.41-2.7 1.07-2.7 1.07s-.17.06-.16.02c0-.04.2-.11.2-.11s.38-.15.28-.22-1.21.31-1.21.31-1.95.62-2.89.89-2.75.74-2.75.74c-1.2.3-3.75.8-4.31.9s-.42.06-.42.06.49-.19-.41-.23c-1.15-.05-2.36.11-3.61.29s-1.18.32-1.18.32-.04.16.71.14.53.05.53.05c-1.4.2-4.2.24-4.2.24.46.02.92.03 1.38.03.61 0 1.22-.01 1.82-.03.24-.02 1.48-.15 1.93-.25.49-.11-.09-.11-.09-.11l-.74-.03s-.78-.03-.05-.16 1.83-.19 2.39-.25c.83-.1.54.1.54.1l-.04.02s.01.1.53.07c.51-.03 4.72-.8 7.07-1.49s4.1-1.25 4.1-1.25.16-.06.07.03c-.1.08-.46.2-.46.2s-.59.3.84-.11c.07-.02.14-.04.2-.06 1.23-.47 2.45-.98 3.64-1.54.03-.03.13-.14-.02-.1-.17.06 0-.07.18-.13s2.27-1.16 3.36-1.61c.39-.22.78-.45 1.17-.69z" fill="#fff" opacity=".3"/><path d="m17.32 63.18.11.98c.24.29.58.68 1.07 1.18 1.08 1.12 1.43.42 1.43.42s.07-.2.09-.59c-.04.22-.21.4-.79-.06-.3-.24-.69-.63-1.08-1.05-.33-.33-.72-.74-1.02-1.12l.05.07-.21.53s.07.12.27.38l.09-.74z" fill="url(#z)"/><path d="m19.86 63.77s-.01-.05-.02-.08c.01.09.03.18.04.27 0 0 .09.39.12.75-.01-.27-.05-.58-.14-.95z" fill="url(#A)"/><path d="m115.82 43.21.29.32c.41-.24.66.04.66.04l-.39-.49c-.38.08-1.09.26-2.23.61 0 0-1.35.59-1.59 1.53-.01.33.05.64.12.88.75 1.43.91 1.67.91 1.67.5 1.09.42 1.99.25 2.82-.19.92-1.19 1.67-1.79 1.84-.61.17-.95 0-1.14-.48-.19-.49-.16-.85-.44-2.34-.28-1.5-.65-2.2-1.22-2.37-.56-.17-1.31.47-1.75.81s-2.42 2.15-2.42 2.15-2.32 2.09-5.74 4.03-7.69 3.42-7.69 3.42-2.84 1.09-3.52 1c-.69-.09-.51-.72-.3-1.08.22-.36.52-.94.77-1.54.31-.76.2-1.65-.36-1.97-.56-.31-1.25-.47-3.52.09-2.28.56-3.2 1.08-3.84 1.45-.64.38-1.58 1.23-1.84 1.72-.26.48-.56.98.12 1.58.69.59.76.49 1.56 1.05.79.56.92.64.97 1.47s-.76 1.34-.76 1.34-3.12 2.08-6.6 2.78c-2.34.47-6.83.64-6.83.64s-1.33-.05-5.38.55c-4.06.59-6.79 1.51-7.74 1.86-.95.34-2.34.81-3.14 1.17-.79.36-.38.89-.2 1.01.17.12 1.19 1.07 1.5 1.36.31.28 1.47 1.28.11 2.11s-3.6 1.26-3.6 1.26-3.12.65-4.12.23-1.2-.78-1.45-1.36c-.31-.72-.02-1.26.79-1.78.77-.49.47-1.2.47-1.2-.98-1.9-3.06-2.06-4.77-1.94-2.72.2-5.36.47-7.42.73-3.06.39-4.54-.06-5.99-.51s-3-1.53-3.15-2.5c-.03-.1-.04-.2-.04-.31-.08-.76.07-1.15.18-1.78.11-.62-.04-1.53-.08-1.76 0-.03-.02-.06-.02-.08-.51-1.3-1.73-1.9-2.67-2.06-.95-.16-.98.86-.98.86v.04c.08-.21.22-.31.44-.31.58.02 2.26.36 2.78 1.75 0 0 .22.65.02 1.48s-.16 1.57-.02 2.29c.15.72.76 1.41 1.47 1.97.7.56 2.74 1.53 4.73 1.66 1.81.12 2.48.04 2.59.02l.76-.77.13.67c.81-.09 2.12-.23 3.62-.39 2.53-.27 4.23-.54 5.8-.31s2.08 1.46 2.08 1.46.11.31-.25.54c-.35.22-.75.55-.95.89s-.41 1.07.16 2.03 2.14 1.59 3.48 1.43 3.34-.67 4.52-.98c1.29-.34 2.42-.97 2.57-1.98s-1.53-2.3-1.53-2.3-.81-.61-.91-.75.1-.2.1-.2.95-.23 1.36-.42c.4-.19 1.52-.64 3.35-1.22 1.83-.57 5.61-1.25 5.61-1.25s2.09-.33 4.69-.54l.61-.71.49.63c.41-.02.82-.04 1.24-.06 3.57-.13 5.34-.56 7.24-.98 1.9-.43 4.57-1.98 4.96-2.28.4-.3 1.23-.66 1.4-1.96.17-1.29-1.36-2.16-1.36-2.16s-1.22-.64-1.48-.93-.02-.56-.02-.56.69-1.49 2.9-2.35c2.21-.87 3.69-1.11 4.62-1.21s1.25.24 1.38.4.13.49.02.82c-.1.31-.44 1.04-.64 1.4s-.52 1.22-.32 1.62c.21.4.84.59 1.66.44s2.99-.76 4.89-1.55 5.07-2.34 5.07-2.34.01 0 .02-.01l.09-.73.73.3c1.02-.56 2.76-1.58 4.01-2.63 1.87-1.57 3.7-3.22 4.16-3.64.47-.42.89-.75 1.31-.73s.73.32.99 1.43c.26 1.12.31 2.04.43 2.58s.29 1.18.93 1.31 1.51-.44 1.84-.71c.33-.28.92-1.18.88-2.38 0 0 .07-1.6-.76-3.13 0 0-.35-.61-.48-.78-.09-.12-.16-.24-.01-.52.15-.29.47-.82 1.06-1.16.45-.26.88-.32 1.13-.4 0 0 .28-.07.64-.27l-.14-.4z" fill="url(#B)"/><path d="m17.67 47.34-.05.24c.05-.04.11-.07.17-.07.28-.02.63.16.63.16s1.14.61 1.64.72c.51.1.88-.06 1.2-.29.25-.17.52-.43.76-.74-.29.29-.73.55-1.36.6 0 0-.57-.05-1.42-.59s-1.33-.23-1.73.1l-.25.56v.04s.09-.19.22-.35l.18-.37z" fill="#fff"/><path d="m22.51 46.6c.06-.12.11-.24.16-.35.05-.14.09-.33.12-.55-.1.44-.22.73-.22.73s-.02.07-.06.17z" fill="#fff" opacity=".73"/><path d="m22.93 43.29c-.04.44-.04.99-.04 1.49.04-.51.05-.94.05-.94s0-.41-.01-.5c0-.01 0-.03 0-.05z" fill="#fff" opacity=".73"/><path d="m24.24 30.97-.29.43c.09-.01.09 0 .24-.06 0 0 .4-.07 1.11.12.92.24 2.07-.5 2.07-.5s.27-.16.58-.46c-.4.24-1.39.76-2.13.58-.96-.23-.99-.02-1.34-.05-.29-.03-.29-.11-.27-.31 0-.03.02-.05.03-.09.05-.26.34-.69.34-.69l-.68.38c-.11.19-.23.38-.34.57-.06.15-.18.48.04.51.06 0 .11.01.16 0l.48-.46z" fill="url(#C)"/><path d="m33.14 29.68c-1.03.28-1.97.73-2.49.6-.44-.11-.08-.76.04-.97.07-.15.17-.29.25-.41.31-.51.83-1.35.83-1.35s.03-.07.05-.1c.07-.18.12-.54-.47-.6-.8-.08-1.61.62-1.61.62s-.55.3-.84 1.42l.11-.31s.29-.97 1.1-1.28c0 0 .32-.17.83-.18.51 0 .39.35.39.35s-.06.23-.59.91-.67 1.19-.67 1.19-.32.72.19.96c0 0 .24.14.94-.09s3.02-.84 4.44-1.06l.99-.51c-.67.06-2.51.53-3.5.79z" fill="#fff"/><g fill="#231f20"><path d="m106.7 88.86s0 0 .01-.01z" opacity=".1"/><path d="m106.86 88.68s0-.01.01-.01c0 0 0 .01-.01.01z" opacity=".1"/><path d="m104.02 91.32-.16.17c-.65.71-.97 1.01-.97 1.01l-.24.27s0 .01-.01.01h.04s.23 0 .59-.22c-.07.04-.14.07-.18.07-.18.01.43-.54.43-.54s.59-.62.97-1.12.14-.47.14-.47-.09-.02-.4.12c.02.03.17.23-.2.69z" opacity=".25"/><path d="m106.78 88.77s0-.01.01-.02c0 0 0 .01-.01.02z" opacity=".1"/><path d="m89.07 95.85s2.22-.93 3.4-.79c0 0 .61.06-.06.71s-.89 1.17.4.75c0 0 .09-.03.25-.09-.5.14-.74.14-.66.03.12-.19.46-.46.46-.46s.4-.4.4-.8c0 0 .13-.59-1.6-.22-1.01.21-1.97.59-2.59.87z" opacity=".22"/><path d="m104.18 90.65s-.03.01-.04.02c.01 0 .03-.01.04-.02z" opacity=".1"/><path d="m94.43 95.94c1.45-.52 3.93-1.85 5.02-2.49-1.1.63-3.6 1.91-5.02 2.49z" opacity=".28"/><path d="m103.63 90.97s.06-.03.08-.05c-.03.02-.05.03-.08.05z" opacity=".1"/><path d="m107.74 87.72s.02-.02.03-.03c0 0-.02.02-.03.03z" opacity=".1"/><path d="m107.56 87.92s.02-.02.02-.03c0 0-.02.02-.02.03z" opacity=".1"/><path d="m107.64 87.83s.02-.02.03-.03c-.01.01-.02.02-.03.03z" opacity=".1"/><path d="m107.02 88.5s0-.01.01-.01z" opacity=".1"/><path d="m87.37 96.73s-.02.02-.04.02c.01 0 .02-.01.04-.02z" opacity=".1"/><path d="m107.47 88.02s.01-.01.02-.02c0 0-.01.01-.02.02z" opacity=".1"/><path d="m107.2 88.31s.01-.01.01-.02c0 0 0 .01-.01.02z" opacity=".1"/><path d="m107.37 88.12s.02-.01.02-.02z" opacity=".1"/><path d="m107.11 88.41s.01-.01.02-.02c0 0-.01.01-.02.02z" opacity=".1"/><path d="m107.28 88.22s.01-.01.02-.02c0 0-.01.01-.02.02z" opacity=".1"/><path d="m87.94 96.4s-.02.01-.03.02c0 0 .02 0 .03-.02z" opacity=".1"/><path d="m88.17 96.29s-.01 0-.02 0z" opacity=".1"/><path d="m87.43 96.69s-.02.01-.03.02c0 0 .02-.01.03-.02z" opacity=".1"/><path d="m88.09 96.32s-.01 0-.02.01c0 0 .01 0 .02-.01z" opacity=".1"/><path d="m88.23 96.25s0 0-.02.01c0 0 .01 0 .02-.01z" opacity=".1"/><path d="m88.13 96.31s-.01 0-.02.01c0 0 .01 0 .02-.01z" opacity=".1"/><path d="m88.27 96.23s-.02.01-.03.01c0 0 .02-.01.03-.01z" opacity=".1"/><path d="m88.05 96.35s-.02.01-.03.02c0 0 .02-.01.03-.02z" opacity=".1"/><path d="m88.31 96.22h-.01z" opacity=".1"/><path d="m88.29 96.23s0 0-.01 0z" opacity=".1"/><path d="m88.2 96.27s-.01 0-.02 0z" opacity=".1"/><path d="m87.99 96.38s-.02 0-.03.01c0 0 .02-.01.03-.01z" opacity=".1"/><path d="m87.68 96.55s-.03.02-.05.03c.02-.01.04-.02.05-.03z" opacity=".1"/><path d="m87.54 96.63s-.02.01-.03.02c0 0 .02-.01.03-.02z" opacity=".1"/><path d="m87.48 96.66s-.02.01-.03.02c.01 0 .02-.02.03-.02z" opacity=".1"/><path d="m87.6 96.59s-.02.01-.04.02c.01 0 .02-.01.04-.02z" opacity=".1"/><path d="m87.89 96.43s-.02 0-.03.02c0 0 .01-.01.03-.02z" opacity=".1"/><path d="m107.83 87.63s.03-.03.04-.04c-.01.01-.03.03-.04.04z" opacity=".1"/><path d="m87.84 96.46s-.02 0-.03.02c0 0 .02-.01.03-.02z" opacity=".1"/><path d="m87.79 96.49s-.02.01-.03.02c0 0 .02-.01.03-.02z" opacity=".1"/><path d="m87.73 96.52s-.02.01-.03.02c0 0 .02-.01.03-.02z" opacity=".1"/><path d="m108.56 86.84s-.04.04-.06.06z" opacity=".1"/><path d="m108.48 86.93s-.04.04-.06.07c.02-.02.04-.05.06-.07z" opacity=".1"/><path d="m108.62 86.78s-.02.02-.03.03c0-.01.02-.02.03-.03z" opacity=".1"/><path d="m107.91 87.54s.04-.04.06-.06c-.02.02-.04.04-.06.06z" opacity=".1"/><path d="m108.39 87.02s-.02.03-.04.04z" opacity=".1"/><path d="m108.7 86.69s-.02.02-.03.03c0-.01.02-.02.03-.03z" opacity=".1"/><path d="m108.82 86.56s-.01.01-.01.02c0 0 .01-.01.01-.02z" opacity=".1"/><path d="m104.06 90.71s-.03.02-.04.02c.01 0 .03-.02.04-.02z" opacity=".1"/><path d="m108.77 86.62s-.02.02-.03.03c0 0 .02-.02.03-.03z" opacity=".1"/><path d="m103.79 90.87s-.03.02-.05.03c.02 0 .04-.02.05-.03z" opacity=".1"/><path d="m64.19 105.67h-.02z" opacity=".1"/><path d="m64.26 105.67s-.01 0-.02 0z" opacity=".1"/><path d="m64.13 105.67h-.01z" opacity=".1"/><path d="m64.06 105.68h-.01z" opacity=".1"/><path d="m103.99 90.75s-.02.02-.04.02c.02 0 .03-.01.04-.02z" opacity=".1"/><path d="m103.93 90.79s-.03.02-.04.02c.01 0 .03-.01.04-.02z" opacity=".1"/><path d="m103.86 90.83s-.03.02-.04.02c.02 0 .03-.01.04-.02z" opacity=".1"/><path d="m104.07 90.71s.03-.02.05-.03c-.02 0-.03.01-.05.03z" opacity=".1"/><path d="m103.84 92.16s-.08.07-.19.15c.07-.05.14-.1.19-.15z" opacity=".1"/><path d="m108.33 87.09s-.04.05-.07.07c.02-.02.04-.05.07-.07z" opacity=".1"/><path d="m44.17 101.65s-.04-.02-.06-.02c.02 0 .04.02.06.02z" opacity=".1"/><path d="m87.17 96.86s-.02.02-.04.02c.01 0 .02-.02.04-.02z" opacity=".1"/><path d="m61.98 104.51s-.05 0-.07 0z" opacity=".1"/><path d="m43.8 101.52s.04.01.06.02c-.02 0-.04-.01-.06-.02z" opacity=".1"/><path d="m43.68 101.48s.08.02.12.04c-.04-.01-.08-.03-.12-.04z" opacity=".1"/><path d="m43.98 101.58s-.08-.03-.12-.04c.04.01.08.03.12.04z" opacity=".1"/><path d="m108 87.44s.03-.03.04-.04c-.01.02-.03.03-.04.04z" opacity=".1"/><path d="m44.18 101.65s.08.03.12.04c-.04-.01-.08-.03-.12-.04z" opacity=".1"/><path d="m108.1 87.34s.03-.03.04-.04c-.01.02-.03.03-.04.04z" opacity=".1"/><path d="m108.18 87.25s.04-.04.06-.06c-.02.02-.04.04-.06.06z" opacity=".1"/><path d="m44.11 101.63s-.04-.02-.06-.02c.02 0 .04.01.06.02z" opacity=".1"/><path d="m87.25 96.8s.04-.02.06-.04c-.02.01-.04.02-.06.04z" opacity=".1"/><path d="m62.48 104.57s-.03 0-.05 0z" opacity=".1"/><path d="m87.24 96.81s-.03.02-.05.03c.01-.01.03-.02.05-.03z" opacity=".1"/><path d="m62.56 104.58s-.03 0-.05 0z" opacity=".1"/><path d="m62.63 104.59s-.03 0-.05-.01c.02 0 .03 0 .05.01z" opacity=".1"/><path d="m62.22 104.53s-.06 0-.1-.01c.03 0 .07 0 .1.01z" opacity=".1"/><path d="m62.4 104.56s-.04 0-.06 0z" opacity=".1"/><path d="m62.31 104.54s-.05 0-.08-.01c.03 0 .06 0 .08.01z" opacity=".1"/><path d="m62.09 104.52s-.05 0-.08 0z" opacity=".1"/><path d="m44.05 101.6s-.04-.01-.06-.02c.02.01.04.01.06.02z" opacity=".1"/><path d="m62.71 104.61s-.04 0-.05-.01c.02 0 .04.01.05.01z" opacity=".1"/><path d="m62.89 104.65s-.02 0-.03-.01c.01 0 .02 0 .03.01z" opacity=".1"/><path d="m65.17 105.59s-.02 0-.03 0z" opacity=".1"/><path d="m62.78 104.63s-.04-.01-.06-.01c.02 0 .04 0 .06.01z" opacity=".1"/><path d="m63.94 105.67h.01z" opacity=".1"/><path d="m61.34 104.5h.14z" opacity=".1"/><path d="m63.84 105.67h.01z" opacity=".1"/><path d="m62.89 104.65s.16.02.06.34c-.1.31.06.45.47.59h.02c-.08-.04-.07-.08-.07-.08s0-.08.08-.22c.09-.14 0-.37-.29-.54 0 0-.07-.05-.27-.1z" opacity=".36"/><path d="m63.99 105.67h.02z" opacity=".1"/><path d="m62.83 104.64s-.03 0-.04-.01c.02 0 .03 0 .04.01z" opacity=".1"/><path d="m44.87 101.9s-.02 0-.03-.01c0 0 .02 0 .03.01z" opacity=".1"/><path d="m44.9 101.91s-.02 0-.02-.01c0 0 .02 0 .02.01z" opacity=".1"/><path d="m44.8 101.87s-.02 0-.03-.01c0 0 .02 0 .03.01z" opacity=".1"/><path d="m61.78 104.5h.07c-.02 0-.05 0-.07 0z" opacity=".1"/><path d="m44.92 101.92s-.01 0-.02 0z" opacity=".1"/><path d="m43.5 101.44s.07.02.11.03c-.04 0-.07-.02-.11-.03z" opacity=".1"/><path d="m43.61 101.47s.04.01.06.02c-.02 0-.04-.01-.06-.02z" opacity=".1"/><path d="m44.94 101.93s0 0-.01 0z" opacity=".1"/><path d="m44.76 101.86s-.02-.01-.03-.01c.01 0 .02 0 .03.01z" opacity=".1"/><path d="m43.81 101.88s-.02-.02-.03-.03c-.26-.2-.34-.42-.34-.42h.05c-.29-.08-.5-.11-.48-.02.01.06.13.15.27.25.17.09.35.19.52.28v-.06z" opacity=".38"/><path d="m44.84 101.89s-.02 0-.03-.01c0 0 .02 0 .03.01z" opacity=".1"/><path d="m44.72 101.84s-.03-.01-.04-.01c.01 0 .03.01.04.01z" opacity=".1"/><path d="m44.96 101.93s0 0-.02 0z" opacity=".1"/><path d="m44.35 101.71s-.03-.01-.05-.02c.02 0 .03.01.05.02z" opacity=".1"/><path d="m61.66 104.5h.08c-.03 0-.05 0-.08 0z" opacity=".1"/><path d="m61.52 104.5h.09z" opacity=".1"/><path d="m44.47 101.75s-.07-.02-.11-.04c.04.01.07.03.11.04z" opacity=".1"/><path d="m44.63 101.81s-.03-.01-.04-.01c.01 0 .03 0 .04.01z" opacity=".1"/><path d="m44.52 101.77s-.03-.01-.04-.01c.01 0 .03 0 .04.01z" opacity=".1"/><path d="m44.68 101.83s-.03-.01-.04-.02c.01 0 .03.01.04.02z" opacity=".1"/><path d="m44.58 101.79s-.03-.01-.05-.02c.02 0 .03.01.05.02z" opacity=".1"/><path d="m86.54 98.89h.01z" opacity=".1"/><path d="m86.44 98.93h.01z" opacity=".1"/><path d="m65.07 105.61s-.02 0-.03 0z" opacity=".1"/><path d="m86.9 97.05s.03-.02.04-.03c-.01 0-.03.02-.04.03z" opacity=".1"/><path d="m87.08 96.92s.02-.01.03-.02c0 0-.02.02-.03.02z" opacity=".1"/><path d="m87.02 96.96s.02-.02.03-.02c0 0-.02.01-.03.02z" opacity=".1"/><path d="m87.03 98.44c.2.06.11.17-.09.28l.09-.03s.79-.43.46-.63c-.34-.2-1.13-.28-.61-.97l.02-.02c-.44.34-.76.72-.5 1.02 0 0 .11.19.63.35z" opacity=".19"/><path d="m86.96 97s.03-.02.04-.03c-.01 0-.02.02-.04.03z" opacity=".1"/><path d="m64.42 105.67h-.02z" opacity=".1"/><path d="m64.57 105.65h-.02z" opacity=".1"/><path d="m64.49 105.66h-.03z" opacity=".1"/><path d="m66.14 104.54s.36.22 1.67.29c0 0 .45 0 .47.04.02.03.04.06-.07.1.06-.02.79-.25.47-.39-.04-.02-.06-.03-.07-.03 0 0-.01 0-.02 0h-.02-.01s-.01 0-.02 0c0 0 0 0-.01 0 0 0-.01 0-.02 0h-.01-.01s-.01 0-.02 0h-.01-.02s0 0-.01 0c0 0-.01 0-.02 0s-.02 0-.03 0h-.02s0 0-.01 0h-.03s-.01 0-.02 0h-.01s-.01 0-.02 0 0 0-.01 0h-.03s-.08 0-.13 0-.01 0-.02 0h-.01s-.01 0-.02 0h-.01s-.01 0-.02 0c0 0-.01 0-.02 0 0 0-.01 0-.02 0s-.02 0-.03 0h-.02s-.02 0-.03 0c0 0-.01 0-.02 0h-.02s-.01 0-.02 0c0 0-.02 0-.03 0h-.02s-.02 0-.03 0h-.02c-.01 0-.02 0-.03 0 0 0-.01 0-.02 0s-.02 0-.04 0h-.02s-.04 0-.06 0c-.14-.02-.27-.03-.38-.06l-.19-.03s-.47-.01-.65-.32c-.12-.2.46-.32.46-.32s.96-.19 1.92-.32c0 0-2.54.29-2.78.63-.21.34.2.51.2.51z" opacity=".25"/><path d="m64.96 105.62s-.01 0-.02 0z" opacity=".1"/><path d="m64.85 105.63s-.02 0-.03 0z" opacity=".1"/><path d="m64.76 105.64s-.02 0-.03 0z" opacity=".1"/><path d="m64.67 105.64s-.02 0-.03 0z" opacity=".1"/><path d="m86.26 98.99h.01z" opacity=".1"/><path d="m86.29 98.98h.01z" opacity=".1"/></g><path d="m23.73 82.78c-.07-.06-.11-.11-.14-.13h-.02z" fill="url(#E)"/><path d="m106.53 74.6.69.11c1.98-1.57 3.87-3.57 3.87-3.57s1.26-1.26 1.89-2.36c.22-.38.28-.36.27-.18.02-.09.1-.46-.04-.71-.09-.18-.38.29-.83.86 0 0-2.01 2.93-5.8 5.82s-4.78 3.77-8.08 5.66c0 0-2.31 1.02-3.92.67-1.25-.27 0-1.55.27-2.7s.06-1.58-.22-1.81c-.29-.22-.91-.38-2.14-.11 0 0-4.71 1.26-6.82 3.31-1.92 1.86.48 2.62 1.02 2.88 0 0 .78.34.72.67-.06.34-.5.62-.74.78s-3.34 1.98-8.32 2.76c-4.04.64-3.26.25-7.14.65s-4.95.72-8.07 1.45c-3.12.74-4.94 1.54-5.35 2.35-.34.67.48 1.1.99 1.41.51.3 1.42.78 1.12 1.29-.31.51-1.63 1.28-4.87 1.39s-4.57-.34-5.16-1.04c-.55-.65-.08-1.32.1-1.95 0 0 .38-.82.16-1.21-.22-.4-.74-.49-1.28-.56-.54-.06-3.24-.16-5.34-.27-2.37-.13-5.21-.21-8.61-.93 0 0-2.24-.44-3.69-1.26-.1-.06-.18-.11-.25-.16-.11-.06-.19-.12-.25-.21-.41-.43-.05-.75-.19-1.17-.12-.36-.35-.88-.9-1.5-.18-.18-.43-.44-.72-.71-.08-.07-.17-.14-.25-.21-1.28-1.04-1.42-1.15-1.96-1.17s-.24.89-.13 1.25c.04.14.14.33.24.51-.2-.36-.34-.73-.26-.92.14-.34.31-.31.31-.31s.13-.05.59.3 1.5 1.08 2.01 1.7.48 1.18.48 1.18-.1.56.45 1.17c.56.6 1.73 1.71 5.86 2.35h.06l.19-.55.57.66h.02c3.59.52 5.54.56 5.54.56s4.71.17 5.98.17 1.03.66 1.03.66-.07.36-.22.65-.52 1.36-.14 1.94c0 0 .58 1.43 4.38 1.53 0 0 3.32.27 5.64-.69 2.32-.95.22-2.28.22-2.28s-.79-.48-1.13-.74c-.31-.23-.18-.48-.12-.65.06-.16.3-.36.56-.49.26-.14 1.24-.65 5.37-1.72 4.12-1.07 6.59-1.18 6.59-1.18h.06l.33-.65.85.56c.73-.06 1.69-.13 2.54-.17 1.69-.08 4.34-.47 5.88-.81s3.87-1.06 5.59-1.95 1.81-1.52 1.81-1.52.33-.47-.39-1c-.72-.52-1.04-.38-1.67-1.03-.64-.65.55-1.62.55-1.62s.61-.86 4.02-2.18c3.41-1.31 3.98-.87 4.16-.73s.2.61.12.93c-.07.32-.49 1.46-.72 2.05s-.32 1.4.6 1.6c.93.19 2.22-.01 3.43-.44 2.89-1.03 3.76-2.3 8.53-5.76.01 0 .02-.01.03-.02v-.65h.01z" fill="url(#F)" opacity=".83"/><path d="m117.02 62.24c-.63 1.19-1.16 2.61-1.44 3.5-.05.21-.06.33-.06.33s-.12.65-.05 1.04c.03.16.07.28.11.38.02.05.04.1.06.13.02.04.03.08.03.11 0 .08-.04.61-.27 1.23-.07.18-.14.36-.24.54-.02.05-.05.1-.07.14-.46.81-1.1 1.46-1.6 1.53-.32.05-.49-.12-.56-.39.01.37.09.74.29.96.41.44 1.56-.79 1.56-.79s.69-.79.96-2.06c.41-1.88.19-2.25.19-2.25s-.25-.39-.09-.85c.15-.46 1.16-3.05 1.98-4.01l.5-.56s0-.02 0-.03l-.21-.52c-.13.13-.26.28-.38.45-.18.29-.41.65-.69 1.12z" fill="url(#G)"/><path d="m26.69 85.45c-.15-.09-.32-.23-.47-.36-.13-.11-.64-.58-1.18-1.09-.21-.19-.41-.38-.59-.55-.28-.26-.52-.49-.69-.65l.11.36s.03.06.05.09c.18.29.85 1.26 2.15 2.28 1.55 1.21 1.56.73 1.56.73s.06-.4-.3-.84c-.06-.08-.13-.17-.2-.27s1.01 1.49-.45.3z" fill="url(#H)"/><path d="m26.8 84.62c.1.18.22.37.33.53-.01-.01-.18-.26-.33-.53z" fill="url(#I)"/><path d="m113.01 69.66s.23-.76.24-1.07v.02s-.51 1.44-.33 2.16c-.02-.56.1-1.12.1-1.12z" fill="url(#J)"/><path d="m79.42 19.06.73.07c1.43-.4 2.64-.77 2.64-.77s1.26-.41 1.9-.64 1.09-.31 1.66-.41c.56-.1 1.31-.14 1.71-.13.4 0 .53.12.53.12s.17.13.25.27.74 1.89 2.97 2.01c2.23.11 2.26-1.1 2.06-1.46-.22-.43-.9-.86-.9-.86s-.9-.58-1.09-.85.04-.36.1-.38c.07-.02 2.43-.5 2.73-.61l.02-.02-.56-.17s-.12.13-.79.31-1.23.25-1.74.31c-.5.07-.5.24-.5.24l-.09.14c-.03.08-.07.32.37.64.53.39 1.17.75 1.44 1.04.26.29.59.78.01 1.14-.28.17-.49.23-.78.26-.25.03-.46.04-.64.04-.05 0-.1 0-.16 0h-.02c-.51-.04-.75-.16-1.07-.32-.44-.22-.76-.73-.92-1.09s-.52-.66-.52-.66c-.59-.34-1.69-.34-2.81-.15s-2.65.71-2.93.81c-.27.1-1.61.55-2.31.73-.69.18-1.22.36-1.65.47s-3.43 1-4.55 1.34c-1.13.33-1.85.46-1.85.46-1.69.17-2.19-.13-2.19-.13-.3-.12-.26-.53-.26-.53v-1.15s-.02-.43-.35-.61-.78-.25-1.59-.29-1.68.04-2.09.13-1.19.31-1.76.95-.48 1.14-.48 1.14v.2c.15.25.42.52.86.74 1.01.49-1.14 1.34-1.14 1.34-.48.21-1.19.48-2.21.78-2.21.65-3.68.77-3.68.77l.68.25s5.47-1.02 7.15-2.62c0 0 .62-.29.02-.88-.61-.58-.9-.76-.9-.76s-.41-.22.02-.77.92-.79 1.35-.93 1.75-.25 2.93-.09c0 0 .49.04.46.41s-.09.87-.08 1.03.03.51.4.84c.38.33 1.1.45 1.1.45s1.26.23 2.84-.22c1.59-.44 3.65-1.14 5.44-1.63l.22-.34z" fill="#232323" opacity=".1"/><path d="m107.72 27.63.27.49s-.03.01-.03.01c-1.11.51-4 1.32-4.27 1.4s-.17.23-.17.23c.03.08.99 1.11.99 1.11 1.18 1.25.5 2.3.5 2.3s-.85 1.35-2.84 1.12-2.62-1.77-2.73-2.05-.2-.77-.22-1.09c-.02-.33-.27-.32-.27-.32-1.07-.03-2.89 1.09-2.89 1.09-.82.47-1.68 1.15-3.48 1.96-.88.4-1.69.72-2.29.94l-.97-.17.09.48s-.06.02-.06.02-2.27.82-4.53 1.55c-2.27.73-3.65.8-3.65.8s-1.34.12-2.27-.27-.96-.94-.94-1.42.48-1.4.62-1.96-.68-.64-.68-.64-1.96-.24-3.65.3c-1.69.53-2.54 1.16-2.54 1.16-.91.51-.86.96-.86.96s-.01.47.55.87 1.07.51 1.74.65c.67.15.79.31.79.31 1.08.89.42 1.78.05 2.43-.63 1.11-3.68 1.65-3.68 1.65-3.28.76-5.12 1.08-7.83 1.45l-.88-.46-.28.62c-7.09.94-10.06 1.88-11.06 2.13-1 .26-1.26.78-1.37.9s.08.17.08.17c.43.14.65.44.65.44s1.4 1.7-.01 3.11c-1.36 1.36-2.78 1.67-2.78 1.67s-2.18.74-4.08.34-2.44-1.89-2.42-2.4.18-1.08.69-1.66c.52-.58.65-.67.65-.67s.36-.28.42-.42c.08-.17-.4-.23-.4-.23-1.03-.13-3.5-.1-5.82.13-1.44.14-2.77.37-3.58.52l-.22-.48-.54.62-3.12.5c-1.51.22-2.58-.03-2.58-.03s-1.33-.4-1.48-1.25.36-1.87.49-2.18.5-.93.5-.93.07-.13.07-.34-.23-.54-.23-.54-.2-.4-.89-.38c-.68.02-.87.13-1.14.36-.04.04-.08.08-.11.13.02-.06.05-.12.07-.16.21-.31.65-.67 1.4-.7s1.04.23 1.04.23c.72.82.11 1.85-.35 2.76-.06.1-.16.27-.23.48-.03.08-.06.15-.09.23-.36 1.06.29 1.56.67 1.66s1.14.57 4.27-.03 3.59-.73 3.59-.73 6.15-1.09 8.96-.42h.02s1.3.37.33 1.34-1.73 1.62-1.5 2.38c.22.76 1.27 1.9 3.65 1.6 0 0 .84-.11 1.1-.17 1.73-.34 2.9-1.27 2.9-1.27s.97-.72.78-1.63-1.02-1.19-1.02-1.19-.66-.42-.14-1.24c0 0 .14-.69 2.55-1.32s6.81-1.52 10.56-1.99c3.49-.41 9.65-1.58 10.89-2.08 1.24-.51 1.5-1.4 1.52-1.71s.07-.83-1.14-1.09-1.76-.65-1.93-.79-.54-.48-.54-1.28 1.61-1.74 3.39-2.35 3.93-.34 3.93-.34c1.95.17.94 1.96.94 1.96-.08.32-.95 1.78.5 2.17 1.54.41 4.17-.35 5.19-.67.83-.26 3.14-1.07 4.69-1.62.35-.12.66-.23.91-.32 1.65-.58 3.02-1.22 3.78-1.68.77-.46 2.14-1.3 2.14-1.3s1.35-.74 1.8-.81c.45-.06 1.62-.35 1.77.77.16 1.11.63 1.9 1.4 2.27s2.07.54 3.25-.23.36-1.9.36-1.9c-.02-.03-.04-.06-.06-.08-.15-.27-.37-.52-.49-.65-.39-.47-.74-.82-.74-.82-.29-.44.05-.69.42-.83s2.35-.76 2.35-.76c1.16-.38 1.59-.55 2.05-.99.45-.42-.19-1.34-.24-1.41s.61.25.61.25c.13.18.27.36.4.55s.22.53.05.8c-.09.15-.34.29-.54.4l-.54-.37z" fill="url(#K)"/><path d="m73.58 106.92s-.04-.03-.01-.06c.02-.02.09-.08.12-.14 0 0-1.17-.06-2.14.08-.96.14-1.93.33-1.93.33l.3.15s.13-.05 1.05-.18 1.26-.13 1.26-.13.81-.06.97-.06.06.1.06.1-.08.14.37.12c0 0 .66-.03 1.31-.19 0 0-1.13.24-1.35-.03z" fill="#232323" opacity=".1"/><path d="m70.59 107.33s.15.27-2.92.39c0 0 1.79.05 3.31-.2 1.11-.18-.39-.2-.39-.2z" fill="#232323" opacity=".1"/><path d="m29.24 24.5s0 .1.02.13.11.11.11.11.33-.5.19-.44c0 0-.12.19-.16.23 0 0-.03.04-.09.08s-.07.02-.07-.11z" fill="#232323" opacity=".1"/><path d="m26.72 27.14s-.39.46 0 .52l.53-.53s.14-.23.14-.4c0 0-.51.25-.67.41z" fill="#232323" opacity=".1"/><path d="m37.22 38.35c1.23.15 1.5-.13 1.53-.17.29 0 1.47-.03 2.87-.21 1.69-.21 3.56-.89 3.56-.89s1.55-.57 2.1-1.18h.02s-.69-.6-1.06-1.12c0 0-.29-.56.03-1.03.32-.48.84-1.01 2.34-1.64 1.51-.64 2.36-.51 2.36-.51s.59 0 1.01.45c.42.46.65 1.01.65 1.01s.03.38-.12.63c-.14.25-.15.28-.15.28s.05.02.38 0 1.17-.14 2.67-.51c1.51-.36 3.41-.97 3.41-.97s4.9-1.58 5.41-1.71c.51-.14 1.36-.44 1.36-.44l.03.06s.4.66.39 1.27v-.06s-.02.3-.7.82c-.67.52-1.23.48-1.68.44s-.67-.07-.79-.04l-.72.04c-.79.11-1.22.41-1.22.41-1.8 1.06.73 9.29.73 9.29-3.74.47-8.14 1.36-10.56 1.99-2.41.63-2.55 1.32-2.55 1.32-.52.81.14 1.24.14 1.24s.83.28 1.02 1.19-.78 1.63-.78 1.63-1.16.97-2.9 1.27-2.4.35-3.43-.47c-.91-.72-.3-1.86.31-2.3s.91-.91.99-1.11.03-.38.03-.38l-.58-.53c-2.01-1.33-9.88.06-9.88.06-.21-1.17-.36-1.17-.28-3.12.05-1.24.29-1.75.29-1.75l.06-.16s.45-1.44 1.14-2.44c0 0 .6-.17 1.36-.35.76-.17 1.24-.26 1.24-.26z" fill="#6b6b6b"/><path d="m65.98 31.58s-4.08 1.33-3.89 1.25c0 0-.39.08-.69.16-.29.09-.54.25-.54.25s-3.29 1.22-6.44 1.85-2.98-.36-2.71-.83c.23-.41.83-1.11-.19-1.25s-1.79.25-2.21.44-3.16 1.36-1.25 2.25c0 0 1.42.64-.38 1.76 0 0-1.82 1.16-5.35 1.77 0 0-.56.06-1.88.11s-2.56.21-4.12.66c-1.38.39-1.99.58-2.74 1.06l.19-.5.2-.46c1.07-.53 3.72-1.29 5.72-1.38s2.91-.16 4.72-.62c2.13-.55 2.7-1.02 2.93-1.16.19-.12.77-.48.49-.63-.36-.2-.9-.73-.9-.73-.22-.26-.39-.37-.16-1.05.36-1.03 2.2-1.64 2.2-1.64s1.03-.53 2.33-.51c1.31.02 1.29.75 1.29.75s.06.34-.27.83c0 0-.5.58-.05.66s1.62.18 5.48-1.03 8.08-2.61 8.08-2.61.12.34.12.62z" fill="url(#L)" opacity=".45"/><path d="m47.27 35.9c-.54.61-2.1 1.18-2.1 1.18s-1.88.68-3.56.89c-1.61.2-2.78.21-2.78.21h-.08c-.17.14-.48.19-.73.21-.24.02-.81-.04-.81-.04s-2.16.43-2.6.62c0 0-.25.39-.33.54s-.3.59-.3.59c1.07-.53 3.72-1.29 5.72-1.38s2.91-.16 4.72-.62c2.13-.55 2.7-1.02 2.93-1.16.19-.12.77-.48.49-.63-.36-.2-.89-.73-.89-.73-.22-.26-.39-.37-.16-1.05.36-1.03 2.2-1.64 2.2-1.64s1.03-.53 2.33-.51c1.31.02 1.29.75 1.29.75s.06.34-.27.83c0 0-.5.58-.05.66.46.08 1.62.18 5.48-1.03s8.08-2.61 8.08-2.61c-.1-.29-.3-.65-.3-.65s-.85.3-1.36.44-5.41 1.71-5.41 1.71-1.9.61-3.41.97-2.34.49-2.67.51-.38 0-.38 0 .01-.03.16-.28c.14-.25.12-.63.12-.63s-.24-.55-.65-1.01-1.01-.45-1.01-.45-.85-.12-2.35.51c-1.51.64-2.03 1.16-2.35 1.64-.31.48-.03 1.03-.03 1.03.37.52 1.06 1.12 1.06 1.12" fill="url(#M)"/><path d="m37.73 45.88s-.06-.33.17-.94.91-.6 1.36-.5c.46.1.85.3 1.47-.12.63-.42.47-1.58.05-2.85s-.33-2.13-.33-2.13l-.61-.65-.24.7c.05 1.32.66 3.23.83 3.76s.3.8-.74.52c-1.03-.28-1.52.12-1.52.12-1.33.86-1.08 2.16-1.08 2.16l.63-.06z" fill="url(#N)" opacity=".2"/><path d="m43.62 51.27c-.26-1.76-.92-2.75-.92-2.75-.25.19-.51.69-.51.69s.18.21.47 1.57c0 0 .14.11.44.28s.52.21.52.21z" fill="#141414" opacity=".5"/><path d="m49.27 47.52s-.78.91-.38 2.34c0 0 .45-.38.58-.68 0 0-.15-.46.14-1.02 0 0-.13-.42-.35-.64z" fill="#141414" opacity=".5"/><path d="m37.32 45.89c.02-1.3.47-1.49.9-1.82.44-.33 1.33-.02 1.33-.02s.68.22 1.05-.1-.02-1.47-.22-2.12-.41-1.6-.44-2.26c-.03-.49-.09-.71-.12-.79l-.21.6c.05 1.32.66 3.23.83 3.76s.3.8-.74.52c-1.03-.28-1.52.12-1.52.12-1.33.86-1.08 2.16-1.08 2.16l.26-.03z" fill="url(#O)" opacity=".18"/><path d="m42.36 48.93c.04.06.42.6.74 2.11v.03c.3.17.52.21.52.21-.26-1.76-.92-2.75-.92-2.75-.12.09-.25.26-.34.41z" fill="#505050" opacity=".3"/><path d="m49.27 47.52s-.78.91-.38 2.34c0 0 .12-.1.26-.25l.02-.05c-.3-1.03.28-1.76.28-1.76-.05-.1-.12-.2-.19-.27z" fill="#505050" opacity=".3"/><path d="m33.28 22.83h.12c-.16.48-.79 1.14-1.07 1.58-.16.25-.25.57-.47.75.04.04 0 0 .04.04.09.05.81-.14.95-.24.08.01.08.01.12.04.04.07-.48.99-.6 1.11v.04c.2-.02.5-.06.63-.16.38-.3.47-.94.75-1.35-.01-.07-.03-.13-.04-.2-.22-.04-.68.02-.87.16h-.04c.09-.47.87-1.35 1.15-1.74.45-.65.88-1.27 1.35-1.9.24-.33.58-.62.83-.95.28-.37.57-.85.95-1.11v-.08h-.16c-.19.14-.67.22-.91.35.03.14.02.1.12.16-.14.39-.6.67-.83.99-.37.5-.78.97-1.15 1.46-.12.16-.21.42-.36.55-.24.21-.91.18-1.19.4h-.08c.06-.33.91-1.39 1.15-1.62v-.04c-.41.06-.72.27-.99.47.04.09.04.07.12.12-.15.24-.36.42-.51.63-.2.27-.31.6-.51.87.01.04.03.08.04.12.25-.02 1.31-.36 1.46-.47zm34.78 5.34c.2.07.4.13.6.2.16 0 .33 0 .43-.04 0-.65-.36-.91-.59-1.34-.11-.22-.18-.52-.35-.67.07-.24.72-.31.99-.4.64-.21 1.37-.42 2.02-.63.31-.1.67-.08.91-.24.14.01.22.03.28.12.14.21.26 1.67.15 2.1-.4 1.66-.9 2.96-1.94 3.96v.04c.39-.06.57-.44.83-.63 1.05-.79 1.76-1.97 2.14-3.44.22-.86-.14-1.71.2-2.45h-.04c-.07-.19-1.08-.55-1.39-.56-.16.18-.4.42-.63.51-.36.15-.84.11-1.15.32-.29-.02-.5-.57-.32-.79-.01-.09 0-.11-.04-.16-.24-.19-.85-.17-1.27-.16-.13.12-.25.15-.31.36h-.04c-.02.08.02.05.04.08.03.02.16 0 .24.04.45.05.44.57.67.83-.03.07-.01.04-.04.08-.15.12-1.3.45-1.54.51-.18.05-.41-.07-.55-.08-.34-.03-.63.16-.83.28.11.16.43.12.55.28.42.56.61 1.28.99 1.9zm7.87-.55c.18.09.18.33.28.51.19.37.44.82.56 1.23v.32c.09.25.4.28.6.43.16-.02.21-.06.31-.12-.07-.75-.53-1.38-.79-1.98-.08-.19-.21-.45-.24-.63-.02-.11.06-.17 0-.28-.05-.12-.07-.08-.16-.16-.06-.04-.03-.02 0-.08.07-.14.21-.29.28-.44.13-.31.13-.58.4-.75-.04-.41-.64-.46-1.11-.43-.06.04-.16.06-.24.08.05.1.08.12.2.16.11 1.16-.7 2.23-1.23 2.93-.21.28-.56.46-.75.75h-.04v.04c.53-.09 1.67-1.18 1.94-1.58zm-47.4 9.85c-.08.02-.08 0-.12.04-.29.15-.77 1.43-1.35 1.07-.29 0-.32-.06-.48-.16.02-.38.66-1.06.91-1.23.03-.6.19-1.25.12-1.82-.04-.01-.08-.03-.12-.04-.14-.05-.25.17-.36.28-.29.29-.65.6-.87.95-.34 0-1.41-.01-1.62.12h-.12c.1-.26.86-1.1.63-1.46-.01-.04-.02-.08-.04-.12-.72 0-1.59 1.29-1.82 1.82-.11.27-.11.57-.28.79v.04c.54-.07 1.08-.13 1.62-.2.2-.04.49.05.63-.04h.55c.09-.12.18-.24.28-.36.33-.35.77-.7 1.03-1.11h.12v.55c-.3.27-.77.69-.91 1.11v.32c-.2.88.22 1.33.99 1.27.5-.47 1.32-.85 1.23-1.78-.04-.04 0 0-.04-.04zm-4.59-.71h-.24c.11-.44.54-.94 1.07-.95v.2c-.18.24-.37.47-.55.71-.11 0-.21 0-.28.04zm85.23.2c-.16-.4-.29-.72-.47-1.07-.3-.57-.61-1.41-1.46-1.42-.21.18-.43.32-.56.59-.78 1.76.82 3.75 1.54 4.71.26.34.56.71.95.91-.09 1.38-1.27 1.81-2.53 1.27-.9-.39-1.61-1.24-2.18-1.98-.19-.25-.48-.46-.67-.71-.18-.24-.3-.51-.51-.71v-.04h-.08c.11.43.35.81.51 1.19.67 1.54 1.52 2.61 2.81 3.52.61.43 1.62 1.1 2.49.47 1.53-1.1.78-5.19.16-6.72zm-.12 1.9c-.1.1-.54-.42-.63-.51-.44-.44-1.33-1.22-.83-1.98h.2c.39.4.75.79.99 1.34.13.3.15.81.32 1.07-.02.07 0 .04-.04.08zm-26.24 7.91v-.4c.18-.8.14-1.76.31-2.57.24-1.09-.1-2.15.99-2.41.02-.11.06-.15 0-.24-.03-.07-.01-.04-.04-.08-.04-.03-.04-.02-.12-.04-.3.22-1.13.37-1.54.47-.31.08-.64 0-.87.16-.04.01-.08.03-.12.04.01.08.03.16.04.24.45.15.87-.03 1.07.36.13.25.11 1.16.04 1.5-.25 1.16-.14 2.49-.4 3.64-.09.4.02 1.17-.16 1.46v.08c-.24-.12-.4-.43-.56-.63-.35-.47-.88-.84-1.23-1.31-.21-.28-.44-.62-.71-.83.04-.76.26-1.56.44-2.25.13-.52.14-1.01.39-1.39.15-.22.51-.35.75-.47 0-.1 0-.15-.04-.2-.01-.04-.02-.08-.04-.12-.54.08-1 .34-1.5.47-.45.12-.91.09-1.27.28.01.09.01.11.04.16.01.04.03.08.04.12 1.39-.08 1.18.68.91 1.74-.08.33-.03.78-.2 1.03v.08h-.04c-.28-.43-.71-.85-1.07-1.23-.14-.13-.29-.26-.44-.4-.1-.14-.16-.31-.28-.44.03-.44.38-.55.71-.67-.02-.18-.05-.21-.12-.32-1.03.15-1.93.73-3.09.79v.04h-.04c0 .1 0 .15.04.2v.08c.23.04.56-.05.83.04.43.15.81.65 1.07.99.39.51 1 .95 1.39 1.46.21.27.43.63.71.83-.04.7-.23 1.43-.4 2.06-.09.32-.04.74-.2.99-.02.07 0 .04-.04.08-.38-.72-1.1-1.26-1.58-1.9-.92-1.22-1.94-2.32-2.89-3.52 0-.17.01-.27.08-.36.07-.23.36-.44.63-.48.02-.12.03-.13-.04-.24-.01-.04-.03-.08-.04-.12-.8.12-1.52.5-2.29.71-.4.11-.93.06-1.23.28-.04.01-.08.03-.12.04.02.15.06.18.12.28.32 0 .64-.09.95 0 .79.24 1.36 1.14 1.82 1.74.2.27.51.48.71.75.85 1.13 1.81 2.15 2.65 3.28.33.44.77.83 1.07 1.3.18 0 .22-.03.32-.08.21-.93.33-1.87.6-2.81.12-.43.27-.94.32-1.42.33.12.59.61.79.87.62.82 1.49 1.5 2.06 2.37.17 0 .18-.03.28-.08.18-1.34.35-2.69.52-4.03zm-62.39 6.76c-.01 2.47-.14 6.27 1.78 6.81.7.19 1.09-.27 1.31-.6.79-1.17.57-3.45-.2-4.43-.34.03-.83.84-.99 1.11-.08-.02-.08-.01-.12-.04-.09-.04-.08-.07-.16-.12-.06-.93.13-1.8.16-2.69 1.04.1 1.94.7 3.01.75 0-.19 0-.43.08-.55 0-.09 0-.11-.04-.16-.15-.12-.95-.31-1.19-.31v-.04h-.04c.15-1.17-.19-2.08-.99-2.41-.45-.08-.9-.16-1.35-.24-.23-.08-.34-.27-.51-.4-.06-.38-.13-.81.16-1.03-.02-.14-.03-.17-.12-.24v-.04h-.04c-.13.23-.25.49-.32.79-.23.98.31 1.82.91 2.02.4.06.79.13 1.19.2.31.12.45.38.67.6 0 .51-.5.57-.91.44-.64-.21-1.32-.35-1.98-.59-.17-.06-.33-.17-.56-.2-.03.25-.05.5-.08.75.55.17 1.11.34 1.66.51-.02 1.4-.57 3.07.12 4.15.08.02.14.04.2.08.78-.05.94-.68 1.34-1.11.34.82.09 2.25-.67 2.45-.33.22-.8-.07-.99-.24-.65-.6-.78-1.51-1.03-2.53-.08-.34.03-1.04-.12-1.31 0-.4.09-1.13-.12-1.34v-.04h-.08zm95.04 6.65c-.14-.67.05-1.48-.08-2.1v-.63c-.1-.45-.06-1.06-.15-1.5-.19-.88-.02-1.93-.36-2.65-.2-.05-.39-.08-.67-.08-.1.1-.18.16-.16.28.08.36.55.43.67.79.01.17.03.34.04.51.13.56.11 1.29.24 1.86v.47c.06.29.16 1.04.08 1.27-.14.41-.59.78-.87 1.07-.75.76-1.64 1.72-2.97 1.86-.03.07 0 .04-.04.08.02.49.47.4.79.59.08-.01.16-.03.24-.04.12-.07.19-.24.28-.36.2-.26.56-.4.75-.67h.04c0 1.21.03 2.56.04 3.72h.12c.27-1.17.25-2.61.24-4.04.52-.49.85-1.19 1.38-1.66v-.08h.04c0 1.25.04 2.53.04 3.8 0 .41-.1 1.38 0 1.54v.24h.08c.11-.43.14-1.02.24-1.5v-.67c.12-.54.12-1.56 0-2.1zm-71.02 2.53c-.35-.14-.78-.46-.99-.75-.64-.88-1.34-2.95-.87-4.51.38-1.27 1.2-2.13 2.53-2.45.67-.16 1.4.06 1.82.28 1.21.62 1.72 1.51 2.1 2.97.48 1.89-.13 3.62-1.38 4.19.08.76.16 1.53.24 2.29.44-.01.85-.11 1.23-.2.63-.16 1.27-.18 1.86-.32.43-.1 1.05-.01 1.38-.24.08-.17-.25-1.35-.31-1.62-.06-.23 0-.46-.12-.63v-.08c-.09.01-.19.03-.28.04.02 1.19-.83 1.03-1.78 1.26-.47.12-1.05.27-1.58.28 0-.17 0-.34 0-.51.04-.08.74-.38.87-.47.46-.32.93-.83 1.23-1.3.2-.33.37-.76.47-1.15.14-.49.15-1.17.04-1.66-.08-.34-.05-.6-.16-.91-.43-1.19-1.32-2.05-2.45-2.53-.51-.22-1.09-.22-1.7-.36-.54-.12-1.51.12-1.9.24-1.9.56-3.2 1.48-3.8 3.32-.24.73-.16 1.74.04 2.41.47 1.56 1.77 3.02 3.72 3.05v.04c.06.09.06.26.12.36-.02.07 0 .04-.04.08-.16.11-.4.06-.63.12-.47.12-1.99.49-2.33.16-.22-.07-.37-.36-.4-.63-.1 0-.15 0-.2.04h-.08c.15.77.29 1.53.44 2.3h.04v.04c1.38-.24 2.77-.48 4.15-.71-.2-.73-.4-1.45-.59-2.18-.11-.17-.47-.15-.67-.24zm67.7-4.39c.09.22.25.58.43.71.09.06.13.04.2.12 1.31.11 1.84-2.14 1.31-3.44-.09-.22-.51-.88-.91-.63h-.08c.03-.07 0-.04.04-.08 0-.19-.02-.25-.08-.36-.08-.01-.15-.03-.24-.04-.04.03 0 .01-.08.04.03.24.11.25.12.51-.64.58-1.18 1.98-.71 3.17zm.43-2.09c.09-.21.26-.35.4-.51.08-.01.07 0 .12-.04.3 0 .38.06.55.16.3.71.35 1.95-.15 2.49-.08.08-.23.12-.32.2-.83-.06-.89-1.58-.6-2.29zm-18.36 15.58c-.44-.27-.51-1.68-.67-2.29-.33-1.21-.48-2.49-.83-3.72-.22-.79-.52-1.61-.43-2.57.14-.14.23-.32.4-.44.22-.15.58-.23.75-.44.03-.05-.02-.13-.04-.24-.46.07-.88.35-1.27.51-.79.34-1.57.54-2.37.87-.25.1-.52.28-.83.32v.24s.05.03.08.04c.04.04 1.03-.39 1.35-.12.36.13.31.59.51.87-.06.61-.67 1.56-.91 2.1-.58 1.32-1.17 2.59-1.82 3.84-.25.47-.54 1.33-.87 1.7v.04c-.22-.3-.2-1.05-.32-1.46-.35-1.24-.58-2.59-.95-3.8-.07-.23-.31-1.28-.16-1.5.05-.55.82-.79 1.27-.95-.01-.09-.03-.18-.04-.28-.7.11-1.43.48-2.06.71-.6.22-1.14.31-1.74.51-.3.1-.64.28-.99.32v.04h-.04c.01.11.02.17.08.24.16.11 1.03-.35 1.39-.08.56.19.57 1.08.75 1.66.48 1.58.73 3.33 1.19 4.95.11.4.39 1.68.12 2.02-.15.44-.89.62-1.31.79.01.08.03.16.04.24.61-.09 1.16-.37 1.71-.56 1.06-.35 2.07-.65 3.09-1.03-.02-.09-.03-.19-.04-.28-.44.12-.77.25-1.39.24-.08-.07-.16-.13-.24-.2-.07-.21-.13-.42-.2-.63.04-.5.68-1.42.91-1.86.67-1.29 1.26-2.6 1.86-3.96.23-.52.75-1.28.83-1.86.18.11.13.44.2.67.14.47.21.98.36 1.5.28 1 .39 2.07.67 3.13.1.39.26 1.05.08 1.46-.18.4-.84.67-1.27.83.02.08.04.18.08.24 0 0 .91-.29 1.07-.36 1.1-.47 2.24-.96 3.36-1.38-.02-.09-.03-.18-.04-.28-.28.07-.92.44-1.31.2zm18.72 3.33c-.14.13-.36.16-.51.28-.5.36-1.02.96-1.39 1.46-.29.4-.53.84-.79 1.27-.11.19-.14.4-.28.55v.08c.35-.06.55-.28.79-.44.66-.41 1.25-.78 1.86-1.22.29-.22.52-.55.83-.75.03-.47.12-.84-.08-1.19-.13-.03-.26-.04-.44-.04zm-.48 1.42c-.24.18-.47.42-.71.6-.21.14-.46.22-.63.39h-.04c.13-.41.82-1.11 1.15-1.34.17-.12.38-.16.56-.28h.16s.03.04.08.08c-.04.3-.36.41-.55.55zm-85.5 1.55c-.17-.5-.28-.99-.43-1.46-.08-.25-.06-.53-.2-.71v-.12c.27.1.68.09.91.24h.2c-.05-.21-.09-.55-.2-.71-.12-.19-.89-.2-1.11-.35-.31-.25-.61-.95-.83-1.31-.56-.89-1.3-1.83-2.14-2.45-.44-.33-.75-.67-1.54-.67-.09.07-.18.13-.28.2-.18.79.14 2.25.59 2.61v.08c-.19-.05-.39-.15-.51-.28h-.04c0 .23.05.52.16.67.05.19.36.35.55.4.25 1.04.59 2.1.95 3.05.29.76.44 1.48.75 2.21.16.36.52.62.63.99h.12c-.09-.33-.27-.65-.39-.95-.36-.88-.65-1.8-.95-2.69-.19-.58-.33-1.15-.51-1.7-.07-.21-.05-.43-.16-.6v-.04c.27.05.43.19.63.28.46.2.9.28 1.39.47.35.14.8.35 1.23.39.05.36.25 1.3.43 1.54v.12c-.6-.41-.59-1-1.66-.91-.05.06-.13.12-.2.16-.1.25-.1.65 0 .91.26.65 1.07 1.99 1.74 2.18.26.18.63-.04.75-.24.24.13.29.68.4.95.21.56.52 1.29 1.03 1.54v.04h.08c-.07-.45-.32-.85-.48-1.23-.35-.85-.62-1.75-.91-2.61zm-1.15-3.21c-.42-.03-.77-.19-1.11-.32-.89-.33-1.7-.61-2.49-.99-.09-.36-.76-1.64-.4-2.1.03-.04.05-.08.08-.12.08-.02.08-.01.12-.04 1.22.15 2.44 1.63 3.05 2.45.24.32.43.8.75 1.03v.08zm.63 3.44c-.12.15-.24.29-.36.44-.1.08-.22.11-.32.2-.68-.02-.7-.69-.99-1.11 0-.39.15-.39.32-.6.09 0 .11 0 .16-.04.61 0 .75.28 1.11.51.06.23.09.34.08.59zm23.27 6.1c-.17-.27-.49-.34-.71-.56-.07-.02-.04 0-.08-.04.51-.26 1.05-.55 1.58-.79.14.16.8.79 1.03.67.04-.01.08-.02.12-.04-.01-.22-.03-.45-.04-.67-.5-.5-1.23-.91-2.06-1.07v.04h-.04c.09.27.4.54.64.67v.12c-.47.07-.88.29-1.31.44-.29.09-.64.08-.87.24h-.12c.17-.48.74-.87 1.03-1.27.58-.78 1.03-1.73 1.94-2.18-.02-.36-1.08-1.12-1.46-.87-.1.05-.03-.02-.08.08-.06.14.14.32.08.55-.08.31-.83 1.74-1.03 1.9v.04c-.41-.14-.72-.52-1.11-.71.07-.36.38-.64.55-.91.45-.68.82-1.33 1.5-1.78 0-.53-.85-1.07-1.42-1.07 0 .24.12.38.08.59-.14.64-.44 1.29-.67 1.86-.16.36-.23.8-.48 1.07-.05.03-.49 0-.59-.08-.15 0-.3 0-.39.04v.08c.67.64 1.39.87 2.29 1.27-.13.65-.79 1.09-1.11 1.58-.17 0-.3-.01-.4-.08-.09.02-.1.02-.16.04.02.58.5 1.08.99 1.19.33-.37.74-.54 1.23-.75.45.47.58 1.14.75 1.9.08.33-.05.7.04.99.15.51.43.67.67 1.03h.28c.17-.93-.25-1.83-.47-2.57-.06-.31-.13-.63-.2-.95zm62.51-6.69c-.24.2-.57.3-.83.48-.4.28-.76.66-1.15.95-.18.14-.43.25-.56.44-.2.3-.16.81-.4 1.07v.16c.32-.11.46-.48.71-.67.31-.23.56-.54.87-.75.19-.13.41-.21.59-.36.12.02.11.04.2.08-.02 1-.55 1.71-.87 2.45-.09.21-.12.55-.28.71-.07.08-.23.1-.31.16-.26.29-.53.58-.79.87-.25.34-.36.8-.63 1.15 0 .11 0 .21.04.28.04.03.11.06.16.08.51-.48 1-.89 1.43-1.46.66-.9.99-2.05 1.46-3.12.3-.68.73-1.35.71-2.33-.04-.04-.08-.1-.12-.16h-.24zm-2.77 6.25v.04h-.04c.07-.47.43-.61.6-.95h.08c-.05.39-.35.75-.64.91zm-59.15.63c-.08.34.76 1.11 1.03 1.31.13.1.31.33.51.24.1 0 .14-.02.2-.04.05-.11.12-.24.04-.35-.02-.5-1.31-1.05-1.78-1.15zm3.8 3.05c.07.03.12.02.2-.04.14-.11.06-.31.16-.47.22-.16.62-.12.91-.2.81-.21 1.75-.2 2.65-.4.42-.09 1.13.16 1.46-.04.04-.02.08-.03.12-.04-.02-.52-1.01-.74-1.54-.59-.24.07-.51.21-.75.28-.19.01-.37.03-.56.04-.06-.64-.38-1.14-.4-1.82.6-.01 1.34-.09 1.74-.32 0-.2-.04-.2-.12-.32-.45-.11-1.23-.13-1.58.11-.1 0-.15 0-.2-.04-.22-.28-.12-.85-.32-1.15v-.16c.43-.09 1.12-.17 1.35-.48.03-.04.01-.01.04-.08-.04-.04-.05-.07-.08-.12-.62-.16-.89-.05-1.42.16-.17-.54.03-.96-.51-1.11.12-.2.51-.19.75-.28.38-.12.82-.3 1.15-.47.03-.07 0-.04.04-.08-.02-.2-.08-.19-.16-.32-.57-.04-1.03.01-1.35.32h-.08c.05-.29.23-.72.39-.95.11-.16.32-.14.4-.36h.04v-.04c-.08-.1-.16-.21-.24-.31-.19-.13-.45-.14-.63-.28-.26 0-.51 0-.67.08.02.15.09.25.12.36.11.41-.28 1.67-.44 1.86-.12.16-1.55.67-1.94.56-.09-.03-.36-.16-.44-.24-.03-.04-.01 0-.04-.08.56-.53.97-1.7 1.74-1.94.01-.07.03-.13.04-.2-.19-.2-1.13-1.19-1.62-.87-.04.01-.08.02-.12.04 0 .34.17.59.08.95-.18.71-.59 1.55-.95 2.14-.22.35-.69.73-.71 1.23.65-.06.8-.73 1.3-.91.15.14.29.27.44.4.21.31.17.78.28 1.18.19.86.37 1.72.55 2.57.03.42.05.84.08 1.27.1.38.42 1.05.83 1.14zm1.26-3.01c.03.37.26 1.41.44 1.66v.08c-.48.1-.97.24-1.5.24-.08-.56-.35-1.06-.35-1.66.61-.01.92-.26 1.42-.32zm-2.29-3.28c.06-.11 1.11-.27 1.23-.2.42.19.27.81.51 1.19-.08.19-1.05.49-1.35.51-.05-.42-.12-1.28-.4-1.5zm1.82 1.5h.04c.08.36.12.98.32 1.27-.14.35-1.02.32-1.35.51-.14-.08-.32-1.07-.32-1.35.3-.03 1.09-.29 1.31-.44zm-6.84 2.26c-.06.14-.05.35-.12.51-.34.84-.45 1.01.08 1.82.24 0 .27-.04.4-.12.16-.66.18-1.9-.36-2.21zm45.11.24c-1.15-.29-2.13.29-3.33.2-.11-.12-.2-.19-.28-.36-.83.02-1.76 1.89-.91 2.45.45.31 1.74.13 2.29 0 .31-.07.78-.14 1.03.04.33.25.27 1.18.16 1.7-.13.97-.27 1.95-.4 2.93-.12.59-.24 1.18-.36 1.78.61 0 1.18-.62 1.35-1.07.1-.26.05-.5.12-.79.21-.83.24-1.82.43-2.69.13-.56.04-1.1.16-1.62.09-.39.14-1.7.04-2.06-.06-.2-.22-.36-.32-.52zm-54.17 11.95c-.13-.1-.23-.28-.36-.39-.47-.42-1.03-.82-1.54-1.19-.43-.3-1.01-.48-1.39-.83 0-.09.12-.3.04-.51-.33-.9-1.59-1.93-2.37-2.41-.36-.23-.97-.33-1.31-.56-.25-.02-.37-.03-.43.16-.1.22.21.52.32.67.27.38.58.83.95 1.1.28.21.59.39.83.64h.12c-.15-.43-.61-.66-.95-.91-.31-.23-.45-.63-.71-.91.02-.12.03-.11.08-.2 1.09 0 1.8 1.01 2.29 1.66.22.29.57.46.59.95-.12 0-.22 0-.28-.04h-.12c.19.52.82.48 1.27.75.89.55 1.6 1.41 2.37 2.1.26.23.72.46.79.87-.54-.03-.92-.33-1.26-.56-.61-.4-1.6-1.1-2.02-1.66-.08-.1-.11-.26-.2-.36-.11-.11-.26-.14-.35-.28h-.16c-.04.41.41.71.67.95.82.75 1.7 1.44 2.73 1.98.37.19 1.05.52 1.47.28-.06-.57-.7-1.03-1.07-1.31zm24.37 2.61c-2.01-1.38-4.99-2.78-8.43-2.69-.17.1-.5.02-.71.08-.29.08-.46.22-.67.36 0 .97 1.45 1.5 2.26 1.7.48.12.91-.1 1.19-.2.22-.82-.78-.94-1.23-1.35h-.08v-.04c3.04-.12 5.31.73 7.04 2.02.43.32.93.78 1.15 1.31.08.19.12.51 0 .68-.16.44-.69.4-1.19.51-1.16.27-2.76-.39-3.28-.91-.11.19.05.48-.12.67-.18.48-.79.35-1.35.47-.92.2-2.35-.27-2.89-.63-.15-.1-.26-.29-.4-.4 0-.1-.02-.14-.04-.2.08-.07.18-.19.24-.28 1.14-.08 1.72-.03 2.38.6-.02.08 0 .07-.04.11-.07.15-.24.17-.47.16v.07c.42 0 .59-.06.83-.2.01-.08.03-.16.04-.24-.14-.14-.23-.33-.4-.44-.65-.43-1.99-.64-2.73-.16-.12.56.23.86.55 1.11.65.49 1.19.77 2.1 1.03.29.08.55 0 .87.08.28.06.76.08 1.07 0 .5-.13 1.21-.66.63-1.27v-.04c.3.11.54.4.83.56.76.4 2.02.73 3.17.47.56-.12 1.14-.12 1.3-.64.18-.28-.07-.67-.16-.83-.37-.66-.85-1.09-1.46-1.5zm-7.32-1.82c.14.09.22.29.36.4 0 .1 0 .15-.04.2-.26.7-1.71.18-2.06-.08-.11-.08-.15-.25-.24-.35.01-.08 0-.08.04-.12.11-.3.42-.2.67-.36.5 0 .96.1 1.27.31zm36.72.39h-.4c-.26.21-.69.24-.99.39-.26.14-.58.33-.83.52-.21.15-.32.42-.51.59 0 .2 0 .23.16.28.04.03.01.02.08.04.04-.05.08-.06.12-.12.03-.02-.03-.1-.04-.23.38-.39.67-.6 1.23-.83.14-.06.45-.23.63-.12h.08c-.03.39-.92 1.59-1.19 1.78v.12c.73-.19 1.21-1.64 1.7-2.18-.01-.09-.01-.11-.04-.16zm-3.17 2.93c-.23.21-.81.23-1.07.43h-.04c.1-.15.29-.21.4-.35.07-.1.11-.22.2-.32-.02-.08-.01-.07-.04-.12v-.08c-1.15-.21-3.08.78-3.68 1.31-.15.14-.25.34-.4.48 0 .11.02.17.04.24.7.05 2.01-.38 2.17-.95.03-.03.01 0 0-.04v-.08c-.48-.03-1.12.07-1.42.36h-.04c.26-.4 1.22-.75 1.74-.91.17-.05.55-.15.71-.04.04.02.08.03.12.04-.09.4-.66.84-1.03.95v.08c.61-.14 1.16-.42 1.7-.63.37-.15.79-.19 1.11-.4.23-.15 1.01-1.21 1.07-1.5-.91.14-.99 1.04-1.54 1.54zm-3.12.79v.12c-.07.05-.13.16-.2.2-.21.12-.48.11-.67.24-.09-.01-.11 0-.15-.04h-.04c.11-.34.76-.49 1.07-.51zm-16.5 3.72s.03-.08.04-.12c-.98-.04-1.95-.08-2.93-.12-.12.08-.31.03-.47.08-.2.06-.43.15-.59.24.03.07 0 .04.04.08.24.19 1.62.2 1.9 0h.08v-.08c-.42-.13-1.18.2-1.5 0h-.04v-.04c1.05-.07 2.23-.04 3.32-.04-.11.07-.33.05-.44.12-.04.01-.08.03-.12.04v.08c.24.04.47.08.71.12.04.04 0 0 .04.04-.35.23-1.25.14-1.58-.04v-.08c-.18-.08-.99.08-1.15.12-.13.03-.27-.01-.36.04-.17 0-.18.03-.28.08.02.13.04.11.08.2.25.06.7.07.99.16v-.04h.04v-.04c-.15-.06-.56-.03-.71-.12h-.08c.13-.1 1.43-.28 1.66-.12.07.02.04 0 .08.04-.21.04-.42.08-.63.12.02.07 0 .04.04.08.07.04.19.04.32.04-.04.07-.06.11-.12.16.01.02.03.05.04.08.56 0 1.03-.06 1.5-.16.28-.06.62.05.83-.08h.32v-.08c-.54 0-1.89-.05-2.21.16h-.12s0 0 .04-.04c.16-.18.47-.09.75-.16.44-.1 1.17-.28 1.54 0 .11.07.04 0 .04.12.11 0 .18 0 .24-.04h.28v-.08c-.36-.09-.89-.25-1.19-.43-.17-.11-.09-.25-.39-.28zm-40.2-72.96c-.09.32-.27.59-.4.87-.27.61-.51 1.22-.75 1.82-.21.5-.33 1.29-.63 1.7v.08c.42-.07.7-.49.95-.75.62-.63 1.92-2.22 1.9-3.4-.06-.06-.12-.16-.16-.24-.25-.06-.56-.09-.91-.08zm.16 1.66c-.18.3-.28.59-.48.87-.18.26-.46.45-.63.71h-.04c.05-.3.21-.55.32-.79.24-.56.4-1.12.67-1.62.15 0 .27.01.36.08.09.05.03-.02.08.08.08.2-.18.51-.28.67zm70.23-12.14c-.41-.42-.73-.94-1.15-1.35v-.04c-.21.07-.9.69-1.03.87-.25-.09-.39-.36-.6-.51-.68-.51-1.31-1.17-2.49-1.15-.15.11-.37.12-.56.2-.53.23-1.08.69-1.31 1.23-.25.6 0 1.49.19 1.94.39.9 1.03 1.67 1.58 2.41.46.61.97 1.25 1.82 1.46.96.24 1.42-.88 1.78-1.31.37-.43 1.18-.54 1.46-1.11.1-.21.03-.61-.04-.79-.18-.43-1.07-1.62-1.43-1.86.03-.24.14-.25.24-.4.25.12.34.47.52.67.23.26.55.4.79.63.38 0 .6-.09.79-.28h.04c-.09-.26-.44-.45-.63-.63zm-2.26 4.27c-.7.17-1.04-.29-1.42-.67-.94-.93-1.57-2.09-2.3-3.24-.25-.4-.89-1.13-.55-1.7h.16c.2.3.54.51.75.79.59.78 1.31 1.47 1.9 2.25.36.49.76.94 1.11 1.42.18.25.32.57.56.75-.04.18-.12.26-.2.4zm.59-2.81c.32.44.76.69.75 1.46-.12.12-.16.22-.36.28-.04.03-.01.01-.08.04-.56-.93-1.36-1.71-2.02-2.57-.21-.28-.54-.51-.75-.79-.36-.48-.79-.86-1.19-1.31-.11-.13-.17-.26-.31-.36.03-.09.03-.06.08-.12.67 0 .99.46 1.38.75.97.73 1.78 1.63 2.49 2.61z" fill="#231f20" opacity=".88"/><path d="m66.01 31.68c.01-.6-.39-1.27-.39-1.27l-.03-.06s-.49-.95-1.3-1.23-1.48.34-1.48.34-.11.13-.43.49c-.31.36-.51.67-1.2.94s-1.38.2-1.74.03-.46-.54-.46-.54-.23-.72-.31-1.05c-.09-.33-.31-1.69-.31-1.69s-.49-2.75-.53-3.3c0 0 1.47-.13 3.69-.77 2.3-.67 3.04-1.21 3.04-1.21s-.43-.16-.48-.66c-.05-.51-.09-1.19-.09-1.19s-.09-.5.48-1.14 1.35-.86 1.76-.95 1.28-.17 2.09-.13 1.27.11 1.59.29c.33.18.36.61.36.61v1.15s-.04.4.25.53c0 0 .5.31 2.2.13 0 0 .72-.13 1.84-.46s4.13-1.23 4.56-1.34.95-.29 1.64-.47 2.04-.63 2.31-.73 1.81-.62 2.93-.81c1.11-.19 2.22-.19 2.81.15 0 0 .36.3.52.66s.48.86.92 1.09c.46.23.75.37 1.88.27 0 0 .02-.1-.39-.37-.42-.28-.99-.7-.99-.7s-.33-.25-.41-.45c-.07-.2-.04-.31-.04-.31l.88-1.41s0-.17.51-.24 1.07-.13 1.74-.31.79-.31.79-.31l.58.18s3.55 2.85 4.65 3.58l.2-.24s.44.02.83.17.98.56.98.56 1.61 1.31 2.07 2.2l.22.68-.1.16s.92 1.31 2.09 2.6c0 0 1.23 1.66 1.69 2.09 0 0-.11-.4-.2-.85l.34-.23.2-.14.62.26c3.57 4.81 6.43 10.42 8.14 16.33l-.12.48.39.5c1.13 4.21 1.73 8.64 1.73 13.21 0 1.12-.04 2.24-.11 3.34l-.31.51.23.56c-2.23 26.1-24.12 46.58-50.8 46.58-18.5 0-34.7-9.85-43.64-24.6l-.1-.36-.2-.15c-3.39-5.74-5.68-12.21-6.59-19.1l.21-.53-.34-.48c-.21-1.89-.32-3.81-.32-5.76 0-2.99.25-5.91.75-8.76l.25-.56-.09-.33c1.16-6.05 3.38-11.72 6.47-16.8l.68-.38.08.03s.23-.17.35-.22l.08-.02s1.18-1.97 1.62-2.6c0 0 .54-.35.75-.41 0 0 .12-.02.19.08 0 0 .5-.43 1.7-2.05 0 0 0-.01.01-.02 0 0-.11-.08-.13-.17-.02-.1.11-.59.17-.72s.11-.16.11-.16 1.72-2.03 3.15-3.24c0 0 .26-.2.68-.25 0 0 1.47-.61 3.26-2.18 0 0 .05-.29.48-.86s1.46-1.16 2.22-1.34c.76-.17.9-.04.9-.04l.06.06.51.77s.56-.32 1.41-.6c.85-.29.98-.26.98-.26l.83 1.34-.99 2s-.64 1.42-1.65 2.18c0 0-.47.28-1.12.13s-1.07.33-1.07.33l-.17.14s.14-.02.35-.1c0 0 .16.07.27.22.11.16.91 1.17.91 1.17s0 .84-.42 1.94-1.47 2.89-1.47 2.89-.73 1.42-1.08 2.25-.51 1.76-.49 2.26c0 0 .19.06.71-.2.65-.33 1.08.03 1.08.03s.72.53 1.04.88c.26.29.8 1.76.21 3.22 0 0-.4 1.01-1.38 1.72 0 0-.22.33-1.53.17-.37-.04-.58-.28-1.37-.2-.78.08-1.23.81-1.23.81v-.02c-.68 1-1.14 2.46-1.14 2.46l-.06.17s-.24.51-.29 1.75c-.05 1.28.28 3.11.28 3.11s7.88-1.39 9.88-.06l.58.53s.05.17-.03.38c-.08.2-.38.67-.99 1.11s-1.22 1.58-.31 2.3c1.03.82 1.69.77 3.43.47s2.9-1.27 2.9-1.27.97-.72.78-1.63-1.02-1.19-1.02-1.19-.66-.42-.14-1.24c0 0 .14-.69 2.55-1.32s6.81-1.52 10.56-1.99c0 0-2.54-8.22-.74-9.29 0 0 .44-.3 1.22-.41l.72-.04c.13-.03.34 0 .8.04.45.04 1 .08 1.68-.44s.7-.82.7-.82" fill="url(#P)" opacity=".38"/></g></svg>