<svg height="216.02286mm" viewBox="0 0 313.23315 216.02286" width="313.23315mm" xmlns="http://www.w3.org/2000/svg"><g stroke-width=".020815" transform="translate(-54.079375 -5.275807)"><path d="m210.53177 221.29866s98.12514 0 122.46443-6.48069c13.70449-3.6724 24.01093-14.2575 27.62825-27.32688 6.68807-23.97854 6.68807-74.41988 6.68807-74.41988s0-50.117297-6.68807-73.879819c-3.61732-13.393411-13.92376-23.762521-27.62825-27.326876-24.33929-6.5887078-122.46443-6.5887078-122.46443-6.5887078s-97.9062 0-122.135976 6.5887078c-13.485335 3.564355-24.010529 13.933465-27.847831 27.326876-6.468588 23.762522-6.468588 73.879819-6.468588 73.879819s0 50.44134 6.468588 74.41988c3.837302 13.06938 14.362496 23.65448 27.847831 27.32688 24.229776 6.48069 122.135976 6.48069 122.135976 6.48069z" fill="#f03"/><path d="m259.30109 113.28723-81.00858-45.904851v91.809711z" fill="#fff"/></g></svg>